<?xml version="1.0" standalone="no"?>
<!DOCTYPE svg PUBLIC "-//W3C//DTD SVG 20010904//EN"
 "http://www.w3.org/TR/2001/REC-SVG-20010904/DTD/svg10.dtd">
<svg version="1.0" xmlns="http://www.w3.org/2000/svg"
 width="500.000000pt" height="500.000000pt" viewBox="0 0 500.000000 500.000000"
 preserveAspectRatio="xMidYMid meet">
<metadata>
Created by potrace 1.14, written by Peter Selinger 2001-2017
</metadata>
<g transform="translate(0.000000,500.000000) scale(0.100000,-0.100000)"
fill="#000000" stroke="none">
<path d="M1510 4938 c-12 -35 -36 -93 -52 -130 -30 -65 -31 -67 -67 -66 -63 3
-293 -24 -369 -43 -39 -9 -93 -29 -118 -44 -37 -22 -62 -28 -120 -31 -120 -5
-172 -40 -416 -288 -71 -71 -138 -147 -151 -170 -22 -40 -24 -41 -70 -38 -25
2 -69 9 -97 16 -46 12 -50 12 -50 -4 0 -14 18 -21 88 -35 48 -9 102 -24 120
-32 18 -9 35 -13 38 -10 3 3 19 1 35 -5 24 -8 29 -15 29 -43 0 -18 9 -72 21
-120 26 -110 19 -192 -16 -205 -17 -6 -25 -20 -30 -50 -7 -40 -8 -41 -39 -37
-31 4 -75 23 -86 36 -3 4 -29 24 -57 46 -51 38 -53 41 -53 87 0 49 -16 66 -24
26 -13 -64 -13 -100 0 -154 7 -32 14 -81 14 -107 0 -26 6 -62 13 -80 18 -43
34 -136 48 -282 16 -172 22 -192 68 -239 60 -61 74 -103 76 -226 1 -58 4 -109
6 -115 3 -8 -56 -106 -132 -217 -11 -15 -19 -31 -19 -36 0 -4 -22 -47 -50 -95
-48 -84 -50 -90 -49 -160 1 -67 2 -69 10 -32 11 45 146 325 157 325 5 0 22
-27 39 -59 28 -53 30 -61 16 -72 -35 -30 -57 -147 -42 -223 10 -50 76 -178
128 -246 14 -19 26 -37 25 -40 0 -3 13 -27 29 -55 16 -27 79 -146 138 -264 83
-162 109 -223 109 -252 0 -37 -7 -45 -35 -39 -5 1 -33 -1 -61 -5 -43 -5 -60
-14 -107 -56 -30 -27 -59 -49 -64 -49 -15 0 -108 103 -139 152 -16 27 -32 48
-35 48 -9 0 -76 112 -125 209 l-44 86 0 -52 c0 -88 87 -233 237 -393 l80 -85
-8 -65 c-8 -70 -12 -75 -90 -115 -48 -25 -93 -81 -108 -133 -5 -17 -13 -92
-16 -166 l-8 -134 51 -74 c52 -75 95 -124 147 -168 17 -14 51 -50 76 -79 28
-33 52 -52 62 -50 12 3 -2 24 -56 85 -39 44 -112 125 -161 180 l-89 99 6 146
c7 200 21 226 154 293 83 41 80 42 244 -81 129 -96 144 -116 164 -210 8 -43
20 -98 25 -123 8 -40 6 -50 -18 -90 -36 -59 -73 -70 -147 -45 -47 15 -55 23
-70 59 -9 22 -26 61 -36 85 -11 23 -17 52 -14 62 4 10 2 19 -3 19 -5 0 -37 19
-71 41 -65 43 -81 45 -61 9 6 -12 10 -45 8 -73 l-3 -50 47 -17 c58 -20 81 -40
125 -108 19 -29 40 -55 46 -56 7 -2 57 -11 112 -19 55 -9 111 -19 124 -23 37
-11 17 13 -25 31 -31 13 -34 17 -24 35 16 29 46 38 116 32 72 -5 128 18 168
71 32 42 33 79 6 242 -10 65 -17 121 -15 124 3 2 11 -1 19 -8 7 -6 66 -17 130
-23 64 -6 116 -15 116 -20 0 -4 -9 -16 -20 -25 -20 -17 -27 -43 -12 -43 4 0
14 6 22 12 8 7 3 -1 -13 -18 -28 -31 -36 -79 -15 -86 9 -3 6 -19 -10 -56 -42
-97 -24 -127 28 -46 46 73 129 174 142 174 6 0 4 -8 -5 -18 -17 -18 -23 -42
-11 -42 3 0 23 14 44 32 l38 32 -41 30 c-23 16 -59 45 -79 64 l-36 34 -115 3
c-138 4 -166 15 -251 104 -55 58 -58 64 -51 99 4 20 12 46 18 57 6 11 10 28 8
37 -3 22 9 22 74 3 81 -25 301 -55 401 -55 90 0 94 -1 129 -31 20 -18 100 -80
178 -138 179 -135 184 -142 168 -286 -8 -84 -17 -116 -50 -186 -33 -71 -120
-264 -138 -306 -4 -10 129 -13 646 -13 l651 0 -6 28 c-13 63 58 64 111 1 l24
-29 746 0 745 0 -16 25 c-20 31 -20 31 50 0 31 -14 71 -25 89 -24 l32 0 -32
16 c-18 9 -33 20 -33 25 0 4 -6 8 -12 8 -7 0 -39 8 -70 17 -57 18 -57 19 -68
66 -10 47 -9 50 25 90 48 56 46 68 -9 47 -23 -8 -26 -6 -37 28 -6 20 -15 41
-20 47 -17 18 -8 46 34 108 24 34 54 91 67 127 13 36 31 79 40 95 23 40 37 88
46 155 13 108 5 147 -57 272 -22 43 -39 84 -39 91 0 8 -18 42 -41 77 -22 35
-45 74 -50 87 -5 13 -29 37 -53 55 -25 17 -43 35 -40 39 2 4 29 -1 59 -12 63
-22 151 -24 271 -7 66 9 96 9 147 -1 38 -7 83 -10 111 -6 l46 7 0 334 0 334
-21 0 c-12 0 -27 -6 -33 -14 -9 -12 -205 -53 -210 -44 -1 2 -11 20 -21 41 -11
20 -23 37 -27 37 -5 0 -8 4 -8 8 0 12 64 30 127 36 28 3 60 10 70 15 10 6 30
15 44 20 14 5 36 26 47 45 20 34 21 36 2 26 -10 -5 -22 -15 -25 -20 -9 -15
-86 -50 -109 -50 -16 0 -9 10 32 46 39 34 63 67 92 128 37 77 40 88 40 169 0
100 -9 108 -57 54 -53 -60 -77 -55 -89 20 -6 39 -4 42 52 97 33 31 67 59 77
62 17 5 25 44 9 44 -5 0 -19 -11 -32 -25 -13 -14 -29 -25 -35 -25 -6 0 -25
-16 -42 -35 -32 -35 -74 -47 -89 -24 -4 6 -8 33 -10 59 -4 62 14 85 116 148
44 27 77 51 75 54 -3 3 2 21 10 41 9 23 15 66 14 114 -1 94 -5 87 -18 -31 -8
-83 -11 -90 -47 -127 -21 -21 -43 -39 -48 -39 -6 0 -35 -17 -65 -37 l-53 -37
-19 23 c-26 32 -32 63 -24 117 6 40 16 54 101 137 103 99 130 141 121 186 -3
16 -1 33 6 40 9 9 16 3 29 -26 l17 -38 0 38 c1 36 -20 91 -37 99 -4 1 -15 37
-24 78 -9 41 -26 101 -38 132 -27 73 -59 94 -158 104 -64 6 -75 10 -84 30 -14
31 -72 70 -128 85 -25 7 -96 12 -160 12 -146 -1 -288 -38 -440 -112 -216 -107
-327 -224 -338 -357 -3 -38 1 -61 17 -92 11 -22 25 -43 30 -46 16 -10 1 -79
-24 -117 -18 -24 -25 -49 -25 -80 0 -61 -18 -207 -31 -246 -9 -27 -16 -33 -39
-33 -16 0 -35 7 -42 15 -195 216 -253 275 -272 275 -7 0 -16 7 -20 15 -9 26
-76 19 -106 -10 -15 -14 -42 -28 -61 -31 -33 -6 -36 -4 -54 35 -10 23 -24 46
-31 52 -11 9 -13 41 -8 153 4 89 2 169 -5 216 -13 86 -55 228 -82 281 -26 52
-123 185 -177 244 -316 346 -438 449 -700 595 -15 8 -29 16 -32 18 -3 2 3 8
13 13 9 6 17 17 17 25 0 35 43 93 106 143 38 30 70 58 72 61 1 3 18 29 37 58
l34 52 -24 0 c-17 0 -30 -10 -42 -32 -9 -18 -16 -38 -15 -45 2 -11 -46 -52
-156 -131 -52 -37 -85 -80 -77 -100 2 -7 -3 -16 -13 -19 -9 -3 -27 -15 -38
-25 -17 -16 -74 -33 -74 -23 0 1 13 19 30 40 16 20 27 41 24 46 -2 5 20 48 51
96 49 77 62 103 52 103 -7 0 -100 -133 -137 -196 -53 -91 -107 -134 -169 -134
-83 1 -251 52 -251 76 0 8 5 14 11 14 21 0 70 42 65 56 -3 7 6 27 20 44 25 29
94 189 94 217 0 7 -6 13 -14 13 -7 0 -23 -27 -36 -62z m-130 -246 c0 -5 -18
-14 -41 -21 -23 -7 -38 -15 -35 -18 3 -3 30 -14 61 -25 30 -10 108 -41 172
-69 66 -28 119 -45 121 -40 2 7 13 6 31 -3 15 -8 56 -24 91 -36 36 -11 78 -30
93 -41 15 -11 36 -22 45 -24 9 -2 25 -7 36 -11 16 -6 17 -5 7 14 -6 12 -27 34
-46 49 -42 33 -43 39 -10 47 25 6 74 -17 171 -80 23 -16 26 -16 18 -3 -9 17
-124 123 -184 172 l-35 28 45 -22 c25 -12 73 -41 106 -65 34 -24 68 -44 76
-44 8 0 27 -13 42 -29 16 -16 34 -27 40 -25 16 6 50 -22 229 -185 80 -73 149
-143 153 -155 4 -11 29 -46 56 -76 72 -80 180 -245 211 -322 53 -133 71 -237
74 -426 2 -110 -1 -171 -7 -167 -6 3 -10 15 -10 25 0 34 -51 163 -112 282 -56
110 -152 243 -168 233 -4 -2 -33 34 -64 80 -31 47 -61 85 -67 85 -11 0 -8 -6
35 -70 105 -155 139 -216 144 -265 l5 -50 -114 109 c-63 60 -116 113 -118 119
-2 5 9 20 25 34 l29 25 -38 -22 c-27 -16 -42 -19 -49 -12 -7 7 4 20 38 41 56
35 55 37 -10 15 l-47 -16 -95 93 c-118 117 -156 138 -63 34 15 -16 45 -60 67
-97 l41 -66 -23 -15 c-12 -8 -54 -45 -92 -81 -72 -68 -87 -73 -126 -39 -10 9
-24 13 -32 10 -9 -4 -44 21 -92 63 -43 38 -80 68 -82 66 -2 -3 28 -53 67 -112
74 -113 92 -128 41 -35 -17 30 -29 56 -27 58 5 4 121 -97 126 -109 2 -5 -7
-20 -19 -34 -22 -22 -24 -22 -37 -6 -11 15 -12 14 -4 -8 7 -21 1 -36 -41 -97
-30 -43 -48 -79 -44 -88 13 -34 92 -7 111 39 l12 29 17 -49 c21 -62 20 -70 -8
-139 -18 -45 -22 -65 -15 -83 5 -14 6 -40 3 -60 -7 -33 -8 -31 -38 60 -17 52
-44 115 -60 139 -17 24 -149 164 -295 311 -147 147 -274 283 -284 303 -11 19
-32 45 -49 56 -27 19 -22 7 51 -132 44 -85 89 -188 101 -229 11 -41 28 -97 36
-125 8 -27 30 -106 49 -175 38 -140 100 -336 115 -362 8 -14 7 -18 -4 -18 -8
0 -18 5 -21 10 -3 6 -32 10 -63 10 -51 0 -59 3 -94 37 -21 20 -38 42 -38 48 0
5 26 11 60 12 95 4 123 30 80 73 -24 24 -60 29 -40 5 7 -8 18 -15 25 -15 7 0
15 -7 19 -15 4 -10 -5 -17 -32 -23 -54 -13 -184 -9 -189 5 -5 14 18 22 81 28
26 3 55 10 64 16 18 11 -19 9 -114 -6 -37 -6 -42 -4 -68 27 -130 157 -222 305
-327 526 -37 78 -70 142 -73 142 -22 0 86 -306 184 -521 28 -60 50 -111 50
-114 0 -3 16 -31 36 -62 36 -56 35 -72 -4 -73 -7 0 -47 -16 -89 -35 -42 -19
-81 -35 -87 -35 -13 0 -87 83 -139 155 -40 57 -86 152 -115 240 -30 94 -86
222 -89 205 -2 -8 48 -163 111 -345 l114 -330 -51 -47 c-61 -57 -53 -61 22
-13 54 34 75 39 52 11 -9 -11 -8 -14 6 -12 13 1 31 -24 65 -94 26 -52 50 -109
54 -126 6 -29 4 -31 -19 -27 -14 3 -34 0 -45 -6 -25 -13 -52 -70 -52 -110 0
-30 -1 -31 -23 -16 -29 19 -251 263 -294 323 -18 25 -55 89 -83 143 -47 92
-82 141 -61 87 59 -153 213 -446 297 -563 24 -35 73 -94 108 -132 68 -73 91
-125 84 -192 l-3 -32 -65 32 c-75 37 -179 139 -231 224 -28 46 -37 54 -57 50
-14 -2 -35 4 -52 17 -46 34 -53 13 -14 -47 32 -50 33 -55 14 -55 -11 0 -32 13
-47 30 -14 17 -33 30 -42 30 -18 0 -84 95 -126 179 -20 41 -24 59 -17 75 6 15
2 44 -18 106 -16 47 -38 123 -51 170 -12 47 -28 96 -34 110 -7 14 -19 39 -26
55 -8 17 -22 41 -31 55 -10 14 -26 69 -36 123 -16 84 -17 97 -4 95 8 -2 25
-33 38 -72 26 -78 44 -104 44 -65 0 13 -5 71 -12 128 -12 101 -11 104 10 121
11 10 24 29 28 44 8 33 24 34 24 1 0 -14 4 -25 9 -25 21 0 72 36 77 55 2 11 6
106 7 210 2 163 -1 209 -22 328 -17 93 -28 134 -35 127 -13 -13 -83 -13 -91 0
-19 31 165 246 315 367 126 103 179 130 224 115 29 -9 29 -10 6 -11 -31 -2
-98 -32 -125 -57 -19 -17 -32 -64 -19 -64 3 0 26 14 51 31 38 26 49 30 64 21
14 -9 25 -8 48 6 25 14 35 15 58 5 98 -40 134 -52 129 -45 -3 5 -23 17 -46 27
-22 10 -40 23 -40 29 0 5 12 21 28 34 15 13 20 20 12 16 -12 -6 -13 -5 -2 7 8
9 31 13 63 12 57 -3 64 12 17 32 l-33 14 55 25 c57 26 160 42 283 45 37 0 67
-3 67 -7z m3088 -842 c77 -13 112 -33 105 -60 -3 -12 0 -20 6 -20 15 0 43 -67
38 -88 -3 -12 -5 -10 -6 6 -1 23 -21 32 -21 10 0 -7 -10 3 -21 22 -26 43 -40
52 -103 66 -75 18 -317 -6 -385 -37 -36 -17 -48 -28 -43 -37 7 -10 15 -10 38
-1 106 41 277 66 349 49 115 -26 155 -85 120 -176 -37 -96 -199 -219 -314
-239 -23 -4 -41 -10 -41 -15 0 -4 -10 -6 -22 -3 -19 4 -20 3 -8 -6 18 -13 29
-12 -140 -17 -241 -7 -290 9 -290 101 0 25 7 60 16 78 21 41 55 78 65 71 5 -3
9 1 9 10 0 8 28 33 61 55 34 23 58 41 55 41 -16 0 -88 -43 -119 -70 -19 -16
-36 -27 -39 -24 -8 7 -73 -86 -86 -125 -9 -25 -9 -45 -1 -73 9 -34 17 -43 62
-64 54 -25 48 -31 -15 -14 -20 6 -46 22 -57 36 -11 14 -25 23 -31 19 -6 -4
-10 8 -11 32 -3 96 6 119 79 216 37 48 151 129 228 163 22 9 57 25 79 34 22
10 76 26 120 35 44 10 87 21 95 26 21 12 152 11 228 -1z m346 -133 c33 -10 41
-19 57 -62 19 -49 49 -252 49 -327 0 -56 -18 -85 -77 -124 -29 -19 -65 -51
-81 -70 -22 -28 -34 -34 -65 -34 -36 0 -39 2 -61 53 -13 28 -21 54 -17 57 3 3
7 25 9 50 3 57 49 151 101 210 41 45 49 60 32 60 -10 0 -27 74 -23 103 2 20
-9 22 -26 5 -15 -15 -36 36 -27 69 5 20 12 23 48 22 23 0 59 -6 81 -12z
m-2440 -46 c3 -5 -5 -16 -19 -25 -14 -9 -57 -46 -95 -82 -57 -54 -73 -64 -92
-58 -22 7 -22 7 12 35 19 16 37 24 40 19 9 -14 51 18 48 36 -2 8 17 30 42 49
49 37 56 40 64 26z m-757 -138 c242 -223 294 -280 345 -378 50 -97 82 -212 73
-257 -11 -48 12 -30 25 20 18 72 31 102 41 96 5 -3 9 2 9 10 0 20 16 21 24 1
3 -8 12 -12 21 -9 11 5 15 -1 16 -22 l1 -29 14 32 c21 48 29 47 55 -9 24 -52
80 -105 99 -93 6 4 8 15 5 25 -4 14 1 20 24 25 17 3 42 20 55 36 29 34 36 36
36 10 0 -24 -44 -78 -70 -86 -22 -7 -27 -25 -7 -25 15 0 69 55 86 87 6 12 14
49 18 83 6 57 5 60 -17 60 -17 0 -21 4 -15 18 16 38 15 49 -10 95 l-25 49 22
19 c36 29 52 31 98 10 40 -18 44 -24 66 -91 13 -40 24 -82 24 -94 0 -11 5 -28
10 -36 13 -19 3 174 -12 243 -7 34 -7 52 0 59 25 25 38 -3 60 -138 32 -188 46
-245 104 -416 103 -307 91 -426 -87 -868 -68 -170 -85 -197 -139 -224 -88 -44
-374 -97 -526 -98 -118 -1 -144 7 -257 84 -35 24 -93 62 -130 85 -79 49 -165
124 -246 216 l-57 65 52 -14 c67 -18 198 -30 198 -18 0 5 -31 28 -68 51 -101
62 -201 137 -202 149 0 7 -9 14 -19 17 -11 2 -30 22 -44 43 -13 22 -34 48 -46
58 -27 24 -27 37 2 64 l24 22 55 -59 c30 -33 68 -66 83 -73 25 -11 29 -10 51
15 13 15 32 27 43 27 31 0 64 15 92 44 22 22 28 24 44 12 38 -27 -24 -77 -118
-95 -29 -6 -37 -10 -26 -15 9 -4 47 3 84 16 81 27 106 55 113 127 4 44 2 51
-12 45 -20 -7 -33 21 -18 39 8 9 5 25 -8 55 -18 39 -18 42 -2 43 21 2 59 7 92
12 14 3 39 5 55 6 l30 2 -30 14 c-24 11 -26 14 -10 15 20 1 20 1 0 18 -11 9
-19 25 -17 34 2 9 -3 27 -11 40 -21 33 -143 412 -156 484 -11 60 -59 209 -100
312 -11 29 -21 57 -21 62 0 27 41 -1 157 -107z m867 28 l78 -78 -33 -26 c-19
-14 -34 -25 -35 -24 -9 9 -99 207 -94 207 3 0 41 -35 84 -79z m-2362 38 c-1
-13 -8 -42 -14 -64 l-11 -40 -10 29 c-6 20 -6 41 2 68 13 42 38 47 33 7z
m2291 -38 c20 -33 37 -62 37 -66 0 -4 7 -22 16 -41 9 -19 15 -36 13 -38 -11
-9 -69 -15 -64 -6 11 17 -15 11 -37 -9 -17 -16 -24 -18 -47 -8 -14 6 -28 12
-30 14 -3 2 6 14 19 28 28 30 18 33 -17 5 -23 -18 -27 -18 -55 -4 -52 27 -48
42 33 116 41 37 79 68 84 67 6 0 27 -26 48 -58z m-199 -142 c20 -12 36 -23 36
-26 0 -8 -43 -66 -72 -98 -15 -16 -28 -33 -28 -37 0 -23 -22 -2 -40 38 -26 61
-26 66 14 108 39 42 43 43 90 15z m348 -1 c-9 -9 -15 -9 -24 0 -9 9 -7 12 12
12 19 0 21 -3 12 -12z m-495 -33 c3 -9 -1 -23 -9 -33 -8 -9 -18 -25 -21 -35
-7 -20 -70 -51 -75 -37 -4 11 79 119 91 119 4 1 10 -6 14 -14z m-784 -290 l74
-100 -30 -13 c-29 -12 -33 -11 -49 10 -32 42 -188 359 -188 381 0 14 22 -15
59 -78 32 -55 92 -145 134 -200z m1030 241 c-10 -13 -47 -57 -83 -98 -36 -42
-70 -90 -75 -109 -12 -40 -35 -51 -35 -16 0 54 66 180 133 254 18 21 22 21 49
7 29 -15 29 -15 11 -38z m-2173 -13 c0 -21 -5 -45 -10 -53 -7 -11 -10 0 -10
38 0 28 5 52 10 52 6 0 10 -17 10 -37z m2680 -74 c27 -52 49 -126 64 -209 l6
-35 -20 30 c-47 67 -77 142 -83 201 -4 33 -9 69 -13 80 -10 30 12 -1 46 -67z
m1336 -4 c3 -8 -1 -22 -10 -30 -9 -9 -16 -23 -16 -31 0 -12 -47 -32 -54 -23
-9 12 17 88 32 92 32 9 43 7 48 -8z m404 -33 c0 -5 -33 -31 -72 -58 -91 -61
-173 -127 -249 -198 -55 -52 -58 -56 -48 -85 10 -29 12 -30 60 -24 57 7 83
-10 98 -61 7 -22 9 -25 10 -10 2 36 -29 124 -51 146 -21 21 -21 21 -2 35 82
62 158 74 188 31 14 -20 14 -20 35 1 12 12 31 21 44 21 13 0 29 6 35 12 10 10
15 10 22 -2 16 -25 11 -54 -10 -73 -17 -14 -19 -25 -14 -51 5 -30 3 -35 -18
-41 -25 -9 -32 -6 -34 12 -5 31 -27 83 -35 83 -5 0 -9 -18 -9 -40 0 -23 -7
-54 -14 -69 -19 -36 -79 -89 -111 -97 -14 -3 -34 -21 -45 -39 -25 -41 -25 -49
-1 -35 29 15 59 12 70 -7 7 -14 4 -24 -16 -45 -29 -30 -24 -50 7 -30 29 18 32
15 14 -13 -12 -19 -25 -25 -53 -25 -55 0 -75 19 -68 64 5 34 4 36 -17 30 -23
-5 -23 -5 -13 35 8 29 8 47 -1 65 -19 41 -33 31 -30 -20 4 -64 -14 -67 -52 -7
-23 35 -29 55 -25 75 8 36 -2 68 -22 68 -11 0 -14 7 -10 28 3 17 -7 58 -29
115 -34 88 -36 107 -8 107 8 0 41 11 74 24 47 19 60 22 60 10 0 -8 -4 -14 -9
-14 -5 0 -12 -16 -15 -35 -5 -27 -12 -35 -28 -35 -19 0 -20 -4 -15 -51 4 -29
8 -54 11 -56 2 -3 60 39 129 91 69 53 156 114 193 135 79 46 74 44 74 33z m4
-41 c-16 -14 -104 -62 -104 -57 0 9 104 76 109 71 2 -3 0 -9 -5 -14z m-629
-46 c0 -13 -8 -21 -22 -23 -17 -3 -23 2 -23 16 0 10 3 22 7 26 13 13 38 1 38
-19z m-238 -62 c86 -148 109 -243 61 -257 l-23 -7 25 -17 c13 -9 36 -28 51
-42 15 -14 39 -33 52 -42 30 -21 87 -131 87 -167 0 -36 -36 -91 -59 -91 -18 0
-144 78 -273 169 -57 40 -58 42 -58 88 1 27 7 66 15 88 8 22 15 49 15 60 0 12
5 26 11 32 6 6 13 59 15 119 4 97 13 134 34 134 4 0 25 -30 47 -67z m259 -19
c17 -41 17 -44 0 -44 -8 0 -24 16 -37 36 -18 29 -19 38 -8 44 18 12 29 3 45
-36z m-1832 21 c-4 -8 -8 -15 -10 -15 -2 0 -4 7 -4 15 0 8 4 15 10 15 5 0 7
-7 4 -15z m849 -62 c12 -23 35 -66 51 -95 15 -29 51 -90 78 -135 80 -135 133
-387 109 -524 -8 -43 -17 -67 -23 -63 -26 16 1 -88 40 -153 59 -100 113 -156
216 -224 102 -68 89 -69 -68 -7 -153 60 -226 102 -226 130 0 5 -5 14 -10 21
-24 28 -88 136 -114 192 -16 33 -43 92 -61 130 -27 58 -36 94 -49 209 -10 76
-21 146 -25 155 -5 9 -19 51 -30 94 -18 64 -21 89 -14 144 l8 67 64 -87 c36
-47 67 -85 69 -82 2 2 -14 34 -38 70 -38 61 -41 71 -36 113 15 116 19 118 59
45z m152 47 c3 -5 12 -10 20 -10 26 0 134 -72 178 -119 24 -26 60 -80 80 -121
47 -99 57 -141 14 -64 -63 115 -201 250 -299 295 -15 6 -25 16 -22 20 7 12 21
11 29 -1z m-735 -39 c0 -5 -7 -14 -15 -21 -12 -10 -15 -10 -15 2 0 8 3 18 7
21 9 10 23 9 23 -2z m40 -1 c0 -16 -43 -50 -64 -50 -17 0 -15 4 12 20 17 11
32 24 32 30 0 5 5 10 10 10 6 0 10 -4 10 -10z m-1466 -85 c31 -38 56 -73 56
-77 0 -9 -49 -42 -54 -37 -9 9 -66 161 -66 176 0 9 2 14 4 12 2 -2 29 -35 60
-74z m336 6 c0 -14 -22 -27 -65 -41 -22 -7 -60 -23 -83 -37 -32 -18 -47 -22
-55 -14 -14 14 -16 13 88 60 93 41 115 47 115 32z m194 -114 c-9 -5 -31 -11
-50 -12 -31 -3 -38 2 -74 48 -21 28 -37 53 -35 56 3 2 22 7 42 11 36 6 41 3
86 -44 41 -43 46 -51 31 -59z m-137 26 c23 -26 43 -51 43 -55 0 -3 -10 -9 -22
-13 -13 -3 -49 -18 -82 -32 -57 -25 -59 -25 -97 -7 -36 16 -81 76 -67 89 10
11 144 63 162 64 11 1 38 -20 63 -46z m3338 11 c9 -10 14 -25 12 -36 -3 -10
-1 -16 4 -12 5 3 9 -4 9 -16 0 -23 -36 -41 -66 -34 -12 3 -26 -5 -38 -22 -16
-23 -17 -32 -8 -57 8 -22 9 -34 1 -44 -18 -21 -25 -16 -38 27 -12 42 -31 62
-31 34 0 -10 -10 -28 -22 -41 -21 -22 -21 -23 -3 -44 16 -17 17 -22 5 -29 -26
-17 -34 -11 -65 46 -16 31 -38 60 -47 65 -10 5 -18 14 -18 19 0 11 76 50 97
50 7 0 13 6 13 13 0 18 77 53 107 49 14 -2 23 2 23 10 0 17 20 38 36 38 7 0
20 -7 29 -16z m-620 -35 c4 -6 -9 -37 -29 -69 -20 -32 -36 -68 -36 -79 0 -19
-3 -20 -20 -11 -36 19 -27 73 21 125 43 47 53 52 64 34z m-2366 -15 c2 -2 2
-7 -2 -10 -8 -9 -47 6 -47 17 0 9 37 3 49 -7z m-85 -10 c50 -17 53 -25 11 -29
-14 -2 -47 -9 -74 -16 -58 -15 -104 -6 -99 19 2 9 14 18 28 20 14 2 29 8 35
13 13 13 45 11 99 -7z m-502 -39 c34 -26 69 -50 77 -55 14 -8 14 -11 1 -19
-22 -15 -5 -24 20 -11 12 6 34 9 48 5 26 -6 26 -7 7 -21 -11 -8 -29 -21 -40
-29 -86 -65 -118 -86 -125 -78 -5 4 -31 53 -59 108 l-52 100 28 22 c15 13 29
23 30 23 2 0 31 -20 65 -45z m328 -15 c0 -17 -101 -58 -133 -54 -58 7 -48 20
47 61 50 20 86 18 86 -7z m3306 -15 c19 -49 -186 -235 -258 -235 -7 0 5 9 28
20 45 23 114 87 79 74 -12 -5 0 14 31 47 28 30 58 66 68 82 20 30 43 35 52 12z
m-516 -69 c0 -3 -4 -8 -10 -11 -5 -3 -10 -1 -10 4 0 6 5 11 10 11 6 0 10 -2
10 -4z m47 -118 c16 -18 4 -32 -20 -22 -18 7 -37 56 -37 93 1 24 3 22 22 -14
11 -22 27 -47 35 -57z m-3939 -111 c16 -23 53 -81 82 -128 29 -47 74 -109 101
-138 26 -28 49 -56 51 -61 9 -26 142 -170 216 -233 95 -81 132 -140 143 -227
4 -30 12 -84 19 -120 10 -60 10 -87 -6 -192 -13 -84 -44 -13 -44 98 0 61 -4
78 -20 94 -22 22 -27 35 -8 24 24 -15 -33 55 -108 132 -56 58 -92 108 -135
188 -107 195 -248 376 -304 390 -14 4 -25 11 -25 16 0 6 -6 10 -14 10 -7 0
-27 26 -44 58 -54 102 -54 102 -16 158 18 27 33 56 34 64 0 8 11 -9 25 -38 14
-29 38 -72 53 -95z m4212 128 c-27 -32 -248 -114 -264 -97 -13 12 -5 22 19 22
46 0 149 31 200 60 60 34 61 34 45 15z m254 -43 c-4 -9 -8 -22 -8 -28 -1 -15
-56 -77 -62 -71 -8 7 16 50 32 60 8 4 14 15 14 23 0 19 24 57 28 44 2 -6 1
-18 -4 -28z m-639 -26 c17 -14 14 -14 -17 1 -21 9 -38 21 -38 25 0 10 25 -2
55 -26z m-3073 -23 c4 -2 29 -41 57 -86 62 -102 102 -220 109 -314 2 -40 9
-70 13 -67 15 9 18 -11 34 -241 9 -121 19 -248 22 -283 4 -43 1 -72 -7 -88
-11 -19 -11 -40 -1 -106 6 -46 12 -105 13 -133 0 -27 7 -62 15 -77 7 -16 11
-28 7 -28 -4 0 -1 -7 7 -16 46 -56 -152 -42 -497 33 -16 4 -22 -2 -30 -33 -11
-46 -52 -65 -81 -39 -10 9 -44 33 -76 52 -55 34 -57 36 -41 54 11 13 14 27 10
46 -25 99 -262 583 -354 722 -31 47 -66 113 -78 146 -12 33 -25 68 -29 78 -10
25 2 106 20 134 32 48 110 18 218 -86 82 -78 186 -239 171 -263 -4 -6 -2 -8 4
-4 6 4 10 -1 10 -11 -1 -10 38 -88 86 -173 92 -164 244 -493 253 -548 5 -27 9
-32 27 -26 11 3 33 18 47 33 l27 26 -9 355 c-11 420 -11 411 -43 583 -16 83
-26 169 -26 226 0 89 1 94 30 122 23 24 34 28 57 23 15 -4 31 -9 35 -11z
m2269 -168 c24 -38 51 -86 61 -106 9 -20 33 -60 54 -87 41 -56 77 -74 185 -92
78 -14 102 -33 228 -180 66 -77 85 -107 101 -159 21 -66 26 -111 12 -111 -9 0
-40 61 -62 120 -16 43 -110 142 -166 175 -53 31 -160 48 -246 40 -107 -11
-171 10 -218 69 -11 14 0 11 49 -13 57 -29 68 -32 119 -25 l57 8 -55 8 c-30 4
-84 23 -120 41 -55 29 -70 42 -95 88 -27 48 -30 60 -24 104 4 28 8 82 8 120
l1 70 40 -45 c58 -66 48 -37 -20 60 -33 47 -60 88 -60 92 0 16 110 -113 151
-177z m-1801 142 c0 -7 -13 -20 -29 -30 -32 -19 -81 -23 -81 -7 0 6 11 10 25
10 14 0 33 9 43 19 20 22 42 27 42 8z m2831 -125 c23 -59 46 -112 51 -119 5
-7 5 -14 -2 -18 -6 -4 -12 -5 -14 -4 -1 2 -14 23 -30 46 -29 43 -76 178 -76
216 1 21 1 21 15 4 7 -11 33 -67 56 -125z m-2886 118 c-3 -5 -13 -10 -21 -10
-8 0 -12 5 -9 10 3 6 13 10 21 10 8 0 12 -4 9 -10z m3211 -37 c-10 -10 -19 5
-10 18 6 11 8 11 12 0 2 -7 1 -15 -2 -18z m-26 -18 c0 -16 -34 -38 -44 -28 -3
3 -17 -6 -30 -20 -28 -30 -51 -35 -59 -13 -4 9 6 23 26 35 18 11 28 21 24 21
-5 0 -6 4 -3 8 3 5 23 9 46 10 29 1 40 -2 40 -13z m-3346 -175 c59 -44 125
-89 147 -101 23 -11 39 -23 36 -25 -8 -9 -99 19 -104 31 -2 7 -36 21 -74 31
-41 11 -69 23 -69 31 0 7 -11 36 -24 63 -13 28 -23 50 -21 50 2 0 51 -36 109
-80z m43 -229 c75 -76 187 -156 309 -221 56 -29 172 -105 258 -167 128 -93
227 -203 247 -277 7 -26 10 -91 6 -181 -8 -196 7 -255 81 -337 l37 -41 -30 16
c-62 32 -131 133 -141 205 -10 78 -65 162 -161 246 -90 79 -176 128 -268 152
-91 23 -254 106 -328 167 l-44 36 -7 101 c-4 55 -13 118 -21 140 -8 21 -14 47
-13 57 0 10 -4 55 -8 101 -4 45 -4 82 -1 82 4 0 41 -35 84 -79z m-647 34 c24
-25 43 -35 65 -35 25 0 43 -14 113 -89 77 -84 82 -92 82 -133 l-1 -43 -67 71
c-37 39 -92 89 -122 112 -30 22 -80 66 -110 96 l-54 56 30 0 c21 0 40 -10 64
-35z m1991 -152 c13 -21 42 -85 65 -143 39 -99 41 -106 27 -135 -13 -27 -12
-36 4 -85 10 -30 23 -53 28 -50 6 3 9 12 8 20 0 8 -4 40 -8 70 l-6 55 38 -70
c21 -38 53 -86 71 -105 39 -41 62 -84 67 -122 6 -40 -18 -37 -125 15 -83 41
-88 45 -72 60 13 14 14 17 2 17 -8 0 -24 -8 -35 -16 -19 -15 -19 -16 -1 -29
17 -13 15 -14 -20 -23 -22 -6 -64 -15 -94 -21 -30 -7 -81 -19 -113 -28 -56
-16 -58 -16 -80 5 -29 27 -41 28 -27 3 5 -11 10 -23 10 -27 0 -9 -103 3 -167
20 -29 8 -53 10 -53 5 0 -17 37 -27 131 -34 88 -6 108 -4 220 24 180 44 199
46 199 28 0 -12 8 -15 33 -10 33 5 106 -26 177 -74 l25 -17 -24 27 -24 27 44
0 c29 -1 52 -7 68 -21 l24 -20 -21 -19 c-12 -11 -26 -20 -31 -20 -5 0 -12 -9
-16 -19 -5 -18 -13 -19 -118 -14 -62 3 -115 8 -119 12 -3 3 -4 18 -1 33 4 21
12 28 37 30 l31 4 -29 12 c-16 7 -37 10 -48 6 -18 -5 -19 -15 -16 -154 3 -142
2 -149 -17 -154 -69 -19 -210 17 -310 79 -38 24 -107 81 -151 127 -77 78 -82
86 -88 137 -10 75 -45 139 -124 222 l-67 71 80 -47 c44 -26 103 -60 130 -74
28 -15 64 -35 80 -46 26 -17 28 -17 16 -2 -14 17 -217 157 -229 157 -4 0 -18
9 -32 20 l-25 20 30 0 c77 0 325 51 399 80 121 49 140 65 183 152 21 43 39 78
40 78 1 0 12 -17 24 -37z m277 -62 c89 -52 139 -91 210 -161 l92 -92 -159 3
c-88 2 -162 1 -166 -2 -7 -8 62 -156 94 -199 14 -19 40 -49 58 -66 18 -18 33
-37 33 -43 0 -18 -35 -13 -63 9 -14 11 -30 20 -35 20 -5 0 -13 11 -16 24 -3
13 -24 55 -46 94 -22 38 -47 92 -55 119 -8 27 -28 68 -44 90 -16 22 -37 55
-46 74 -10 19 -26 44 -37 56 -11 12 -18 26 -15 30 3 5 0 27 -8 49 -26 71 -22
78 36 71 38 -5 78 -23 167 -76z m682 49 c35 0 58 -7 94 -31 26 -17 45 -34 42
-36 -3 -3 -35 0 -73 6 -37 6 -84 12 -103 13 -44 2 -98 36 -78 50 7 5 26 6 42
3 16 -3 50 -5 76 -5z m-2836 -338 l15 -63 -26 27 c-13 15 -44 67 -68 117 l-43
89 54 -53 c46 -46 55 -63 68 -117z m3403 -16 c127 -132 171 -190 208 -275 32
-75 57 -161 45 -161 -4 0 -21 30 -36 67 -34 79 -116 214 -176 287 -23 28 -87
98 -143 155 -84 88 -92 99 -51 70 27 -19 96 -83 153 -143z m-918 5 c40 -12
103 -77 136 -141 13 -25 32 -54 42 -65 78 -83 135 -202 148 -309 3 -22 8 -49
11 -58 7 -22 5 -22 -42 0 -113 51 -234 136 -234 163 0 10 -73 122 -94 145 -6
7 -20 24 -31 40 -11 16 -57 74 -102 131 l-83 102 43 3 c72 5 171 0 206 -11z
m-1741 -202 c40 -15 181 -39 235 -39 26 0 63 -6 82 -14 39 -17 125 -93 125
-111 0 -6 9 -20 21 -31 12 -10 27 -31 35 -46 l14 -27 -55 25 c-30 14 -81 41
-112 60 -66 39 -204 95 -248 99 -48 5 -124 32 -204 73 -81 41 -99 67 -100 145
l-1 38 90 -81 c50 -44 103 -85 118 -91z m2322 56 c0 -28 -12 -32 -30 -10 -14
16 -6 35 16 35 8 0 14 -10 14 -25z m-630 -161 c17 -20 28 -39 25 -42 -3 -4
-17 8 -31 26 -14 18 -33 32 -42 32 -9 0 -24 5 -32 10 -11 7 -8 10 16 10 24 0
40 -9 64 -36z m-954 -126 c28 -29 73 -82 99 -118 27 -36 75 -94 107 -129 32
-36 68 -85 78 -109 24 -53 26 -80 3 -37 -8 17 -34 47 -56 68 -22 21 -37 40
-34 43 3 4 -20 20 -51 36 -54 29 -78 48 -193 154 -45 41 -47 45 -53 114 l-7
72 28 -20 c15 -11 51 -44 79 -74z m-430 37 c34 -19 86 -51 116 -70 29 -20 63
-38 76 -42 22 -5 42 -38 42 -67 0 -20 -104 -1 -175 33 -57 26 -207 133 -235
166 -11 13 -5 15 50 15 53 0 73 -5 126 -35z m-1306 -39 c23 -15 57 -36 78 -47
71 -40 104 -72 127 -123 13 -28 44 -71 69 -96 37 -35 46 -51 46 -78 0 -18 4
-41 9 -50 5 -9 14 -66 20 -125 10 -101 9 -111 -9 -147 -23 -46 -41 -57 -110
-70 -55 -10 -80 -5 -80 16 0 19 -78 260 -97 300 -8 17 -42 51 -76 77 -152 113
-203 147 -224 147 -21 0 -23 5 -23 50 0 41 5 55 33 86 17 21 50 51 72 67 33
24 47 28 83 24 23 -2 60 -17 82 -31z m2370 -46 c92 -11 117 -19 254 -86 28
-13 62 -24 77 -24 21 0 35 -10 55 -37 16 -21 39 -50 53 -65 13 -15 22 -30 19
-33 -3 -3 -25 -1 -49 5 -98 23 -330 72 -431 92 -93 18 -106 23 -98 37 5 10 4
21 -4 31 -15 16 -28 85 -19 94 3 3 15 4 27 1 12 -2 64 -9 116 -15z m-657 -115
c51 -49 63 -69 21 -36 -15 12 -35 21 -45 21 -24 0 -49 27 -43 45 9 22 16 19
67 -30z m713 -370 c43 -81 60 -123 53 -130 -14 -14 -44 27 -59 79 -6 23 -27
66 -46 98 -35 58 -42 82 -22 76 6 -2 40 -58 74 -123z m-701 25 c4 -6 -8 -10
-30 -10 -22 0 -34 4 -30 10 3 6 17 10 30 10 13 0 27 -4 30 -10z m2104 -260 c6
-27 8 -56 5 -65 -4 -8 -1 -22 6 -30 6 -8 9 -18 6 -23 -3 -5 -1 -24 4 -41 10
-36 14 -36 -67 -3 -35 14 -44 24 -64 71 l-23 55 29 20 c15 12 39 31 53 44 14
12 28 22 33 22 4 0 12 -22 18 -50z m-434 4 c20 -8 45 -56 45 -87 0 -13 -7 -32
-15 -43 -14 -19 -14 -19 -15 2 0 32 -56 41 -85 14 -50 -47 -48 45 3 103 16 18
39 22 67 11z m-17 -166 c-15 -9 -48 -11 -48 -2 0 3 10 17 22 30 l23 23 8 -21
c5 -14 3 -24 -5 -30z"/>
<path d="M555 4429 c-67 -54 -135 -121 -135 -133 0 -5 28 18 63 50 34 33 80
74 102 92 22 18 35 32 30 32 -6 -1 -32 -19 -60 -41z"/>
<path d="M4255 3689 c-22 -12 -69 -44 -104 -71 -36 -27 -76 -51 -90 -54 -14
-3 -46 -14 -70 -25 -24 -11 -46 -17 -49 -14 -3 3 1 5 8 5 7 0 11 2 8 5 -9 10
-38 -7 -31 -18 4 -6 1 -7 -6 -3 -11 7 -91 -37 -91 -50 0 -3 13 4 29 15 40 29
49 26 13 -4 -34 -29 -48 -70 -31 -91 23 -28 187 -7 245 32 45 31 77 33 43 3
l-24 -20 25 7 c50 13 69 23 78 40 5 10 23 19 38 20 36 3 164 61 164 74 0 13
-1 13 -57 -10 l-48 -21 47 46 c63 62 68 80 32 116 -39 39 -79 44 -129 18z
m128 -30 c9 -12 17 -24 17 -28 0 -14 -56 -59 -125 -101 -61 -37 -78 -43 -130
-44 l-60 -1 2 33 c0 19 9 39 20 47 33 26 154 110 175 121 26 15 77 1 101 -27z"/>
<path d="M4268 3669 c-32 -18 -20 -31 21 -24 29 5 40 3 44 -9 9 -22 -19 -42
-38 -26 -8 6 -20 10 -27 7 -7 -2 3 -12 24 -22 31 -15 40 -16 53 -5 45 37 -25
109 -77 79z"/>
<path d="M4185 3596 c-36 -16 -59 -41 -50 -55 4 -7 14 -3 27 9 23 21 53 26 63
11 3 -5 1 -12 -4 -15 -5 -4 -12 -2 -16 4 -10 16 -21 11 -21 -10 0 -11 7 -20
14 -20 22 0 72 33 72 47 0 16 -31 32 -49 25 -8 -3 -11 0 -7 7 9 13 8 13 -29
-3z m75 -28 c0 -6 -6 -5 -15 2 -8 7 -15 14 -15 16 0 2 7 1 15 -2 8 -4 15 -11
15 -16z"/>
<path d="M4401 3687 c40 -18 59 -37 59 -61 0 -16 2 -18 9 -7 21 32 -25 82 -74
80 -17 -1 -16 -2 6 -12z"/>
<path d="M3810 3389 c0 -21 21 -39 45 -39 20 1 20 1 0 12 -11 6 -26 18 -32 26
-11 14 -13 14 -13 1z"/>
<path d="M4045 3380 c-19 -8 -19 -9 2 -9 12 -1 25 4 28 9 7 12 -2 12 -30 0z"/>
<path d="M4118 3313 c7 -3 16 -2 19 1 4 3 -2 6 -13 5 -11 0 -14 -3 -6 -6z"/>
<path d="M4755 3670 c3 -5 8 -10 11 -10 2 0 4 5 4 10 0 6 -5 10 -11 10 -5 0
-7 -4 -4 -10z"/>
<path d="M2465 2875 c-22 -14 -36 -25 -31 -25 10 0 76 40 76 46 0 6 -2 5 -45
-21z"/>
<path d="M2343 2569 c22 -11 41 -18 44 -15 5 5 -62 36 -76 36 -3 -1 11 -10 32
-21z"/>
<path d="M1645 2298 c-27 -18 -28 -19 -5 -13 36 10 54 21 44 27 -5 3 -22 -3
-39 -14z"/>
<path d="M1555 2260 c-13 -6 -15 -9 -5 -9 8 0 22 4 30 9 18 12 2 12 -25 0z"/>
<path d="M2483 2200 c-39 -52 -100 -95 -167 -121 -30 -11 -59 -26 -65 -33 -7
-8 -24 -17 -39 -21 -32 -8 -62 -33 -62 -51 0 -23 61 -84 84 -84 29 0 113 29
151 52 34 20 30 23 -12 7 -58 -23 -134 -27 -165 -10 -39 22 -35 33 10 24 20
-4 61 -7 91 -5 43 2 62 9 93 33 21 17 42 29 45 26 3 -4 20 3 37 14 21 14 15 6
-17 -25 -52 -48 -53 -55 -9 -32 98 51 156 194 100 246 -30 28 -39 26 -75 -20z
m64 -52 c-3 -8 -6 -5 -6 6 -1 11 2 17 5 13 3 -3 4 -12 1 -19z m-54 -73 c-3 -9
-22 -24 -42 -35 -20 -10 -51 -30 -70 -44 -19 -14 -46 -26 -60 -26 l-26 0 30
30 c17 16 54 38 83 48 29 11 58 24 65 31 16 16 27 14 20 -4z"/>
<path d="M4382 2938 c-17 -17 -15 -33 9 -79 22 -45 39 -42 57 10 18 52 -31
104 -66 69z"/>
<path d="M3044 2675 c36 -94 47 -137 61 -255 10 -74 23 -147 31 -162 8 -15 14
-35 14 -45 1 -16 2 -16 12 2 14 24 13 145 -3 229 -12 63 -81 217 -108 239 -12
10 -14 9 -7 -8z"/>
<path d="M4580 2760 c0 -5 5 -10 10 -10 6 0 10 5 10 10 0 6 -4 10 -10 10 -5 0
-10 -4 -10 -10z"/>
<path d="M4472 2699 c2 -6 8 -10 13 -10 5 0 11 4 13 10 2 6 -4 11 -13 11 -9 0
-15 -5 -13 -11z"/>
<path d="M1455 1710 c17 -28 143 -104 223 -134 50 -19 106 -42 123 -52 38 -19
222 -155 228 -167 2 -5 18 -22 36 -39 19 -16 49 -61 67 -99 18 -38 36 -69 40
-69 9 0 0 121 -13 170 -22 88 -103 143 -368 250 -91 37 -203 86 -248 109 -87
43 -98 47 -88 31z m500 -224 c85 -41 182 -135 185 -179 0 -5 -28 17 -62 48
-35 32 -94 79 -132 106 -75 53 -71 63 9 25z"/>
<path d="M1975 4989 c-12 -19 5 -23 22 -6 16 16 16 17 1 17 -9 0 -20 -5 -23
-11z"/>
<path d="M2649 4969 c62 -30 151 -106 151 -129 0 -6 17 -18 38 -27 50 -20 102
-64 265 -221 140 -134 183 -165 199 -140 6 10 11 9 19 -4 8 -15 25 -18 98 -18
l89 0 16 -40 c9 -22 16 -49 16 -60 0 -20 27 -40 56 -40 10 0 25 -6 33 -14 9
-7 83 -37 165 -66 89 -32 162 -65 180 -80 38 -33 162 -83 187 -77 11 3 17 2
14 -2 -2 -4 8 -8 23 -8 15 0 108 -25 207 -57 99 -31 212 -63 250 -71 39 -8 99
-24 135 -35 l65 -21 72 23 c62 20 73 26 73 46 0 27 0 27 -51 0 l-41 -21 -66
21 c-37 12 -126 33 -197 47 -72 14 -171 36 -220 49 -50 14 -126 34 -169 46
-44 12 -175 67 -295 124 -119 57 -241 112 -271 121 -82 26 -82 26 -124 98
l-38 67 -107 0 c-105 0 -169 10 -181 30 -3 5 -87 92 -187 192 -169 172 -187
187 -286 241 -77 42 -115 57 -144 57 l-38 0 64 -31z"/>
<path d="M3980 4992 c0 -16 62 -82 77 -82 9 0 44 -11 77 -24 70 -28 136 -42
448 -91 125 -20 270 -46 322 -59 89 -22 96 -22 96 -6 0 31 -195 86 -390 110
-47 6 -116 17 -155 24 -38 8 -106 19 -150 26 -132 19 -181 36 -212 75 -24 30
-34 35 -70 35 -24 0 -43 -3 -43 -8z"/>
<path d="M4910 980 c-47 -47 -94 -102 -105 -122 l-19 -37 23 -73 c29 -92 147
-385 167 -416 15 -22 15 -23 -5 -12 -12 6 -21 14 -21 19 0 21 -215 86 -226 69
-7 -12 -12 -9 71 -42 39 -15 96 -40 129 -54 l58 -27 -138 3 c-77 2 -155 -1
-174 -6 -28 -8 -5 -10 110 -11 80 -1 162 -4 183 -7 l37 -7 0 48 c0 35 -9 62
-34 108 -38 67 -136 332 -136 365 0 56 41 131 106 192 41 38 64 67 62 78 -2
12 -26 -5 -88 -68z"/>
<path d="M4540 338 c-19 -13 -36 -29 -38 -37 -3 -8 16 1 42 19 25 18 46 35 46
37 0 9 -20 1 -50 -19z"/>
<path d="M4715 154 c-66 -27 -113 -59 -103 -69 4 -4 20 2 36 13 27 20 95 47
172 70 l35 10 -40 0 c-22 1 -67 -10 -100 -24z"/>
</g>
</svg>
