<?xml version="1.0" standalone="no"?>
<!DOCTYPE svg PUBLIC "-//W3C//DTD SVG 20010904//EN"
 "http://www.w3.org/TR/2001/REC-SVG-20010904/DTD/svg10.dtd">
<svg version="1.0" xmlns="http://www.w3.org/2000/svg"
 width="795.000000pt" height="795.000000pt" viewBox="0 0 795.000000 795.000000"
 preserveAspectRatio="xMidYMid meet">
<metadata>
Created by potrace 1.14, written by Peter Selinger 2001-2017
</metadata>
<g transform="translate(0.000000,795.000000) scale(0.100000,-0.100000)"
fill="#000000" stroke="none">
<path d="M0 7495 l0 -455 23 -1 22 0 -23 -11 -22 -11 0 -441 c1 -401 3 -447
20 -511 10 -38 19 -65 20 -60 1 6 3 24 4 40 2 17 8 51 13 77 7 30 7 66 1 100
-5 29 -11 64 -13 78 -2 14 -4 27 -5 30 -1 3 -2 38 -1 79 1 51 -3 77 -11 83 -7
4 -8 8 -3 8 6 0 10 32 10 75 0 41 2 75 5 75 3 0 7 46 8 103 2 56 7 104 10 107
4 3 7 14 7 25 0 16 7 20 30 20 19 -1 30 -6 30 -15 0 -8 -6 -14 -13 -12 -8 1
-11 -2 -7 -8 8 -14 45 16 42 33 -1 7 8 13 21 15 12 2 22 -1 22 -5 0 -5 9 -19
21 -32 12 -12 22 -28 24 -34 9 -38 18 -57 26 -57 5 0 8 -3 7 -7 -1 -5 4 -20
12 -35 13 -27 14 -27 94 -23 44 3 89 8 100 11 10 4 46 8 80 10 34 2 72 6 86 8
14 3 50 10 80 15 30 6 66 12 80 15 14 2 70 12 125 21 55 9 111 18 125 21 14 3
61 11 104 19 43 8 81 16 83 19 2 2 15 32 28 67 12 35 33 90 46 122 22 57 22
60 5 91 -9 18 -35 52 -57 76 -22 24 -55 74 -74 112 -19 37 -84 131 -145 208
-61 77 -108 145 -104 151 4 6 19 8 36 5 39 -8 84 17 182 98 81 68 96 76 96 51
0 -8 5 -15 11 -15 5 0 8 -4 5 -9 -3 -5 14 -26 39 -46 24 -21 42 -42 39 -46 -3
-5 -1 -9 4 -9 5 0 12 -8 16 -17 9 -26 54 -104 71 -123 8 -9 15 -20 15 -25 0
-4 11 -22 24 -39 13 -17 36 -55 51 -85 l28 -53 -39 -35 -39 -34 46 5 c36 4 46
2 46 -9 0 -15 -6 -16 -80 -19 -32 -1 -43 -8 -72 -45 -19 -24 -35 -44 -35 -45
0 -1 15 -2 33 -2 37 -2 57 -6 75 -17 6 -5 12 -4 12 1 0 6 7 13 16 16 15 6 15
4 3 -11 -12 -14 -12 -16 1 -11 12 4 16 -2 15 -28 0 -19 -4 -34 -10 -34 -5 0
-3 -5 5 -10 11 -7 11 -10 2 -10 -8 0 -10 -5 -5 -12 9 -15 13 -129 4 -124 -3 2
-7 -7 -8 -21 -1 -20 1 -23 9 -12 8 11 9 10 4 -4 -3 -10 -6 -25 -6 -33 0 -9 -4
-12 -10 -9 -5 3 -10 1 -10 -5 0 -7 8 -9 19 -5 17 5 19 2 15 -21 -3 -15 -7 -31
-10 -35 -2 -4 -1 -10 4 -13 4 -2 7 -28 7 -58 -1 -29 2 -58 6 -64 12 -16 17
-94 9 -146 -3 -26 -3 -54 2 -62 5 -9 5 -23 -1 -34 -6 -12 -7 -22 -1 -28 6 -6
12 -37 14 -71 2 -34 7 -67 11 -74 6 -9 3 -10 -10 -5 -14 5 -16 4 -6 -8 15 -18
20 -56 27 -181 3 -55 6 -111 8 -125 5 -37 -9 -47 -67 -49 -28 -1 -63 -3 -77
-5 -95 -15 -189 -25 -280 -31 -58 -3 -134 -10 -170 -15 -36 -5 -87 -12 -115
-15 -53 -6 -97 -12 -130 -19 -49 -9 -116 -16 -199 -21 -48 -3 -92 -8 -97 -11
-5 -2 -32 -6 -61 -8 -64 -5 -114 -13 -193 -33 -33 -9 -89 -16 -125 -17 -70 -2
-90 -9 -90 -31 0 -18 73 -30 99 -16 11 6 42 13 68 16 26 2 71 7 98 9 28 3 88
8 135 11 47 3 101 7 120 9 19 3 69 7 110 11 41 3 82 8 90 10 26 7 249 39 355
50 17 2 77 10 135 18 106 16 156 21 285 32 145 11 270 28 283 38 24 18 11 25
-45 23 -60 -3 -103 9 -104 28 -1 26 -10 515 -14 776 -5 293 -8 368 -20 433 -6
29 -4 38 9 43 9 3 22 1 30 -5 7 -6 15 -8 19 -5 3 3 8 -5 12 -18 10 -30 25 -39
47 -27 10 5 18 6 19 2 0 -4 5 1 10 12 8 18 8 17 6 -5 -1 -14 -8 -24 -15 -22
-8 1 -11 -2 -7 -7 3 -6 12 -8 19 -5 14 5 46 -31 46 -51 0 -5 -4 -4 -9 3 -7 11
-9 11 -14 -2 -4 -9 -2 -16 3 -16 6 0 10 -7 10 -15 0 -7 8 -18 17 -24 25 -14 9
-25 -16 -11 -12 6 -21 8 -21 6 0 -3 14 -12 30 -21 28 -15 39 -38 23 -48 -5 -2
-2 -2 5 0 9 2 11 -3 7 -18 -5 -14 -3 -19 4 -15 7 5 9 1 5 -9 -4 -8 -1 -22 6
-30 11 -13 10 -14 -6 -8 -17 6 -18 5 -4 -12 11 -13 12 -19 3 -22 -14 -5 4 -53
19 -53 5 0 6 -4 3 -10 -3 -5 -2 -10 3 -10 8 0 10 -6 14 -49 1 -10 7 -17 14
-14 6 2 14 -5 17 -16 5 -21 -9 -41 -29 -41 -7 0 -14 -5 -16 -11 -2 -6 -24 -12
-48 -14 -25 -2 -50 -4 -56 -4 -13 -1 -74 -61 -74 -72 0 -15 46 -22 142 -23
109 -1 136 -14 124 -59 -6 -25 -18 -33 -71 -47 -16 -4 -39 -11 -49 -16 -14 -5
-17 -4 -12 5 7 11 -8 10 -65 -5 -9 -3 -24 2 -32 11 -9 8 -22 15 -31 15 -12 0
-13 -5 -4 -31 13 -39 76 -70 122 -62 51 9 98 5 113 -10 8 -8 16 -31 19 -53 2
-21 9 -54 14 -73 5 -19 7 -38 3 -44 -3 -5 3 -5 13 1 30 16 77 71 131 152 68
102 194 242 284 316 91 74 209 158 209 147 0 -4 4 -3 8 2 9 13 38 31 82 51 19
9 43 21 54 26 13 7 16 6 11 -2 -3 -6 10 -1 29 10 20 11 36 17 36 15 0 -3 11 2
25 11 13 9 30 14 36 12 6 -2 -67 -55 -162 -117 -96 -63 -205 -139 -244 -169
-77 -61 -255 -231 -255 -244 0 -4 30 12 68 36 151 97 429 230 575 275 37 11
94 21 127 22 34 1 63 6 66 11 3 4 10 6 15 2 5 -3 17 0 25 7 11 9 20 9 40 0 14
-6 23 -7 20 -2 -4 5 22 7 61 4 38 -3 71 -10 75 -16 4 -7 8 -8 8 -4 0 4 9 3 20
-3 16 -9 20 -8 20 5 0 8 5 15 11 15 7 0 9 -10 5 -25 -4 -15 -2 -25 4 -25 6 0
9 4 5 9 -7 12 31 25 45 16 5 -3 10 -1 10 5 0 7 6 8 18 1 18 -9 24 -11 43 -11
8 0 7 -5 -1 -16 -12 -13 -10 -14 14 -3 23 11 29 10 37 -2 7 -11 9 -8 9 10 0
17 3 21 13 14 20 -17 70 -26 61 -12 -5 8 -3 9 6 4 26 -16 84 -24 97 -13 9 7
13 7 13 -1 0 -7 5 -9 10 -6 6 4 8 11 5 16 -3 5 1 6 9 3 9 -3 12 -12 8 -22 -5
-15 -3 -14 13 1 14 15 20 16 26 5 5 -7 9 -8 9 -3 0 6 5 3 10 -5 8 -13 10 -13
10 2 0 14 5 15 29 8 16 -4 32 -6 35 -2 3 3 6 -1 6 -9 1 -10 3 -9 11 4 5 9 15
17 20 17 6 0 7 -4 4 -10 -3 -5 -1 -10 4 -10 6 0 11 4 11 9 0 7 18 8 53 2 5 0
5 -6 1 -12 -4 -8 -9 -7 -15 2 -5 8 -9 9 -9 3 0 -18 12 -24 31 -14 12 7 19 6
22 -3 3 -9 7 -9 20 2 10 7 17 9 17 4 0 -5 15 -15 33 -22 17 -8 40 -18 49 -22
22 -10 20 10 -2 28 -10 8 -11 12 -3 13 6 0 15 -4 18 -10 3 -5 13 -10 21 -10 8
0 28 -10 45 -22 23 -17 32 -20 38 -10 6 10 11 10 21 -3 7 -8 20 -15 29 -16 11
0 12 -2 3 -6 -7 -3 -19 0 -26 7 -10 8 -16 8 -21 0 -4 -6 -3 -10 2 -9 4 1 16
-1 26 -6 9 -4 28 -5 42 -3 19 4 26 0 34 -23 5 -16 13 -29 16 -29 3 0 4 3 2 8
-3 4 2 14 11 22 14 13 15 12 10 -2 -5 -12 -1 -15 17 -14 13 0 21 4 18 9 -2 4
1 7 6 7 6 0 11 -6 11 -14 0 -15 16 -16 37 -3 7 4 14 0 17 -11 3 -10 16 -18 27
-19 21 -2 21 -1 3 12 -18 13 -18 14 3 8 13 -3 23 -9 23 -14 0 -5 3 -8 7 -8 5
1 11 0 16 -1 4 -1 13 -3 20 -4 6 -1 11 -8 9 -15 -1 -7 2 -10 8 -6 19 12 80
-15 80 -36 0 -17 4 -20 25 -19 14 1 35 -31 29 -42 -6 -10 -5 -10 7 -1 14 11
16 9 14 -16 -1 -21 4 -31 17 -34 10 -3 18 -1 18 4 0 4 8 5 17 2 11 -4 12 -8 5
-11 -7 -2 -12 -12 -12 -23 0 -12 5 -16 15 -13 11 5 13 2 8 -12 -4 -12 -3 -15
5 -10 8 5 12 -2 12 -20 0 -24 2 -25 18 -13 9 7 14 9 10 5 -4 -5 -2 -16 5 -24
10 -13 9 -15 -3 -8 -12 6 -11 4 1 -6 9 -7 18 -20 22 -28 4 -12 6 -13 6 -1 1
11 5 10 15 -4 8 -11 12 -24 9 -28 -3 -5 -9 -3 -14 4 -7 11 -9 11 -9 -2 0 -17
26 -34 47 -30 7 1 9 -7 6 -19 -3 -13 1 -22 11 -26 9 -3 16 -12 16 -19 0 -6 9
-20 19 -29 11 -10 17 -25 14 -34 -4 -9 -2 -13 4 -9 5 3 15 -9 20 -28 7 -23 8
-37 1 -41 -5 -4 -3 -13 5 -22 9 -10 17 -26 19 -37 1 -11 11 -28 21 -37 11 -9
16 -22 12 -29 -4 -6 -2 -14 4 -18 6 -4 14 -21 17 -36 3 -16 9 -34 13 -40 4 -5
7 -17 6 -25 -1 -8 7 -30 18 -48 10 -18 16 -39 13 -47 -3 -8 -2 -14 2 -14 18 3
26 -2 14 -10 -11 -7 -11 -10 0 -22 7 -8 14 -21 14 -29 1 -16 9 -41 25 -75 6
-12 11 -27 12 -35 2 -8 5 -19 8 -25 4 -5 5 -18 4 -28 -2 -9 0 -15 5 -12 8 5
26 -52 22 -68 -2 -5 1 -6 6 -3 8 5 15 -10 52 -109 12 -33 26 -68 31 -77 7 -15
61 -163 59 -163 -2 0 7 -29 33 -110 14 -44 28 -96 32 -115 4 -19 11 -39 15
-45 4 -5 11 -28 15 -50 9 -40 10 -49 15 -62 1 -5 2 -11 1 -15 0 -3 8 -32 19
-64 22 -63 24 -70 45 -189 17 -94 22 -164 31 -414 6 -163 9 -180 20 -150 7 19
15 51 19 73 7 43 14 43 16 0 2 -44 9 -65 20 -58 11 6 8 -34 -4 -53 -4 -6 -3
-13 1 -15 5 -1 12 -20 15 -41 3 -20 2 -35 -3 -32 -5 3 -5 -8 0 -25 6 -21 5
-30 -3 -30 -8 0 -7 -3 2 -9 7 -5 10 -14 7 -20 -4 -6 -1 -11 6 -11 9 0 9 -3 -2
-10 -8 -5 -10 -10 -4 -10 14 0 15 -70 1 -70 -8 0 -7 -4 2 -9 9 -6 10 -11 3
-15 -6 -4 -9 -13 -5 -21 3 -9 0 -22 -7 -30 -7 -8 -9 -22 -6 -31 5 -14 4 -15
-9 -4 -12 10 -15 10 -15 -4 0 -9 -5 -16 -11 -16 -5 0 -7 6 -3 13 5 9 4 9 -5 1
-7 -6 -13 -21 -14 -33 -1 -11 -8 -21 -16 -21 -11 0 -12 -3 -3 -12 7 -7 8 -17
2 -29 -7 -11 -7 -20 0 -24 15 -9 12 -25 -6 -25 -8 0 -12 -5 -9 -10 4 -6 1 -18
-7 -27 -9 -12 -9 -15 -1 -9 9 5 11 2 7 -8 -3 -9 -10 -16 -14 -16 -11 0 -20
-39 -10 -45 5 -3 11 1 14 7 3 7 4 4 3 -7 -1 -11 -9 -25 -17 -32 -10 -9 -11
-12 -2 -13 14 0 17 -30 2 -30 -7 0 -7 -7 0 -21 6 -11 9 -25 7 -32 -2 -7 0 -24
4 -39 4 -17 3 -30 -3 -34 -6 -4 -5 -10 3 -15 11 -7 12 -12 2 -29 -16 -24 -17
-33 -3 -25 6 3 7 -1 4 -9 -3 -9 -11 -16 -18 -17 -6 0 -2 -4 9 -9 17 -7 17 -9
3 -9 -10 -1 -18 -9 -18 -18 0 -15 -2 -16 -10 -3 -6 9 -10 10 -10 3 0 -6 4 -14
8 -17 11 -7 15 -76 4 -76 -5 0 -9 -7 -9 -15 0 -8 5 -15 11 -15 6 0 0 -7 -12
-16 -13 -9 -22 -23 -21 -32 3 -35 -1 -53 -12 -47 -6 4 -13 -2 -16 -14 -3 -11
-9 -19 -13 -16 -5 3 -12 0 -16 -6 -4 -7 -3 -9 4 -5 6 3 14 1 17 -5 4 -6 -2
-13 -14 -16 -12 -3 -21 -12 -21 -19 0 -8 -4 -14 -10 -14 -5 0 -17 -16 -26 -35
-9 -19 -20 -32 -25 -29 -5 3 -9 -1 -9 -8 -1 -7 -13 -22 -27 -33 -14 -11 -42
-35 -63 -52 -20 -18 -52 -39 -71 -47 -19 -9 -28 -15 -21 -16 6 0 12 -4 12 -10
0 -5 -6 -7 -14 -4 -7 3 -16 -2 -19 -10 -4 -9 -14 -16 -24 -16 -15 0 -16 -2 -3
-10 13 -8 13 -10 -2 -11 -34 -3 -38 -4 -39 -14 -2 -11 -42 -42 -47 -37 -2 2
-12 -6 -22 -18 -11 -12 -24 -19 -30 -15 -5 3 -13 -1 -16 -9 -3 -9 -11 -13 -17
-9 -6 4 -8 0 -4 -9 3 -10 0 -15 -11 -14 -9 0 -16 -5 -14 -12 1 -8 -2 -11 -7
-8 -5 4 -15 0 -23 -7 -7 -8 -19 -12 -27 -9 -10 3 -12 0 -8 -12 3 -8 3 -15 -1
-13 -7 2 -17 -6 -90 -73 -18 -16 -37 -30 -42 -30 -6 0 -10 -6 -10 -14 0 -8 -7
-16 -15 -20 -8 -3 -15 -12 -15 -19 0 -7 -11 -20 -25 -27 -14 -8 -35 -29 -46
-47 -11 -18 -26 -36 -32 -40 -7 -5 -21 -18 -31 -31 -20 -23 -20 -23 0 -16 35
14 168 95 279 172 240 165 270 185 258 172 -7 -8 -9 -19 -4 -29 5 -9 7 -24 6
-34 -2 -9 0 -17 5 -17 4 0 8 -12 7 -27 0 -16 3 -36 8 -46 6 -14 3 -16 -11 -11
-11 3 -8 -1 6 -9 14 -9 29 -12 35 -9 5 3 2 -6 -8 -21 -17 -26 -15 -53 3 -42 5
3 12 0 16 -6 4 -8 3 -9 -4 -5 -8 4 -12 0 -12 -11 0 -15 -2 -16 -11 -3 -9 13
-10 13 -6 0 2 -8 12 -14 22 -12 11 2 14 -1 9 -9 -4 -7 1 -18 11 -26 11 -7 16
-13 12 -13 -4 0 2 -18 13 -41 l21 -41 -23 6 -23 6 23 -11 c12 -7 22 -18 22
-26 0 -8 -5 -11 -12 -7 -7 4 -8 3 -4 -4 4 -7 14 -12 22 -12 8 0 13 -4 9 -10
-3 -5 -11 -8 -18 -6 -7 1 -9 1 -4 -1 4 -3 4 -10 1 -15 -4 -6 -2 -8 3 -5 6 4
13 0 17 -8 3 -8 0 -15 -7 -15 -8 0 -8 -3 2 -9 7 -5 10 -14 7 -20 -4 -6 -2 -11
4 -11 6 0 8 -5 4 -11 -4 -7 -7 -25 -6 -40 0 -16 -3 -29 -8 -29 -4 0 -6 -8 -3
-19 2 -10 -2 -24 -9 -32 -7 -8 -13 -24 -12 -37 1 -13 -7 -27 -18 -33 -11 -6
-17 -17 -14 -24 2 -7 -2 -16 -11 -19 -9 -4 -13 -13 -9 -22 3 -8 2 -12 -4 -9
-6 3 -10 -1 -10 -10 0 -9 -4 -13 -10 -10 -8 5 -15 -31 -11 -57 0 -5 -3 -8 -7
-8 -10 0 -37 -51 -33 -64 1 -4 -4 -14 -10 -22 -9 -11 -8 -18 1 -29 7 -9 8 -15
2 -15 -5 0 -10 -16 -10 -35 0 -19 4 -35 8 -35 5 0 7 -9 5 -20 -2 -12 2 -23 10
-27 8 -3 12 -9 9 -14 -3 -5 0 -9 5 -9 6 0 11 -4 11 -10 0 -5 -8 -7 -17 -4 -15
5 -15 4 -4 -4 10 -7 21 -7 34 0 10 5 21 7 25 4 3 -3 0 -6 -6 -6 -6 0 -9 -7 -6
-15 3 -8 9 -14 12 -13 4 0 9 0 12 -1 3 -2 25 -4 50 -6 25 -3 46 -9 48 -15 2
-5 12 -10 23 -10 10 0 19 -4 19 -10 0 -5 23 -10 50 -10 39 0 50 -4 50 -16 0
-31 -118 -465 -145 -536 -7 -17 17 -18 414 -18 232 0 421 3 421 7 0 4 -25 104
-54 222 -111 436 -162 759 -218 1366 -20 215 -22 304 -23 850 -1 660 -8 780
-81 1458 -9 82 -14 150 -11 153 2 3 14 -39 27 -93 37 -165 38 -167 41 -85 1
39 4 87 5 105 5 59 4 411 -2 447 -10 64 -11 75 -18 100 -3 14 -8 50 -10 81 -3
31 -12 73 -20 93 -9 21 -15 40 -15 44 4 24 -2 62 -9 58 -4 -2 -8 11 -8 29 0
19 -8 42 -17 53 -13 14 -14 21 -5 30 9 9 9 12 0 12 -7 0 -12 9 -12 21 0 11 -5
30 -12 42 -7 12 -14 33 -16 47 -2 13 -7 29 -11 35 -5 5 -11 22 -15 38 -3 15
-11 27 -17 27 -6 0 -7 5 -4 10 3 6 -3 23 -14 39 -12 16 -21 34 -21 40 0 6 -14
36 -31 66 -17 30 -27 60 -23 66 4 8 3 9 -5 5 -7 -5 -16 4 -23 26 -7 18 -11 36
-10 41 1 4 -2 7 -7 7 -5 0 -16 17 -25 38 -9 20 -20 44 -25 52 -6 8 -16 30 -23
48 -7 17 -16 32 -19 32 -7 0 -22 40 -20 54 1 5 -6 5 -16 2 -9 -4 -14 -4 -10 0
3 4 -2 19 -12 33 -10 14 -19 30 -19 34 0 5 -9 19 -20 32 -11 13 -18 26 -15 29
4 3 2 6 -3 6 -12 0 -48 59 -40 67 3 3 -2 20 -10 37 -13 27 -13 29 0 12 9 -11
21 -16 32 -12 13 5 15 1 12 -16 -3 -19 0 -23 21 -25 14 0 27 -6 29 -12 2 -6
14 -8 28 -5 14 4 24 2 22 -2 -3 -10 27 -58 54 -88 16 -17 23 -43 19 -68 0 -4
6 -5 14 -2 8 4 15 1 15 -5 0 -7 9 -21 20 -33 22 -24 27 -43 8 -32 -9 5 -8 2 1
-10 8 -9 20 -15 28 -12 13 5 17 -5 14 -31 -1 -7 5 -13 14 -13 9 0 14 -4 11 -8
-3 -5 6 -16 20 -26 13 -11 24 -24 24 -31 0 -6 11 -18 25 -25 14 -8 21 -16 15
-20 -6 -4 0 -16 15 -30 14 -13 25 -29 25 -36 0 -7 10 -16 21 -19 15 -5 18 -10
10 -15 -9 -5 -3 -15 19 -34 17 -14 28 -26 24 -26 -4 0 0 -8 8 -17 8 -10 21
-34 29 -53 7 -19 24 -44 36 -56 12 -12 20 -24 16 -27 -3 -4 2 -16 12 -27 10
-11 15 -20 12 -20 -6 0 52 -132 62 -140 3 -3 14 -32 25 -65 10 -33 24 -76 31
-95 13 -34 52 -234 61 -308 5 -42 12 -77 14 -77 1 0 4 -18 5 -40 2 -22 7 -62
11 -90 3 -27 7 -60 7 -72 1 -12 4 -20 7 -18 4 2 7 -13 8 -33 1 -20 4 -48 8
-62 3 -14 7 -47 10 -75 2 -27 7 -68 10 -90 18 -121 12 -484 -10 -600 -2 -11
-7 -47 -10 -80 -9 -77 -63 -316 -81 -359 -8 -19 -17 -48 -20 -65 -6 -34 -67
-155 -92 -183 -9 -10 -11 -18 -5 -18 12 0 54 49 105 122 l33 47 -1 -199 c0
-110 2 -233 5 -275 3 -41 1 -75 -3 -75 -5 0 -5 -4 -2 -10 3 -5 7 -83 8 -174 1
-90 4 -163 8 -161 3 2 4 -12 3 -31 -2 -19 0 -33 4 -30 4 2 7 -17 6 -42 0 -26
3 -57 8 -69 4 -13 4 -23 0 -23 -5 0 -8 -20 -8 -44 1 -24 4 -42 9 -39 4 2 8 -3
8 -11 2 -25 4 -30 13 -45 6 -10 5 -12 -2 -7 -7 4 -12 2 -12 -3 0 -6 4 -11 8
-11 9 0 7 -53 -2 -69 -4 -7 -1 -8 8 -5 13 5 14 1 6 -25 -5 -17 -5 -29 -1 -26
5 2 13 -13 19 -35 7 -28 6 -40 -2 -43 -8 -3 -7 -9 3 -18 12 -12 13 -12 6 0 -5
9 -4 12 2 8 6 -4 8 -20 4 -39 -5 -22 -1 -44 10 -68 10 -19 14 -39 10 -45 -10
-14 -4 -67 9 -75 6 -4 8 -14 5 -22 -4 -9 -2 -19 3 -22 5 -3 8 -17 6 -31 -1
-15 4 -42 12 -61 8 -19 12 -34 9 -34 -3 0 -1 -10 6 -21 8 -16 8 -23 0 -28 -8
-5 -2 -31 19 -84 17 -42 29 -81 25 -87 -3 -5 -1 -19 5 -30 9 -16 8 -25 -1 -36
-6 -8 -7 -14 -2 -14 5 0 7 -16 5 -35 -2 -19 -1 -43 3 -52 5 -10 9 -22 10 -28
4 -26 28 -75 36 -75 10 0 3 53 -10 79 -18 34 -23 94 -9 102 10 7 10 9 0 9 -9
0 -8 8 4 32 18 35 18 45 -16 298 -43 326 -61 690 -51 1030 1 30 1 64 -1 74 -2
10 3 21 10 23 8 3 10 -1 5 -13 -5 -13 -3 -15 8 -9 11 7 12 6 2 -7 -7 -8 -11
-17 -9 -19 2 -2 7 -44 10 -94 13 -188 17 -232 27 -315 6 -47 13 -105 15 -130
3 -25 9 -56 14 -70 5 -14 11 -41 14 -60 8 -50 14 -79 19 -88 3 -4 6 -27 8 -52
1 -25 7 -50 12 -57 5 -7 6 -17 3 -22 -4 -5 -2 -12 2 -15 5 -3 10 -26 10 -52 1
-25 5 -51 9 -58 4 -6 8 -15 10 -21 1 -5 5 -21 9 -35 3 -14 7 -41 9 -61 1 -19
5 -42 10 -49 5 -8 10 -23 10 -33 1 -10 8 -23 16 -28 12 -7 12 -9 0 -9 -9 0
-10 -4 -3 -12 5 -7 13 -34 16 -60 4 -26 12 -50 17 -54 6 -3 8 -13 5 -21 -4 -9
-2 -11 6 -7 7 5 9 0 6 -14 -4 -12 -2 -20 3 -16 5 3 9 -4 9 -15 0 -12 6 -21 13
-21 8 0 8 -3 2 -8 -10 -6 -11 -20 -5 -39 1 -5 2 -12 1 -17 -1 -5 3 -12 9 -16
6 -4 13 -24 16 -46 3 -21 10 -41 16 -45 6 -4 8 -14 5 -23 -3 -8 -2 -18 4 -22
5 -3 7 -15 3 -26 -3 -11 -2 -18 3 -15 4 3 8 -10 7 -28 -1 -19 4 -45 11 -59 7
-13 10 -27 7 -31 -4 -3 0 -10 7 -14 7 -5 14 -22 15 -38 3 -38 14 -55 29 -47 9
5 9 4 1 -5 -13 -14 -7 -54 6 -46 5 3 6 -4 3 -15 -4 -14 0 -20 11 -20 20 0 21
40 0 95 -32 88 -75 221 -77 237 -1 10 -5 18 -9 18 -4 0 -5 6 -2 14 3 8 1 17
-5 21 -6 3 -11 31 -11 61 0 30 -4 54 -10 54 -5 0 -6 7 -3 17 5 12 3 14 -7 8
-9 -5 -11 -4 -6 3 4 6 0 24 -8 39 -7 15 -12 41 -11 56 3 21 0 27 -10 23 -9 -3
-12 0 -9 8 3 7 -2 33 -11 59 -8 25 -15 49 -14 54 2 4 -1 24 -5 43 -4 19 -8 42
-9 50 -2 8 -6 20 -9 26 -4 6 -5 25 -3 44 3 18 1 38 -3 44 -3 6 -8 22 -10 36
-2 14 -7 26 -12 28 -5 2 -6 14 -4 28 2 13 0 24 -6 24 -5 0 -10 5 -10 11 0 5 4
8 9 4 18 -11 7 40 -13 64 -12 13 -16 21 -10 18 16 -9 28 25 12 35 -7 4 -9 8
-4 8 5 0 3 6 -3 14 -9 11 -9 15 1 18 10 4 10 8 -1 21 -11 14 -11 17 0 17 12 0
12 2 0 9 -7 5 -10 14 -7 20 4 6 3 11 -2 11 -6 0 -13 7 -16 16 -3 8 -2 12 4 9
13 -8 13 -4 -5 38 -8 20 -11 38 -7 41 5 3 8 15 7 28 -1 13 3 29 9 37 9 12 8
13 -6 8 -12 -4 -15 -2 -11 9 4 10 0 13 -13 8 -18 -5 -18 -5 -1 6 14 9 22 9 30
1 6 -6 17 -11 25 -11 25 0 37 -25 37 -80 0 -30 2 -59 5 -65 3 -5 5 -19 6 -30
1 -11 5 -36 9 -55 4 -19 8 -53 10 -75 3 -39 27 -192 45 -290 5 -27 19 -106 30
-175 48 -291 104 -517 177 -718 l16 -42 461 0 c421 0 509 5 478 24 -6 4 -8 14
-5 23 5 13 2 15 -12 10 -13 -6 -15 -4 -8 5 7 9 5 22 -8 43 -11 17 -19 23 -19
14 0 -8 5 -20 11 -26 7 -7 7 -13 1 -17 -10 -6 -35 45 -35 70 0 8 -5 14 -10 14
-5 0 -6 7 -3 16 3 8 2 12 -4 9 -6 -3 -10 -14 -10 -23 0 -13 -2 -13 -15 4 -8
10 -15 27 -15 37 0 9 -6 17 -12 17 -7 0 -24 23 -37 50 -14 27 -28 47 -33 44
-5 -4 -8 2 -6 12 2 11 -2 18 -10 16 -9 -1 -10 6 -6 24 5 19 4 25 -5 20 -20
-13 -45 26 -43 67 0 9 -3 15 -9 12 -5 -4 -9 3 -9 15 0 12 -4 19 -9 15 -12 -7
-20 19 -25 80 -3 26 -10 52 -18 56 -7 5 -8 9 -3 9 6 0 3 5 -5 10 -10 6 -11 10
-2 10 18 0 15 18 -5 22 -16 3 -16 4 0 20 21 20 23 35 3 19 -10 -8 -16 -9 -21
-1 -10 16 4 30 22 23 15 -6 16 -5 3 9 -8 9 -18 14 -22 11 -15 -8 -8 10 8 21
13 10 13 14 -5 35 -28 33 -18 40 19 13 16 -12 33 -22 37 -22 5 0 40 -30 79
-67 130 -125 186 -218 373 -617 28 -59 51 -112 51 -117 0 -5 11 -9 25 -9 l25
0 0 626 0 626 -83 108 c-142 188 -193 266 -277 425 -11 22 -29 56 -39 75 -11
19 -17 37 -15 39 2 2 -3 9 -12 15 -8 6 -16 18 -17 26 -2 8 -7 22 -12 30 -5 8
-10 21 -11 30 -1 8 -5 24 -10 35 -7 17 -6 18 8 5 9 -8 14 -18 11 -22 -2 -5 0
-8 4 -8 5 0 22 -26 38 -57 17 -32 33 -59 38 -61 4 -2 7 -10 7 -17 0 -7 6 -15
14 -18 7 -3 23 -25 35 -49 12 -23 28 -48 34 -53 14 -12 57 -72 57 -80 0 -7 71
-108 85 -120 6 -5 23 -28 38 -50 14 -22 44 -60 66 -84 l41 -44 0 3286 0 3287
-3975 0 -3975 0 0 -455z m1520 317 c0 -4 -10 -9 -22 -9 -18 -2 -20 0 -8 7 18
12 30 13 30 2z m-895 -209 c6 -11 16 -18 23 -15 6 2 12 0 12 -5 0 -5 20 -32
45 -59 25 -27 45 -52 45 -56 0 -3 6 -13 13 -20 22 -23 102 -170 137 -253 19
-44 53 -111 78 -149 31 -50 42 -75 38 -92 -8 -31 -41 -47 -80 -40 -17 3 -61 7
-97 9 -38 1 -73 8 -82 16 -11 8 -17 9 -17 3 0 -21 -34 1 -77 47 -23 25 -42 49
-43 53 0 7 -28 34 -99 96 -19 16 -50 60 -70 97 -25 46 -47 74 -69 85 -65 35
-80 60 -36 60 16 0 38 12 58 33 56 59 101 118 112 150 34 92 30 89 66 74 18
-7 38 -22 43 -34z m1065 -283 c7 -2 -32 -18 -47 -19 -7 -1 -13 5 -13 12 0 12
35 16 60 7z m60 -152 c0 -6 -3 -8 -6 -5 -4 3 -16 1 -28 -5 -21 -11 -21 -11 -2
10 19 21 36 21 36 0z m3150 -952 c0 -3 -4 -8 -10 -11 -5 -3 -10 -1 -10 4 0 6
5 11 10 11 6 0 10 -2 10 -4z m427 -331 c0 -8 -4 -12 -9 -9 -4 3 -8 9 -8 15 0
5 4 9 8 9 5 0 9 -7 9 -15z m-71 -145 c8 0 16 -15 20 -40 4 -22 10 -37 15 -34
15 9 29 -44 20 -69 -10 -25 -3 -77 9 -77 4 0 11 -15 15 -32 10 -43 7 -33 37
-113 14 -38 36 -101 48 -140 11 -38 24 -77 27 -85 3 -8 7 -22 9 -30 2 -8 22
-75 44 -148 22 -73 42 -143 44 -155 3 -12 7 -31 10 -42 36 -139 44 -172 44
-185 0 -8 3 -23 7 -32 4 -11 3 -18 -4 -18 -10 0 -12 7 -16 50 0 8 -4 20 -8 26
-8 14 -176 524 -190 579 -5 22 -13 45 -18 50 -4 6 -10 27 -14 48 -4 20 -11 40
-16 43 -5 3 -9 16 -9 29 0 13 -5 27 -10 30 -6 4 -8 10 -5 15 3 5 1 11 -5 15
-5 3 -10 17 -10 30 0 13 -5 27 -10 30 -6 4 -8 11 -4 16 3 5 1 15 -4 22 -8 11
-14 29 -29 87 -2 8 -6 33 -8 54 -3 21 -9 44 -13 50 -7 10 -8 23 -2 44 1 4 4 1
7 -5 2 -7 11 -13 19 -13z m524 10 c0 -5 -2 -10 -4 -10 -3 0 -8 5 -11 10 -3 6
-1 10 4 10 6 0 11 -4 11 -10z m85 -113 c27 -45 28 -47 16 -47 -6 0 -11 7 -11
15 0 7 -6 18 -13 22 -15 9 -30 43 -19 43 4 0 16 -15 27 -33z m112 -172 c22
-38 48 -86 58 -105 l18 -35 -26 24 c-14 13 -38 47 -53 76 -16 29 -33 51 -40
48 -14 -5 -6 -43 8 -40 5 1 15 -7 21 -18 7 -11 16 -23 21 -26 5 -4 6 -11 2
-17 -3 -5 1 -13 9 -16 8 -3 15 -9 14 -13 -1 -4 0 -11 1 -15 1 -5 3 -11 4 -15
1 -5 15 -35 30 -68 74 -156 94 -204 111 -255 10 -30 22 -61 28 -67 5 -7 7 -13
3 -13 -4 0 0 -13 8 -29 8 -15 17 -41 20 -56 3 -14 10 -33 17 -41 6 -8 9 -17 6
-20 -7 -7 -37 50 -37 71 0 8 -4 15 -8 15 -5 0 -15 11 -22 25 -17 31 -32 23
-20 -11 6 -14 10 -38 10 -53 0 -15 5 -32 12 -39 9 -9 9 -12 -1 -12 -7 0 -11
-6 -8 -15 4 -8 1 -17 -4 -21 -6 -3 -9 -15 -6 -25 3 -11 1 -19 -4 -19 -5 0 -12
12 -15 28 -4 15 -9 32 -13 37 -3 6 -6 17 -6 25 0 8 -4 20 -8 27 -4 7 -21 53
-38 104 -29 88 -84 206 -195 419 -28 52 -48 104 -46 115 3 17 1 18 -8 5 -10
-13 -11 -13 -7 0 4 17 57 27 57 11 0 -6 5 -11 12 -11 9 0 9 3 1 11 -13 13 -6
46 12 53 9 3 12 0 8 -10 -3 -8 1 -14 10 -14 18 0 12 37 -9 58 -7 7 -11 19 -8
27 8 19 23 -1 81 -100z m1048 -45 c-3 -5 -12 -10 -18 -10 -7 0 -6 4 3 10 19
12 23 12 15 0z m79 -92 c-7 -11 -84 29 -91 48 -3 9 0 20 8 25 10 6 25 -3 51
-28 20 -20 35 -40 32 -45z m-668 35 c-2 -3 8 -18 22 -35 49 -54 102 -141 172
-283 79 -159 164 -393 133 -361 -5 4 -8 11 -8 14 -2 25 -82 206 -126 282 -11
19 -27 51 -36 70 -8 19 -20 41 -26 49 -6 7 -12 18 -13 25 -3 25 -42 85 -49 78
-5 -4 -5 -2 -1 5 3 6 -4 23 -18 37 -13 15 -26 41 -30 59 -5 26 -9 29 -17 17
-9 -13 -10 -13 -6 1 3 9 -3 26 -13 37 -21 22 -15 39 7 20 7 -6 11 -13 9 -15z
m92 -398 c-3 -3 -9 2 -12 12 -6 14 -5 15 5 6 7 -7 10 -15 7 -18z m75 -44 c9
-15 14 -31 10 -35 -3 -3 -1 -6 5 -6 15 0 42 -64 42 -99 0 -19 3 -22 9 -12 7
11 11 8 17 -10 4 -13 8 -26 9 -29 0 -3 6 -14 12 -25 14 -27 61 -175 62 -197 1
-10 1 -26 2 -35 0 -10 7 -34 14 -53 23 -61 39 -185 26 -206 -8 -14 -11 -15
-11 -4 -3 54 -11 92 -21 112 -7 13 -14 36 -16 51 -2 16 -7 36 -12 45 -5 9 -25
67 -45 127 -21 61 -41 118 -47 127 -5 10 -9 29 -9 43 0 14 -4 25 -10 25 -5 0
-10 10 -10 22 0 41 -42 158 -57 158 -10 0 -12 -7 -8 -22 5 -20 4 -20 -5 -6 -8
13 -7 23 2 38 17 26 20 25 41 -9z m-3 -87 c0 -8 -5 -12 -10 -9 -6 4 -8 11 -5
16 9 14 15 11 15 -7z m194 -206 c4 -17 2 -28 -4 -28 -5 0 -10 9 -10 19 0 11
-3 28 -6 38 -5 12 -4 15 3 8 6 -5 13 -22 17 -37z m-98 -1209 c3 -6 14 -9 24
-6 15 4 17 -3 15 -62 -2 -65 -25 -141 -43 -141 -5 0 -7 10 -5 23 2 12 -5 56
-16 96 -15 55 -18 78 -10 88 14 16 26 17 35 2z m-410 -1235 c-3 -9 -6 -21 -7
-27 0 -7 -4 -3 -8 8 -9 22 -5 35 11 35 5 0 7 -7 4 -16z m1165 -70 c2 3 5 -7 6
-21 1 -29 -8 -21 -25 22 -11 26 -10 28 1 13 8 -10 16 -16 18 -14z m-946 -433
c3 -5 1 -12 -5 -16 -5 -3 -10 1 -10 9 0 18 6 21 15 7z m-38 -111 c3 -32 -9
-38 -31 -18 -11 11 -11 17 2 36 17 27 24 23 29 -18z m66 -7 c-7 -2 -19 -2 -25
0 -7 3 -2 5 12 5 14 0 19 -2 13 -5z m-318 -313 c-3 -5 -13 -10 -21 -10 -8 0
-12 5 -9 10 3 6 13 10 21 10 8 0 12 -4 9 -10z m32 -12 c-3 -8 -6 -5 -6 6 -1
11 2 17 5 13 3 -3 4 -12 1 -19z m13 -58 c0 -5 -2 -10 -4 -10 -3 0 -8 5 -11 10
-3 6 -1 10 4 10 6 0 11 -4 11 -10z m1087 -386 c-3 -3 -12 -4 -19 -1 -8 3 -5 6
6 6 11 1 17 -2 13 -5z"/>
<path d="M6673 3405 c0 -8 4 -12 9 -9 4 3 8 9 8 15 0 5 -4 9 -8 9 -5 0 -9 -7
-9 -15z"/>
<path d="M6685 3350 c3 -5 8 -10 11 -10 2 0 4 5 4 10 0 6 -5 10 -11 10 -5 0
-7 -4 -4 -10z"/>
<path d="M1476 7143 c-6 -14 -5 -15 5 -6 7 7 10 15 7 18 -3 3 -9 -2 -12 -12z"/>
<path d="M1266 6761 c-84 -12 -86 -18 -80 -253 3 -111 8 -206 11 -211 8 -13
161 -1 180 14 10 9 12 24 9 48 -3 20 -7 115 -8 211 0 96 -5 181 -11 188 -10
13 -24 13 -101 3z"/>
<path d="M1840 6690 c0 -5 5 -10 11 -10 5 0 7 5 4 10 -3 6 -8 10 -11 10 -2 0
-4 -4 -4 -10z"/>
<path d="M226 6608 c-64 -14 -66 -22 -59 -208 3 -91 7 -172 9 -180 1 -8 3 -27
3 -42 1 -40 27 -49 102 -36 35 6 70 15 76 20 17 13 10 423 -7 443 -13 15 -64
16 -124 3z"/>
<path d="M4175 6570 c3 -5 8 -10 11 -10 2 0 4 5 4 10 0 6 -5 10 -11 10 -5 0
-7 -4 -4 -10z"/>
<path d="M4483 6298 c1 -13 7 -29 14 -36 7 -7 13 -19 13 -26 0 -7 16 -35 35
-62 19 -27 35 -53 35 -57 0 -5 11 -23 25 -41 14 -18 25 -36 25 -39 0 -3 17
-32 38 -64 22 -32 51 -80 67 -108 15 -27 32 -56 37 -62 6 -7 7 -13 2 -13 -5 0
-4 -4 2 -8 12 -8 254 -498 254 -515 0 -4 11 -30 24 -59 13 -29 45 -107 71
-173 158 -409 204 -541 276 -805 11 -41 36 -107 55 -146 19 -40 34 -75 34 -79
0 -4 10 -16 23 -27 l22 -20 3 30 c4 34 -41 218 -89 369 -29 92 -130 374 -149
418 -5 11 -41 103 -81 205 -130 332 -388 883 -492 1049 -47 75 -148 211 -172
231 -8 7 -15 18 -15 26 0 7 -5 16 -12 20 -7 5 -8 3 -3 -5 4 -8 -4 -6 -18 4
-25 16 -26 16 -24 -7z"/>
<path d="M3776 6236 c-17 -17 -17 -20 -4 -30 17 -13 35 -71 19 -61 -14 8 -1
-26 16 -43 7 -8 11 -17 8 -22 -3 -4 2 -20 10 -36 7 -15 12 -31 9 -36 -3 -4 0
-8 6 -8 6 0 8 -5 5 -10 -4 -6 -1 -17 5 -25 6 -8 9 -19 6 -24 -4 -5 -2 -12 3
-16 5 -3 10 -13 10 -23 1 -39 5 -52 14 -52 5 0 6 -7 3 -16 -4 -9 0 -24 8 -33
8 -9 22 -40 31 -68 10 -29 21 -51 25 -48 4 2 7 -6 6 -18 -1 -12 7 -35 18 -51
11 -16 15 -26 8 -22 -14 9 -15 2 -3 -22 9 -18 24 -53 37 -87 4 -11 6 -26 5
-32 -1 -7 5 -26 14 -43 9 -18 11 -30 5 -30 -6 0 -4 -11 5 -24 16 -24 27 -64
29 -103 1 -11 4 -19 7 -17 4 2 9 -13 12 -34 6 -44 24 -147 33 -182 6 -25 9
-42 19 -130 3 -25 7 -63 10 -85 2 -22 6 -72 9 -112 2 -39 7 -76 10 -82 4 -5 2
-12 -4 -16 -6 -4 -8 -11 -4 -16 3 -6 8 -166 10 -357 2 -191 4 -354 5 -362 4
-31 -1 -61 -10 -56 -5 4 -7 -7 -5 -22 3 -17 -1 -34 -9 -40 -11 -10 -18 1 -35
56 -12 37 -24 78 -27 92 -3 14 -11 50 -20 80 -8 30 -15 64 -15 75 0 11 -7 29
-15 39 -8 11 -15 30 -15 42 0 13 -7 49 -15 81 -8 32 -20 83 -25 113 -5 30 -19
98 -30 150 -44 201 -110 541 -110 566 0 14 -8 63 -19 108 -10 44 -31 133 -46
197 -26 114 -54 179 -75 179 -12 0 -6 -87 17 -255 3 -22 7 -55 8 -73 2 -18 6
-45 9 -60 3 -15 8 -49 11 -77 11 -99 27 -210 30 -215 2 -3 6 -61 10 -130 4
-68 11 -132 16 -142 6 -10 7 -23 4 -28 -3 -5 -2 -18 3 -27 5 -10 12 -56 16
-103 4 -47 11 -114 16 -150 19 -123 39 -265 45 -314 15 -135 62 -412 71 -427
9 -15 46 -152 49 -184 2 -16 13 -61 25 -98 18 -57 24 -66 36 -56 10 8 14 37
14 114 l0 103 43 -13 c23 -7 57 -11 75 -10 18 1 35 -2 38 -7 3 -4 14 -3 25 2
14 8 19 7 19 -1 0 -9 3 -9 14 0 9 8 21 8 40 1 18 -7 26 -6 26 1 0 6 9 9 20 6
11 -3 23 -1 26 4 9 16 21 10 28 -13 5 -18 8 -20 15 -9 6 9 11 10 15 2 4 -6 12
-11 17 -11 6 0 7 6 3 13 -9 13 26 -11 38 -28 5 -6 8 -5 8 3 0 9 6 9 23 -3 13
-8 27 -12 31 -8 4 4 4 -1 0 -11 -6 -15 -4 -17 6 -11 10 6 12 4 6 -10 -6 -16
-4 -16 11 -4 15 12 16 12 11 -3 -9 -21 2 -31 19 -17 10 9 13 6 13 -14 0 -17 7
-28 20 -32 10 -3 30 -19 43 -34 32 -39 110 -80 166 -89 71 -11 293 -4 336 10
35 12 40 18 61 78 23 67 43 186 25 143 -25 -57 -122 -72 -150 -22 -20 36 -7
75 32 99 43 27 73 25 103 -5 14 -14 26 -25 28 -25 15 0 -15 266 -40 355 -4 18
0 20 48 23 29 2 74 5 101 7 35 3 47 0 47 -10 0 -8 9 -16 20 -20 11 -3 19 -11
17 -17 -1 -6 5 -13 13 -15 12 -4 12 -3 1 5 -11 8 -11 10 0 15 10 4 10 6 2 6
-7 1 -13 7 -13 15 0 8 -8 17 -17 20 -10 3 -6 4 9 2 15 -2 29 2 32 8 2 6 5 -12
5 -41 1 -52 14 -76 25 -47 22 57 -19 170 -88 244 -18 19 -42 49 -52 67 -23 41
-35 45 -92 32 -26 -6 -67 -12 -91 -15 -24 -2 -50 -9 -57 -15 -11 -9 -14 -8
-14 1 0 9 -4 9 -17 -1 -9 -8 -19 -13 -22 -11 -6 3 -45 -3 -91 -14 -14 -4 -37
-7 -52 -7 -16 -1 -28 -4 -28 -7 0 -4 -6 -7 -12 -8 -7 0 -31 -3 -54 -5 -22 -2
-46 -7 -54 -12 -9 -5 -11 -4 -6 3 4 7 3 12 -3 12 -12 0 -3 54 10 58 5 2 15 9
22 15 6 7 29 20 50 29 43 20 47 33 12 42 -17 4 -23 11 -18 23 4 11 3 14 -5 9
-7 -4 -12 -3 -12 2 0 6 -20 9 -45 9 -35 -2 -45 2 -45 14 0 8 -7 24 -16 35 -8
10 -13 14 -10 7 4 -6 2 -14 -4 -18 -13 -8 -24 40 -14 62 4 10 6 23 4 28 -8 27
-7 66 3 72 6 4 7 1 2 -7 -5 -9 -4 -11 4 -6 6 4 9 11 6 16 -7 11 20 61 28 53 4
-3 7 0 7 7 0 7 8 19 18 27 18 14 130 74 134 72 2 -1 19 7 38 18 35 20 42 34
19 42 -8 2 -9 -1 -3 -10 7 -12 5 -12 -9 0 -9 7 -17 10 -17 5 0 -5 -31 -9 -70
-9 -38 0 -70 3 -70 8 0 4 -7 7 -15 7 -8 0 -15 5 -15 11 0 5 -5 7 -10 4 -13 -8
-8 18 5 27 6 5 6 8 -1 8 -6 0 -11 11 -11 25 0 13 3 22 7 20 10 -6 7 15 -3 33
-5 7 -3 12 3 12 8 0 10 9 5 28 -4 15 -7 32 -6 37 1 6 3 26 6 45 2 19 7 45 11
58 4 15 2 22 -7 22 -8 0 0 9 16 20 26 17 27 25 3 21 -11 -2 -10 13 2 25 7 7
-11 43 -53 110 -91 140 -205 340 -272 474 -32 63 -65 126 -74 140 -10 14 -32
59 -50 100 -36 84 -131 256 -170 310 -44 59 -66 78 -76 65 -15 -17 -16 -32 -3
-62 6 -15 12 -32 13 -38 2 -5 24 -62 50 -125 26 -63 56 -144 67 -180 10 -36
20 -69 22 -75 1 -5 6 -28 11 -50 4 -22 11 -44 15 -50 8 -11 42 -153 61 -255
12 -68 14 -82 23 -168 3 -29 8 -63 11 -75 16 -77 20 -148 20 -362 -1 -262 -10
-324 -45 -305 -14 7 -19 28 -25 97 -4 48 -18 151 -32 228 -13 77 -31 178 -38
225 -19 115 -47 227 -101 400 -25 80 -54 174 -65 210 -20 66 -61 180 -84 235
-7 17 -18 46 -25 65 -32 89 -168 368 -184 377 -20 13 -51 8 -70 -11z"/>
<path d="M1050 6133 c-8 -2 -26 -19 -39 -38 -25 -37 -48 -48 -96 -47 -22 0
-39 11 -67 43 -42 49 -60 47 -82 -6 -15 -36 -65 -67 -97 -61 -41 8 -69 19 -69
27 0 13 -38 11 -46 -2 -3 -6 7 -25 24 -41 42 -42 115 -50 166 -18 20 12 40 29
45 37 7 14 15 13 62 -10 60 -31 88 -33 128 -12 36 18 79 69 87 101 7 28 5 32
-16 27z"/>
<path d="M30 5960 c0 -5 5 -10 10 -10 6 0 10 5 10 10 0 6 -4 10 -10 10 -5 0
-10 -4 -10 -10z"/>
<path d="M1696 5773 c-4 -5 -22 -9 -39 -10 -18 -1 -43 -4 -57 -7 -53 -10 -128
-18 -189 -22 -35 -2 -72 -6 -83 -10 -11 -3 -36 -7 -56 -9 -20 -2 -55 -6 -77
-9 -37 -5 -134 -16 -180 -22 -11 -1 -46 -4 -78 -8 -31 -3 -67 -8 -80 -11 -12
-3 -49 -8 -82 -10 -33 -3 -76 -7 -95 -9 -19 -2 -60 -7 -90 -10 -30 -4 -89 -11
-130 -16 -41 -5 -97 -12 -125 -14 -27 -3 -97 -12 -155 -20 -58 -9 -122 -16
-142 -16 l-38 0 0 -1436 0 -1435 107 143 c59 79 184 242 278 363 498 641 591
771 692 971 108 213 106 200 95 490 l-10 249 23 45 23 46 -34 22 c-27 17 -76
87 -79 112 0 3 -4 11 -8 18 -5 7 -10 23 -13 35 -3 19 1 23 19 23 18 -1 22 5
24 34 6 79 25 225 33 245 12 31 49 52 104 59 61 9 82 1 90 -30 4 -13 15 -33
26 -44 11 -11 16 -20 12 -20 -4 0 -8 -9 -8 -20 0 -12 6 -19 15 -17 10 1 15 -8
15 -33 1 -22 6 -34 14 -32 6 1 12 -5 12 -14 0 -8 3 -13 8 -10 4 2 8 -10 9 -27
0 -17 6 -33 12 -35 6 -2 11 -11 11 -20 1 -9 14 21 29 68 38 113 90 232 157
358 51 95 58 113 40 95z m-742 -335 c-7 -11 -33 21 -33 42 0 10 6 8 19 -9 11
-12 17 -27 14 -33z m496 -62 c0 -2 -9 -6 -20 -9 -11 -3 -18 -1 -14 4 5 9 34
13 34 5z m37 -58 c-3 -8 -6 -5 -6 6 -1 11 2 17 5 13 3 -3 4 -12 1 -19z m-12
-17 c3 -5 0 -13 -6 -17 -7 -4 -9 -3 -5 4 3 5 0 13 -6 15 -9 4 -10 6 -1 6 6 1
14 -3 18 -8z"/>
<path d="M2676 5055 c-9 -13 -16 -27 -16 -31 0 -16 -54 -124 -61 -124 -5 0 -8
-3 -8 -7 1 -5 1 -19 0 -32 -1 -18 -5 -22 -21 -18 -11 3 -18 2 -15 -3 7 -11
-23 -80 -35 -80 -6 0 -10 -5 -10 -11 0 -5 5 -7 12 -3 7 5 8 3 4 -5 -5 -7 -10
-10 -13 -7 -12 12 -34 -25 -28 -45 4 -13 3 -19 -2 -16 -6 4 -15 -5 -22 -19 -9
-20 -8 -24 1 -18 7 5 3 -4 -8 -19 -12 -14 -27 -47 -34 -72 -7 -25 -17 -45 -22
-45 -6 0 -8 -6 -5 -14 3 -8 -2 -32 -13 -53 -10 -21 -16 -41 -14 -45 3 -4 -3
-19 -12 -33 -9 -14 -14 -28 -11 -32 4 -3 1 -11 -7 -17 -12 -10 -43 -99 -62
-178 -3 -16 -11 -28 -16 -28 -6 0 -5 -7 2 -15 11 -13 10 -14 -2 -10 -11 4 -14
-3 -13 -35 1 -41 -17 -80 -37 -80 -7 0 -6 5 1 14 9 11 9 16 0 22 -7 4 -9 3 -5
-4 3 -6 2 -13 -2 -16 -5 -3 -7 -18 -4 -33 5 -24 6 -25 12 -8 6 16 8 14 12 -13
3 -22 1 -32 -9 -32 -7 0 -13 -4 -13 -10 0 -5 6 -7 13 -4 8 3 13 -3 13 -15 0
-11 -4 -17 -8 -15 -4 3 -8 -5 -9 -18 0 -13 -3 -48 -7 -78 -13 -121 -8 -163 26
-213 23 -35 27 -45 13 -38 -24 13 -77 74 -95 109 -46 89 -134 361 -137 422 -1
17 -4 12 -9 -15 -4 -22 -6 -43 -4 -46 2 -3 -3 -6 -11 -6 -10 0 -11 5 -4 18 14
27 11 35 -6 13 -14 -18 -14 -18 -15 6 -1 23 -2 23 -9 5 -5 -11 -7 -33 -6 -48
2 -15 -1 -25 -5 -22 -5 3 -7 12 -4 20 4 9 -1 13 -15 12 -18 -1 -21 -7 -19 -45
1 -23 5 -45 10 -48 5 -3 4 -12 -3 -20 -6 -8 -9 -17 -6 -20 3 -4 -1 -13 -9 -22
-10 -9 -14 -27 -12 -44 3 -16 0 -32 -5 -35 -6 -4 -7 -1 -2 7 5 9 4 11 -3 6 -8
-5 -9 -13 -3 -24 6 -12 5 -24 -5 -36 -9 -12 -10 -24 -4 -35 8 -15 2 -17 -48
-13 -56 4 -58 3 -123 -49 -36 -30 -81 -65 -99 -79 -18 -14 -56 -45 -84 -68
-70 -60 -154 -115 -165 -108 -11 7 11 126 39 215 12 34 52 129 89 210 38 80
80 179 95 219 14 40 32 85 40 100 26 50 83 236 96 311 20 119 -1 232 -53 289
-31 34 -47 28 -47 -17 0 -49 -24 -111 -34 -86 -3 9 -6 47 -6 84 0 76 -21 157
-49 192 l-19 24 5 -29 c4 -21 1 -33 -13 -43 -17 -12 -17 -16 -4 -46 10 -21 15
-68 15 -142 0 -214 -20 -324 -76 -415 -16 -26 -29 -50 -29 -54 0 -3 33 -6 74
-6 81 0 92 -7 90 -55 -1 -31 -4 -39 -39 -120 -36 -81 -85 -120 -189 -150 -73
-21 -126 -52 -127 -73 -2 -44 -9 -174 -13 -237 -3 -38 -14 -101 -26 -140 -12
-38 -23 -79 -25 -89 -3 -11 -8 -22 -13 -25 -5 -3 -12 -23 -16 -43 -4 -21 -12
-38 -18 -38 -6 0 -9 -3 -5 -6 3 -3 -2 -25 -12 -47 -10 -23 -17 -52 -16 -64 1
-13 -2 -23 -6 -23 -6 0 -16 -39 -24 -90 0 -3 -4 -11 -8 -17 -5 -7 -10 -21 -12
-31 -2 -10 -10 -42 -19 -70 -8 -29 -12 -52 -8 -52 4 0 -1 -5 -11 -11 -9 -6
-15 -15 -11 -20 3 -5 -2 -21 -11 -35 -9 -13 -13 -30 -9 -36 4 -6 3 -8 -4 -4
-6 3 -13 -3 -17 -14 -3 -11 -11 -20 -16 -20 -6 0 -8 -4 -5 -9 3 -4 -3 -16 -14
-26 -11 -10 -20 -24 -20 -32 0 -7 -7 -13 -16 -13 -8 0 -13 -4 -9 -9 3 -6 -5
-15 -17 -22 -13 -6 -43 -31 -66 -55 -24 -24 -48 -44 -54 -44 -5 0 -6 -4 -3
-10 3 -5 1 -10 -4 -10 -11 0 -18 -6 -74 -67 -25 -27 -27 -33 -16 -59 7 -16 12
-32 11 -36 -3 -13 49 -47 64 -41 8 3 14 -1 14 -11 0 -10 -8 -16 -22 -15 -104
2 -151 -13 -196 -63 -9 -9 -19 -15 -24 -12 -4 3 -8 -1 -8 -9 0 -8 -9 -24 -20
-37 -11 -13 -23 -34 -26 -46 -3 -12 -13 -25 -22 -29 -14 -5 -14 -7 -2 -15 12
-8 12 -10 -4 -10 -13 0 -17 -5 -13 -20 3 -10 2 -18 -2 -17 -3 1 -7 -2 -8 -7 0
-5 -8 -13 -17 -18 -8 -5 -13 -15 -10 -23 4 -8 1 -15 -6 -15 -6 0 -8 -4 -5 -10
3 -5 1 -10 -5 -10 -6 0 -9 -4 -6 -9 3 -5 -1 -21 -9 -37 -7 -15 -12 -31 -9 -36
3 -5 0 -7 -8 -6 -8 2 -14 -9 -16 -30 -2 -19 -7 -30 -14 -26 -6 4 -8 -1 -3 -15
4 -13 2 -21 -5 -21 -7 0 -9 -7 -6 -16 4 -10 2 -13 -6 -8 -8 5 -9 2 -5 -9 3 -9
2 -19 -4 -22 -5 -4 -8 -14 -7 -23 2 -9 -2 -17 -9 -17 -6 0 -15 -4 -20 -9 -5
-5 -3 -6 4 -2 17 9 17 -6 1 -23 -8 -9 -8 -11 -2 -8 7 4 15 0 18 -9 3 -8 2 -13
-3 -10 -5 3 -11 -4 -14 -16 -5 -19 -8 -20 -23 -8 -14 12 -18 12 -30 -5 -12
-16 -12 -20 1 -28 8 -4 20 -5 27 -1 8 5 9 1 4 -12 -4 -10 -8 -23 -9 -29 -1 -5
-5 -12 -8 -15 -4 -3 -9 -16 -13 -30 -6 -19 -5 -21 3 -10 8 11 10 7 6 -18 -2
-19 -10 -39 -18 -45 -18 -15 -29 -57 -15 -57 7 0 7 -5 -1 -13 -6 -8 -7 -18 -3
-23 4 -5 5 -8 3 -7 -11 7 -32 -39 -26 -57 4 -11 2 -20 -4 -20 -6 0 -11 -6 -11
-14 0 -8 -6 -17 -12 -19 -8 -4 -7 -6 4 -6 9 -1 18 4 20 9 2 6 9 0 17 -12 13
-22 13 -22 -4 -8 -17 14 -18 13 -13 -13 4 -22 3 -25 -9 -16 -11 10 -12 8 -6
-6 5 -15 3 -17 -12 -12 -15 6 -16 5 -5 -8 7 -8 17 -12 24 -8 6 4 4 -1 -4 -11
-14 -18 -18 -31 -24 -71 -2 -13 -10 -19 -22 -18 -18 1 -18 1 -1 -12 11 -8 14
-16 8 -20 -8 -4 -9 -50 -1 -50 1 0 3 -8 5 -18 2 -10 -1 -14 -7 -10 -7 4 -9 -2
-6 -15 4 -12 3 -22 -1 -22 -3 0 -7 -51 -8 -112 -1 -62 0 -107 3 -101 3 7 58
54 122 105 333 262 672 586 918 878 147 174 134 141 133 336 -1 134 3 176 15
204 21 48 48 78 82 91 35 14 174 20 174 8 0 -16 29 -9 49 12 10 11 24 39 29
61 l10 40 -46 -7 c-81 -11 -120 -13 -132 -5 -12 7 -21 77 -34 258 l-5 74 82
87 c88 93 105 116 187 256 49 83 204 297 271 373 19 21 38 32 55 32 23 0 25
-3 20 -25 -4 -15 -2 -25 4 -25 6 0 8 -6 4 -12 -5 -9 -2 -8 10 1 15 13 18 12
23 -7 3 -12 10 -22 15 -22 6 0 5 -7 -2 -15 -11 -13 -10 -14 4 -9 9 3 16 1 16
-6 0 -7 8 -9 19 -5 14 4 23 0 31 -15 6 -11 7 -20 3 -20 -4 0 0 -5 9 -11 9 -5
16 -15 14 -22 -1 -6 -1 -9 1 -4 7 11 31 8 39 -5 5 -7 2 -9 -7 -3 -8 4 -1 -4
14 -18 16 -14 34 -28 40 -31 9 -5 9 -8 0 -12 -7 -3 -13 -10 -13 -15 0 -6 4 -8
9 -5 14 9 41 -5 41 -20 0 -8 8 -17 18 -21 20 -7 101 -93 102 -108 0 -6 9 -17
19 -25 11 -7 18 -17 15 -21 -2 -4 4 -10 14 -13 10 -3 26 -21 37 -38 10 -18 27
-41 37 -50 11 -9 19 -20 19 -25 0 -4 9 -18 19 -30 11 -13 17 -23 13 -23 -4 0
3 -7 15 -16 13 -9 21 -22 18 -30 -3 -7 -1 -16 5 -19 5 -4 7 -11 4 -16 -3 -5 0
-6 8 -3 8 3 18 0 23 -7 4 -8 3 -10 -4 -5 -7 4 -12 2 -12 -3 0 -6 5 -11 10 -11
6 0 10 -5 10 -11 0 -5 -6 -7 -12 -3 -7 4 -4 -2 6 -14 22 -26 28 -28 20 -7 -4
8 -1 15 6 15 6 0 9 -4 6 -9 -3 -5 3 -20 14 -34 11 -14 20 -28 20 -32 0 -3 18
-43 40 -89 27 -55 40 -95 39 -122 0 -21 2 -55 6 -74 3 -19 7 -52 8 -72 1 -21
4 -38 7 -38 11 0 5 -165 -5 -172 -7 -5 -6 -8 1 -8 10 0 10 -32 -2 -119 -3 -25
-7 -62 -10 -81 -2 -19 -6 -51 -9 -70 -3 -19 -6 -50 -7 -67 -1 -18 -4 -33 -8
-33 -3 0 -6 -9 -7 -20 -1 -11 2 -20 7 -20 5 0 2 -21 -6 -47 -9 -27 -16 -60
-17 -75 0 -16 -4 -28 -9 -28 -4 0 -3 -11 2 -25 6 -15 6 -26 0 -30 -5 -3 -8
-16 -6 -28 2 -12 -1 -29 -5 -37 -4 -8 -11 -36 -14 -62 -3 -27 -9 -48 -13 -48
-4 0 -7 -21 -8 -47 -2 -73 -8 -123 -16 -123 -4 0 -5 -7 -2 -15 4 -8 2 -15 -3
-15 -6 0 -9 -15 -8 -32 1 -18 -2 -36 -7 -39 -6 -4 -11 -19 -12 -35 -2 -16 -6
-38 -11 -49 -5 -16 -5 -17 4 -5 7 9 11 10 11 3 0 -6 -5 -15 -10 -18 -6 -4 -7
-11 -4 -17 4 -6 -1 -17 -11 -25 -11 -7 -14 -13 -9 -13 16 0 10 -37 -9 -58 -13
-15 -14 -21 -4 -32 9 -10 9 -11 0 -6 -9 5 -11 2 -7 -8 3 -9 1 -16 -6 -16 -6 0
-8 -4 -5 -10 3 -5 2 -10 -4 -10 -6 0 -9 -16 -8 -35 4 -40 12 -53 20 -30 4 8 1
15 -5 15 -7 0 -4 6 6 13 9 7 18 22 19 35 0 12 5 22 10 22 5 0 7 6 4 13 -2 6 1
19 9 27 7 8 14 21 16 29 4 17 30 51 39 51 3 0 5 -10 3 -23 -1 -12 -3 -26 -3
-30 -1 -5 -5 -6 -9 -3 -5 3 -6 -8 -4 -25 2 -16 0 -29 -5 -29 -5 0 -9 -8 -10
-17 0 -10 -11 -49 -22 -88 -12 -38 -24 -78 -26 -88 -9 -39 -17 -57 -25 -57 -5
0 -12 -21 -15 -47 -6 -43 -18 -77 -47 -136 -5 -10 -6 -22 -3 -27 4 -6 1 -10
-5 -10 -7 0 -10 -7 -6 -15 3 -8 0 -15 -6 -15 -6 0 -9 -3 -5 -6 3 -3 2 -17 -3
-30 -9 -22 -7 -24 23 -24 l32 0 59 173 c56 165 79 219 68 161 -4 -20 -2 -25 8
-19 8 5 11 4 7 -2 -3 -5 7 -24 22 -41 18 -19 25 -33 17 -36 -6 -2 -4 -5 5 -5
8 -1 26 -12 39 -26 14 -15 30 -23 39 -20 9 3 13 3 9 0 -9 -10 41 -55 61 -55
11 0 21 -7 25 -15 3 -8 11 -14 18 -13 7 2 12 -3 11 -9 -2 -7 6 -13 17 -13 11
0 25 -9 32 -20 7 -11 19 -20 26 -20 7 0 15 -7 18 -15 5 -12 10 -13 20 -4 10 8
19 7 36 -5 20 -14 124 -16 1000 -16 872 0 978 2 978 15 0 9 -6 18 -14 21 -8 3
-11 15 -8 29 2 14 -4 36 -17 53 -11 16 -18 32 -14 36 3 3 1 6 -5 6 -6 0 -9 7
-5 15 3 9 -2 24 -11 34 -9 10 -13 21 -9 24 3 4 1 7 -6 7 -7 0 -9 5 -6 10 3 6
0 10 -7 10 -7 0 -24 16 -38 34 -14 19 -27 32 -29 30 -2 -2 -21 10 -41 26 -21
17 -45 30 -54 30 -9 0 -16 4 -16 9 0 5 -8 8 -17 7 -10 -2 -21 1 -24 7 -4 6
-13 5 -25 -2 -16 -9 -16 -10 -3 -11 20 0 32 -37 15 -44 -6 -2 -4 -5 5 -5 9 -1
19 -7 22 -15 5 -11 0 -11 -24 2 -16 9 -29 20 -29 23 0 3 -11 4 -24 2 -19 -4
-27 1 -38 24 -8 15 -19 27 -26 26 -6 -2 -9 4 -6 12 4 8 1 15 -5 15 -6 0 -11 5
-11 10 0 6 9 10 20 10 28 0 25 14 -10 43 -16 14 -30 33 -30 41 0 9 -4 16 -8
16 -8 0 -35 46 -36 62 -1 3 -10 17 -21 30 -24 29 -43 57 -52 78 -3 8 -25 40
-48 70 -45 60 -62 85 -102 145 -14 22 -31 43 -37 47 -6 5 -7 8 -1 8 6 0 6 3
-1 8 -6 4 -25 33 -43 64 -18 32 -36 60 -42 63 -5 4 -9 13 -9 21 0 8 -11 31
-24 52 -14 20 -45 91 -71 157 -25 66 -50 130 -56 143 -5 13 -9 36 -9 51 0 33
13 27 -190 96 -310 106 -455 167 -565 241 -83 55 -173 135 -217 192 l-25 34
-1 -32 c0 -17 -10 -51 -22 -75 -12 -25 -18 -50 -14 -56 4 -7 3 -9 -3 -6 -12 8
-27 -38 -18 -53 4 -6 1 -10 -4 -10 -6 0 -11 -9 -11 -20 0 -11 -5 -20 -11 -20
-7 0 -9 -9 -6 -22 4 -12 2 -27 -2 -32 -5 -6 -11 -20 -13 -31 -3 -11 -8 30 -12
90 -10 153 -34 375 -50 470 -13 71 -78 333 -105 424 -6 19 -9 36 -7 38 1 2 31
-74 66 -169 60 -163 88 -226 76 -168 -3 14 -8 52 -11 85 -7 74 -12 110 -21
155 -4 19 -7 38 -6 42 1 4 -3 31 -9 60 -6 29 -12 64 -13 78 -1 14 -8 45 -15
69 -10 36 -10 46 2 58 12 12 10 22 -14 72 -36 76 -62 155 -57 178 2 10 22 28
45 41 l42 23 6 -38 c11 -72 67 -238 101 -303 41 -78 99 -156 137 -184 37 -27
136 -33 209 -12 73 21 136 77 148 131 9 41 0 134 -21 210 -24 92 -73 234 -100
294 -16 35 -28 65 -27 66 9 8 158 -19 201 -35 29 -11 53 -20 55 -20 11 0 -18
28 -69 65 -61 45 -64 55 -18 55 51 0 39 17 -24 35 -114 33 -456 28 -609 -9
-65 -16 -137 -13 -149 6 -5 7 -9 10 -9 6 0 -19 -40 34 -40 53 0 11 -4 18 -9
15 -5 -4 -7 3 -4 13 3 10 -3 32 -14 47 -10 16 -12 25 -5 21 15 -10 15 -12 -2
43 -7 25 -11 51 -9 58 3 6 1 12 -4 12 -18 0 -6 93 14 108 13 11 15 16 5 19
-10 4 -9 9 4 24 9 10 14 19 9 19 -4 0 -2 7 5 15 6 8 9 18 6 24 -3 5 0 12 6 14
10 4 10 6 1 6 -23 2 -1 31 22 31 34 0 55 10 55 27 0 11 -8 14 -29 11 -20 -3
-27 0 -24 8 3 7 1 20 -4 29 -5 8 -6 50 -2 93 5 42 10 104 14 137 8 90 44 282
65 354 11 36 17 68 14 73 -3 4 -1 8 4 8 8 0 24 45 38 110 11 48 8 140 -5 140
-5 0 -16 -11 -25 -25z m-102 -249 c-3 -9 -10 -16 -15 -16 -5 0 -4 9 3 20 14
22 21 20 12 -4z m-337 -888 c-3 -8 -6 -5 -6 6 -1 11 2 17 5 13 3 -3 4 -12 1
-19z m1078 -833 c29 -28 31 -42 10 -72 -28 -40 -109 -42 -155 -5 -31 25 -21
76 18 91 51 18 101 13 127 -14z m-575 -85 c0 -5 -5 -10 -11 -10 -5 0 -7 5 -4
10 3 6 8 10 11 10 2 0 4 -4 4 -10z m-1570 -490 c-18 -12 -30 -13 -30 -2 0 4
10 9 22 9 18 2 20 0 8 -7z m-50 -19 c-8 -5 -26 -12 -40 -15 l-25 -7 25 15 c14
9 32 15 40 15 13 0 13 -1 0 -8z m-407 -306 c-3 -9 -8 -14 -10 -11 -3 3 -2 9 2
15 9 16 15 13 8 -4z m1957 -1349 c0 -3 -4 -8 -10 -11 -5 -3 -10 -1 -10 4 0 6
5 11 10 11 6 0 10 -2 10 -4z m-26 -103 c-5 -45 -19 -62 -36 -45 -9 9 -9 12 1
12 9 0 11 8 7 26 -4 15 -3 23 3 20 5 -3 11 1 15 9 10 27 15 16 10 -22z m-114
-223 c0 -5 -2 -10 -4 -10 -3 0 -8 5 -11 10 -3 6 -1 10 4 10 6 0 11 -4 11 -10z"/>
<path d="M1405 5052 c-88 -14 -165 -36 -162 -45 2 -6 36 -12 76 -13 40 -2 80
-5 87 -8 9 -3 16 4 20 19 9 35 2 51 -21 47z"/>
<path d="M2036 4609 c3 -5 1 -9 -3 -9 -5 0 -9 -8 -10 -17 -10 -207 14 -500 53
-652 13 -51 24 -105 24 -120 0 -27 15 -59 24 -51 2 3 6 122 9 265 3 171 10
300 22 377 15 108 15 119 1 134 -14 14 -16 14 -16 0 0 -9 -4 -16 -10 -16 -5 0
-10 4 -10 10 0 5 -8 7 -17 3 -16 -6 -16 -4 2 16 11 12 15 21 10 20 -14 -3 -46
12 -41 20 2 3 -7 11 -20 18 -13 6 -22 7 -18 2z"/>
<path d="M2162 4560 c0 -14 2 -19 5 -12 2 6 2 18 0 25 -3 6 -5 1 -5 -13z"/>
<path d="M1986 4095 c-3 -8 -1 -15 4 -15 6 0 10 7 10 15 0 8 -2 15 -4 15 -2 0
-6 -7 -10 -15z"/>
<path d="M1896 4043 c-6 -14 -5 -15 5 -6 7 7 10 15 7 18 -3 3 -9 -2 -12 -12z"/>
<path d="M1915 4030 c-3 -5 -1 -10 4 -10 6 0 11 5 11 10 0 6 -2 10 -4 10 -3 0
-8 -4 -11 -10z"/>
<path d="M1915 4000 c-3 -5 -1 -10 4 -10 6 0 11 5 11 10 0 6 -2 10 -4 10 -3 0
-8 -4 -11 -10z"/>
<path d="M5486 3425 c-3 -9 -6 -26 -5 -38 1 -14 4 -9 9 13 9 37 7 52 -4 25z"/>
<path d="M5431 3314 c0 -11 3 -14 6 -6 3 7 2 16 -1 19 -3 4 -6 -2 -5 -13z"/>
<path d="M5505 3320 c-6 -10 51 -50 73 -50 26 0 10 32 -23 46 -41 17 -42 17
-50 4z"/>
<path d="M5411 3284 c0 -11 3 -14 6 -6 3 7 2 16 -1 19 -3 4 -6 -2 -5 -13z"/>
<path d="M5447 3223 c-4 -3 -7 -10 -7 -14 0 -11 54 -39 75 -39 28 0 16 26 -20
43 -41 19 -39 19 -48 10z"/>
<path d="M1799 3173 c-1 -21 -3 -48 -4 -60 -2 -15 2 -20 12 -16 9 3 13 14 10
25 -3 11 0 21 9 25 11 4 11 9 -2 34 -19 38 -24 37 -25 -8z"/>
<path d="M2036 3183 c-6 -14 -5 -15 5 -6 7 7 10 15 7 18 -3 3 -9 -2 -12 -12z"/>
<path d="M2832 2867 c-22 -23 -29 -47 -14 -47 18 0 56 50 46 60 -7 7 -18 3
-32 -13z"/>
<path d="M2917 2782 c-30 -31 -34 -42 -14 -42 21 0 62 49 51 60 -7 7 -19 1
-37 -18z"/>
<path d="M2610 2481 c0 -6 4 -13 10 -16 6 -3 7 1 4 9 -7 18 -14 21 -14 7z"/>
<path d="M4273 1909 c-6 -8 -13 -25 -14 -39 -5 -52 1 -70 24 -75 26 -7 100 21
92 35 -3 6 -1 18 4 27 8 14 11 15 11 3 0 -11 3 -10 11 4 16 27 -7 45 -67 52
-36 5 -53 2 -61 -7z"/>
<path d="M6435 1500 c-3 -5 3 -10 14 -10 12 0 21 5 21 10 0 6 -6 10 -14 10 -8
0 -18 -4 -21 -10z"/>
<path d="M2186 935 c4 -8 8 -15 10 -15 2 0 4 7 4 15 0 8 -4 15 -10 15 -5 0 -7
-7 -4 -15z"/>
<path d="M2140 691 c0 -6 4 -11 9 -11 5 0 12 -8 14 -17 4 -15 5 -15 6 -2 0 9
-6 22 -14 29 -10 9 -15 9 -15 1z"/>
<path d="M900 584 c-30 -8 -84 -21 -120 -28 -36 -7 -71 -16 -78 -20 -6 -4 -58
-14 -114 -22 -143 -21 -225 -41 -283 -69 -55 -26 -107 -64 -88 -65 6 0 18 6
25 13 16 16 77 47 92 47 6 -1 -1 -8 -16 -16 -16 -8 -28 -19 -28 -25 0 -6 -4
-8 -9 -5 -5 3 -29 -5 -55 -19 -25 -13 -86 -34 -136 -47 l-90 -22 0 -153 0
-153 121 1 c90 0 122 4 125 14 4 8 18 12 40 10 38 -3 42 1 16 22 -16 13 -16
14 2 5 20 -10 59 -4 51 7 -6 11 28 10 42 -1 7 -5 14 -5 18 2 3 5 13 10 21 10
9 0 12 -5 8 -12 -5 -8 -2 -9 12 -3 10 4 27 8 37 9 9 0 17 6 17 14 0 8 5 10 12
6 7 -5 28 -8 48 -9 21 -1 34 -6 32 -13 -1 -7 5 -12 13 -12 9 0 12 -6 9 -15 -5
-11 -2 -13 10 -9 11 4 16 2 14 -7 -3 -12 75 -14 466 -17 l468 -2 -8 27 c-4 16
-9 46 -10 68 -1 22 -6 51 -12 65 -5 14 -7 31 -4 39 3 9 0 11 -8 6 -8 -5 -11
-1 -9 11 2 11 -3 29 -9 42 -7 12 -10 27 -7 32 4 6 -1 13 -10 16 -10 4 -13 9
-6 13 6 4 8 17 4 29 -3 12 -9 20 -13 17 -5 -3 -11 -1 -15 4 -3 5 3 15 12 21
16 9 15 10 -5 5 -21 -6 -22 -4 -17 22 5 21 4 24 -4 13 -9 -13 -11 -12 -11 3 0
10 -5 15 -10 12 -6 -3 -13 1 -16 9 -8 20 -65 38 -107 35 -26 -3 -44 5 -74 29
-72 57 -139 82 -218 81 -38 0 -95 -7 -125 -15z"/>
<path d="M2473 434 c-6 -13 -8 -24 -5 -24 13 0 28 15 27 27 0 22 -10 21 -22
-3z"/>
<path d="M4571 446 c-7 -8 -11 -21 -8 -28 3 -7 6 -4 6 7 1 18 3 17 14 -5 14
-29 47 -40 47 -16 0 9 -6 16 -13 16 -8 0 -18 9 -23 21 -9 19 -11 20 -23 5z
m44 -44 c-3 -3 -11 0 -18 7 -9 10 -8 11 6 5 10 -3 15 -9 12 -12z"/>
<path d="M6376 429 c-11 -11 -17 -21 -14 -24 2 -3 13 4 23 15 24 26 16 33 -9
9z"/>
<path d="M6380 389 c0 -9 31 -69 35 -69 3 0 2 8 -2 18 -7 19 -33 59 -33 51z"/>
<path d="M2441 343 c0 -17 -7 -33 -13 -36 -7 -2 -10 -8 -6 -11 3 -4 16 2 27
13 12 12 17 21 12 21 -5 0 -12 10 -14 23 -3 16 -5 14 -6 -10z"/>
<path d="M6435 310 c3 -5 8 -10 11 -10 2 0 4 5 4 10 0 6 -5 10 -11 10 -5 0 -7
-4 -4 -10z"/>
<path d="M2416 259 c-11 -11 -15 -19 -9 -19 12 0 38 28 32 34 -2 2 -13 -5 -23
-15z"/>
<path d="M550 56 c0 -2 7 -7 16 -10 8 -3 12 -2 9 4 -6 10 -25 14 -25 6z"/>
<path d="M340 31 c0 -5 9 -7 20 -4 11 3 20 7 20 9 0 2 -9 4 -20 4 -11 0 -20
-4 -20 -9z"/>
<path d="M270 10 c-9 -6 -10 -10 -3 -10 6 0 15 5 18 10 8 12 4 12 -15 0z"/>
</g>
</svg>
