<?xml version="1.0" standalone="no"?>
<!DOCTYPE svg PUBLIC "-//W3C//DTD SVG 20010904//EN"
 "http://www.w3.org/TR/2001/REC-SVG-20010904/DTD/svg10.dtd">
<svg version="1.0" xmlns="http://www.w3.org/2000/svg"
 width="774.000000pt" height="774.000000pt" viewBox="0 0 774.000000 774.000000"
 preserveAspectRatio="xMidYMid meet">
<metadata>
Created by potrace 1.14, written by Peter Selinger 2001-2017
</metadata>
<g transform="translate(0.000000,774.000000) scale(0.100000,-0.100000)"
fill="#000000" stroke="none">
<path d="M5226 7724 c-3 -9 -6 -37 -6 -64 0 -62 -27 -310 -46 -425 -17 -103
-46 -198 -82 -270 -55 -111 -248 -323 -364 -399 -55 -37 -57 -37 -82 -21 -24
16 -29 16 -76 1 -37 -12 -56 -14 -70 -6 -10 5 -31 10 -46 10 -22 0 -52 25
-153 132 -144 150 -371 344 -517 441 -281 184 -728 373 -1094 462 -131 31
-153 31 -236 0 -255 -96 -737 -429 -1172 -810 -614 -538 -874 -800 -1249
-1264 l-33 -40 0 -431 c0 -342 3 -431 13 -427 6 2 86 50 177 105 91 55 185
113 210 128 124 76 679 447 780 522 249 186 470 405 712 707 115 144 299 417
376 557 24 42 51 87 61 100 l19 23 134 -34 c118 -29 346 -106 643 -216 120
-44 323 -97 476 -125 62 -11 114 -22 116 -23 2 -2 -47 -23 -109 -47 -241 -92
-448 -214 -578 -339 -82 -79 -78 -82 16 -11 235 179 705 320 1125 337 154 6
156 6 212 -21 31 -14 69 -26 85 -26 38 0 89 18 95 34 4 10 22 11 79 4 40 -5
85 -7 100 -4 28 6 144 -24 277 -71 237 -84 562 -311 737 -513 43 -49 79 -90
81 -90 8 0 -53 106 -139 242 -78 124 -104 156 -163 204 -132 107 -313 217
-428 259 -26 10 -45 20 -43 23 3 2 39 19 81 37 145 63 314 177 389 263 154
176 342 548 414 822 26 98 62 254 62 269 0 8 -103 11 -389 11 -345 0 -390 -2
-395 -16z"/>
<path d="M6640 7675 c19 -19 36 -35 39 -35 3 0 -10 16 -29 35 -19 19 -36 35
-39 35 -3 0 10 -16 29 -35z"/>
<path d="M6718 7585 c17 -22 50 -60 72 -85 40 -43 40 -43 11 -5 -17 22 -49 60
-72 85 -39 43 -40 43 -11 5z"/>
<path d="M6830 7447 c0 -2 23 -29 51 -58 l51 -54 -42 52 c-39 49 -60 70 -60
60z"/>
<path d="M6952 7304 c76 -103 373 -444 385 -444 3 0 -15 24 -41 53 -26 28 -96
111 -157 182 -126 148 -222 255 -187 209z"/>
<path d="M6557 7005 c-29 -40 -67 -55 -113 -45 -91 22 -103 9 -54 -58 17 -23
30 -46 30 -51 0 -6 -11 -27 -25 -47 -14 -20 -25 -45 -25 -56 0 -17 6 -18 73
-12 l74 6 21 -36 c32 -54 56 -46 60 20 3 50 3 50 62 83 33 18 60 34 60 37 0 2
-24 20 -53 38 -50 32 -54 38 -66 90 -7 31 -15 56 -19 56 -4 0 -15 -12 -25 -25z
m55 -134 c36 -13 36 -28 -2 -49 -23 -13 -30 -24 -30 -49 0 -42 -12 -48 -40
-18 -18 19 -34 25 -67 25 -47 0 -51 5 -27 39 13 18 14 28 5 47 -19 43 -14 53
22 48 27 -5 37 0 62 26 l30 32 9 -46 c8 -37 14 -47 38 -55z"/>
<path d="M532 6991 c-8 -5 -11 -17 -7 -32 4 -17 -3 -38 -26 -72 -17 -26 -29
-51 -25 -54 4 -4 23 -16 43 -27 24 -14 40 -33 48 -55 6 -19 17 -37 23 -39 6
-2 27 13 47 32 28 29 43 36 74 36 21 0 41 3 44 7 4 3 -3 22 -15 41 -21 33 -26
82 -12 124 5 18 2 19 -56 12 -54 -6 -63 -4 -81 15 -21 22 -36 26 -57 12z m158
-68 c0 -1 -5 -14 -12 -27 -9 -21 -8 -29 5 -44 26 -28 22 -45 -8 -38 -19 5 -31
0 -49 -19 l-24 -26 -10 29 c-7 22 -18 31 -43 36 l-33 6 27 26 c15 13 27 33 27
42 0 15 9 18 60 17 33 0 60 -1 60 -2z"/>
<path d="M7345 6816 c-106 -110 -195 -295 -230 -479 -22 -117 -17 -135 9 -32
22 84 30 110 71 223 20 57 54 122 71 140 8 7 14 17 14 22 0 18 62 41 116 43
30 1 54 7 54 12 0 6 -19 29 -42 51 l-43 41 -20 -21z"/>
<path d="M7530 6646 c0 -8 7 -16 15 -18 12 -2 2 -19 -35 -63 -58 -68 -103
-141 -98 -156 2 -6 27 20 56 57 28 38 65 85 81 104 27 31 30 33 31 14 0 -17 6
-22 25 -20 23 1 22 3 -22 49 -26 26 -49 47 -50 47 -2 0 -3 -6 -3 -14z"/>
<path d="M7710 6485 c27 -29 30 -30 30 -12 0 6 -12 18 -27 24 l-26 13 23 -25z"/>
<path d="M7254 6455 c-3 -14 -3 -33 1 -42 5 -15 9 -12 20 15 16 36 29 41 44
15 12 -23 22 -13 14 15 -4 17 -13 22 -39 22 -28 0 -35 -5 -40 -25z"/>
<path d="M2860 6342 c-148 -99 -265 -201 -503 -435 -110 -108 -153 -144 -159
-135 -7 10 -8 9 -6 -2 2 -9 -28 -45 -66 -80 -86 -81 -180 -193 -276 -330 -41
-58 -77 -107 -80 -110 -9 -7 -32 -50 -27 -50 3 0 37 44 78 98 40 53 75 99 79
102 3 3 13 14 21 26 25 36 131 156 208 234 l73 75 -26 -50 c-30 -56 -24 -51
60 54 80 101 317 344 417 429 70 59 231 179 293 219 11 6 15 12 9 12 -5 0 -48
-25 -95 -57z"/>
<path d="M7272 6288 c-17 -17 -15 -43 5 -59 12 -10 15 -10 9 -1 -4 7 -4 21 -1
32 5 15 12 18 36 13 31 -6 41 10 13 21 -25 9 -49 7 -62 -6z"/>
<path d="M7447 6288 c-18 -10 -23 -53 -7 -63 5 -3 7 0 4 8 -3 8 2 20 11 27 14
11 20 11 37 1 17 -10 19 -10 16 5 -4 22 -39 35 -61 22z"/>
<path d="M2724 6017 c-85 -88 -155 -174 -244 -302 -218 -312 -507 -757 -482
-741 4 2 38 49 75 103 90 130 106 152 107 133 0 -8 29 37 63 100 177 320 347
558 551 768 33 34 58 62 54 62 -3 0 -59 -55 -124 -123z"/>
<path d="M7623 6036 c-125 -68 -131 -73 -103 -72 17 1 35 -30 103 -179 46 -99
90 -193 100 -210 30 -55 18 -7 -19 72 -86 185 -144 317 -144 329 0 7 39 33 88
59 94 51 97 53 91 58 -2 2 -54 -24 -116 -57z"/>
<path d="M7270 6010 c-13 -8 -12 -10 3 -10 9 0 17 5 17 10 0 12 -1 12 -20 0z"/>
<path d="M5084 5801 c22 -42 99 -234 99 -248 0 -7 6 -14 13 -17 10 -4 7 11 -7
52 -27 74 -106 242 -114 242 -3 0 1 -13 9 -29z"/>
<path d="M2389 5743 l-24 -28 28 24 c25 23 32 31 24 31 -2 0 -14 -12 -28 -27z"/>
<path d="M2813 5608 c-65 -83 -125 -173 -153 -228 -29 -59 -22 -51 42 45 29
44 80 117 112 163 32 45 55 82 53 82 -3 0 -27 -28 -54 -62z"/>
<path d="M3752 5593 c-133 -208 -247 -484 -333 -808 -22 -82 -42 -151 -44
-153 -13 -13 -35 11 -35 37 0 75 112 467 171 598 35 78 37 93 5 37 -32 -56
-82 -193 -180 -487 l-53 -158 -133 -5 c-129 -4 -132 -4 -127 16 3 11 2 22 -2
25 -13 8 32 196 78 329 12 33 21 60 21 61 0 1 -6 2 -14 2 -8 0 -15 -3 -14 -6
3 -27 -4 -62 -15 -73 -17 -18 -59 -161 -59 -204 0 -19 -4 -34 -8 -34 -4 0 -13
-30 -20 -66 -10 -51 -17 -67 -34 -74 -32 -12 -36 0 -20 60 8 30 14 61 13 70 0
19 -39 -99 -39 -120 0 -9 -16 -22 -35 -29 -40 -14 -38 -35 2 -25 21 6 24 4 20
-12 -7 -24 -34 -172 -52 -284 -34 -207 -60 -701 -60 -1116 l0 -312 -22 82
c-61 217 -105 547 -123 911 l-8 170 3 -225 c5 -271 38 -544 101 -830 33 -151
34 -155 44 -140 6 9 9 9 15 0 9 -14 66 -333 60 -338 -7 -7 -64 116 -124 266
-55 136 -115 317 -155 469 -27 100 -56 344 -64 538 -6 160 -8 171 -13 100 -11
-132 -2 -403 15 -515 21 -130 87 -474 92 -479 2 -2 13 4 25 14 17 17 22 17 29
5 6 -8 10 -23 10 -33 0 -9 4 -25 10 -35 5 -9 39 -84 75 -166 36 -83 72 -157
80 -166 8 -9 15 -24 15 -32 0 -23 -138 -149 -232 -212 -89 -60 -89 -61 -8 -46
54 10 99 42 215 153 27 25 47 36 61 34 15 -3 20 1 17 12 -2 9 11 31 30 49 39
38 36 40 91 -59 l37 -67 -93 -61 c-88 -58 -95 -61 -137 -55 -26 4 -41 3 -38
-2 3 -5 -1 -36 -8 -69 -8 -33 -19 -94 -25 -135 -7 -41 -29 -135 -51 -209 -54
-186 -61 -237 -43 -309 8 -31 22 -70 30 -86 7 -16 14 -30 14 -32 0 -1 -51 0
-113 3 -127 6 -212 -5 -327 -43 -176 -59 -352 -175 -515 -339 -165 -165 -295
-305 -295 -317 0 -5 -6 -8 -12 -5 -8 2 -12 16 -10 33 3 21 1 26 -8 18 -13 -13
-16 -42 -6 -65 5 -11 -17 -47 -69 -114 -42 -53 -73 -96 -68 -94 4 2 52 25 105
52 54 26 109 47 123 47 33 0 112 28 144 50 14 10 78 33 141 50 203 57 383 133
498 212 52 35 204 182 219 212 9 17 14 16 63 -18 29 -20 63 -39 76 -42 13 -3
24 -9 24 -13 0 -4 -15 -43 -34 -87 -81 -191 -116 -387 -123 -686 l-6 -218 192
0 c151 0 198 3 221 15 49 25 103 140 81 173 -5 9 -10 0 -15 -28 -4 -23 -13
-55 -21 -70 -17 -33 -71 -60 -117 -59 -18 0 -27 3 -20 6 6 2 12 8 12 13 0 4
39 88 86 186 165 341 207 490 193 671 -8 94 -29 153 -73 202 -20 23 -20 24 -1
17 119 -43 310 -32 732 42 100 17 103 19 132 57 17 22 31 44 31 48 0 5 -35 6
-77 3 -202 -15 -281 -16 -453 -6 -173 9 -528 44 -559 55 -9 4 -6 11 14 27 30
24 38 24 410 -8 221 -18 546 -14 666 9 l67 12 98 126 c55 70 125 159 158 198
32 39 56 74 53 77 -12 12 -434 -66 -682 -126 -181 -44 -519 -163 -702 -247
-18 -8 -37 -13 -43 -11 -33 11 397 479 451 493 14 3 37 1 53 -4 15 -6 47 -11
71 -11 42 0 45 2 106 78 34 42 68 84 75 92 11 13 1 26 -74 90 -47 41 -119 103
-159 138 -44 38 -73 57 -73 48 0 -16 -261 -177 -289 -179 -27 -1 -151 47 -151
59 0 9 149 104 164 104 2 0 14 -16 25 -36 28 -46 36 -39 17 14 -17 47 -21 41
72 97 l64 37 -34 35 -33 34 -3 -25 c-2 -16 -20 -39 -46 -61 -49 -40 -56 -42
-56 -17 0 9 -12 51 -25 92 -31 92 -31 98 0 106 14 3 25 8 25 10 0 2 -21 30
-46 60 -46 57 -93 147 -95 181 0 10 -3 13 -5 6 -7 -17 18 -111 76 -290 28 -84
50 -158 50 -165 -1 -18 -32 41 -80 152 -23 52 -46 104 -51 115 -5 11 -25 70
-45 130 -37 114 -58 265 -36 265 14 0 19 -8 48 -88 l25 -67 -6 80 c-8 100 -37
303 -72 500 -30 163 -33 264 -13 369 12 66 24 75 33 26 4 -26 10 133 7 230 -2
122 35 488 54 518 8 14 46 16 46 4 0 -5 -7 -60 -15 -123 -8 -62 -18 -179 -21
-259 -4 -80 -11 -153 -16 -164 -7 -13 -6 -21 3 -26 10 -7 10 -20 0 -67 -16
-76 -17 -116 -3 -182 7 -29 13 -74 13 -100 2 -42 2 -40 9 19 17 138 86 298
147 337 26 18 100 22 123 8 6 -4 -8 -19 -33 -35 -26 -16 -51 -42 -61 -65 -23
-48 -38 -214 -30 -322 7 -85 17 -100 44 -68 18 22 49 15 73 -16 18 -26 18 -28
2 -63 -17 -34 -17 -39 0 -81 20 -55 57 -85 102 -85 53 0 91 26 134 92 37 58
39 60 39 30 0 -42 -37 -134 -67 -166 -31 -33 -62 -46 -114 -46 -80 0 -119 44
-135 152 -8 51 -19 68 -45 68 -15 0 -18 -5 -15 -22 3 -13 15 -76 27 -140 17
-91 26 -119 40 -123 19 -6 175 11 230 25 50 14 67 36 100 135 36 106 59 280
54 406 -3 80 -8 106 -31 155 -33 69 -104 143 -181 186 l-55 31 5 51 c3 28 3
71 -2 96 -7 43 -7 40 -15 -43 -8 -85 -9 -89 -29 -83 -91 26 -127 29 -184 11
-32 -9 -65 -19 -75 -21 -18 -5 -18 3 3 311 14 211 11 202 70 214 58 13 119 14
119 3 0 -4 21 -5 47 -3 39 3 45 1 40 -13 -15 -39 -88 -347 -85 -357 2 -6 19
40 38 103 19 62 45 140 57 173 l23 60 -5 -130 c-5 -152 -1 -147 19 24 9 68 18
126 20 129 3 2 13 2 22 -2 13 -5 15 -14 11 -44 -4 -20 -9 -53 -12 -72 l-5 -35
10 33 c6 17 14 47 18 65 6 25 13 32 32 32 l25 0 -4 -145 c-2 -80 0 -142 5
-137 4 4 10 64 13 134 4 78 10 128 17 130 6 2 39 -15 72 -38 71 -47 72 -48 47
-189 -21 -122 -17 -121 15 4 16 60 32 112 37 115 4 3 9 19 10 35 1 16 6 33 12
39 5 5 11 -32 15 -100 10 -153 26 -312 36 -353 8 -29 9 -26 4 20 -28 304 -30
453 -9 651 19 183 58 363 120 554 5 15 4 16 -3 5 -12 -19 -95 -275 -117 -360
-9 -36 -25 -97 -35 -136 -10 -39 -26 -120 -36 -180 -10 -60 -21 -113 -26 -118
-4 -6 -15 -3 -25 6 -10 9 -42 28 -70 42 -29 14 -53 31 -53 36 0 43 46 314 65
387 59 219 158 458 255 621 48 80 28 62 -28 -25z m-307 -930 c-7 -46 -14 -56
-33 -44 -8 5 -6 25 10 76 19 59 23 65 26 41 2 -17 1 -49 -3 -73z m85 -928 c0
-8 -4 -15 -10 -15 -5 0 -10 7 -10 15 0 8 5 15 10 15 6 0 10 -7 10 -15z m-639
-1046 c56 -151 56 -155 29 -184 -13 -14 -28 -24 -34 -22 -12 4 -32 118 -42
232 -8 99 4 93 47 -26z m2 -513 c12 -12 12 -26 -1 -103 -10 -62 -16 -179 -17
-396 -2 -279 -4 -310 -20 -327 -38 -43 -42 -29 -49 189 -9 240 3 484 30 624 6
30 33 36 57 13z m297 -399 c0 -2 -10 -12 -22 -23 l-23 -19 19 23 c18 21 26 27
26 19z"/>
<path d="M5122 5600 c5 -17 14 -33 19 -36 12 -7 11 -2 -7 34 -20 40 -26 41
-12 2z"/>
<path d="M3320 5563 c-59 -99 -101 -186 -130 -262 -17 -46 -29 -85 -28 -87 2
-1 21 37 42 84 22 48 63 135 93 195 54 108 64 139 23 70z"/>
<path d="M7645 5424 c-27 -13 -53 -25 -56 -26 -4 -2 -10 -13 -14 -26 l-7 -23
39 25 c21 13 57 31 81 38 23 7 41 17 39 23 -6 17 -31 14 -82 -11z"/>
<path d="M6641 5359 c-16 -32 -29 -48 -38 -45 -11 5 -11 1 -2 -15 10 -20 12
-19 35 21 22 39 41 91 33 90 -2 -1 -15 -23 -28 -51z"/>
<path d="M2990 5360 c-11 -22 -18 -40 -15 -40 2 0 14 18 25 40 11 22 18 40 15
40 -2 0 -14 -18 -25 -40z"/>
<path d="M4823 5310 c0 -41 2 -58 4 -37 2 20 2 54 0 75 -2 20 -4 3 -4 -38z"/>
<path d="M6334 5317 c2 -38 8 -73 15 -80 13 -13 13 -6 -8 103 -8 42 -9 40 -7
-23z"/>
<path d="M6890 5365 c0 -16 51 -103 64 -108 9 -4 3 12 -15 38 -16 23 -29 48
-29 53 0 6 -4 14 -10 17 -5 3 -10 4 -10 0z"/>
<path d="M2940 5269 c-7 -11 -10 -23 -7 -25 2 -2 9 7 15 21 14 30 7 33 -8 4z"/>
<path d="M2900 5183 c-63 -140 -133 -341 -169 -488 -25 -100 -55 -275 -48
-281 3 -3 10 26 16 63 35 199 119 489 192 657 22 49 37 91 35 94 -2 2 -14 -18
-26 -45z"/>
<path d="M1698 5173 c-8 -10 -29 -43 -46 -73 -34 -62 -182 -380 -182 -392 0
-5 36 63 80 151 44 87 99 187 122 222 62 95 69 109 54 109 -7 0 -20 -8 -28
-17z"/>
<path d="M2166 5175 c-9 -26 -7 -32 5 -12 6 10 9 21 6 23 -2 3 -7 -2 -11 -11z"/>
<path d="M5310 5140 c1 -30 5 -86 10 -125 12 -81 27 -232 36 -358 5 -57 11
-86 18 -84 19 6 18 73 -3 245 -12 92 -26 210 -33 262 -13 108 -28 141 -28 60z"/>
<path d="M6095 5160 c9 -16 18 -30 21 -30 2 0 -2 14 -11 30 -9 17 -18 30 -21
30 -2 0 2 -13 11 -30z"/>
<path d="M2498 5067 c-31 -61 -72 -155 -91 -207 -40 -107 -91 -289 -84 -297 3
-2 8 11 12 29 25 112 129 388 200 529 15 28 25 53 22 55 -2 2 -29 -47 -59
-109z"/>
<path d="M4821 5050 c-2 -179 -39 -571 -54 -586 -2 -2 -32 -7 -66 -10 l-63 -7
7 119 c4 65 5 117 2 114 -5 -5 -26 -103 -41 -191 -5 -29 -13 -40 -37 -49 -18
-8 -34 -9 -39 -4 -8 8 22 264 35 301 2 7 0 15 -4 18 -9 5 -21 -54 -41 -195 -6
-41 -16 -93 -22 -115 -6 -22 -13 -53 -14 -70 -2 -16 -15 -122 -29 -235 -32
-267 -43 -382 -34 -372 4 4 13 45 19 92 6 47 15 89 19 93 10 10 35 -156 27
-181 -4 -10 -24 -27 -46 -37 -41 -18 -59 -44 -39 -56 8 -5 6 -16 -10 -38 -12
-17 -25 -31 -27 -31 -3 0 -4 80 -3 178 3 221 16 345 79 747 38 243 43 281 35
273 -20 -20 -133 -659 -155 -877 -10 -98 -12 -364 -3 -311 9 50 22 41 29 -20
l7 -62 14 32 c13 32 14 32 28 14 14 -18 14 -18 15 3 0 24 34 53 63 53 10 0 37
13 60 29 50 34 122 71 138 71 6 0 -2 -15 -19 -34 -36 -42 -66 -118 -98 -255
-25 -104 -25 -123 -2 -103 23 19 65 18 87 -2 26 -24 26 -38 -1 -84 -27 -49
-19 -99 25 -149 82 -94 244 -100 354 -13 63 49 57 7 -9 -65 -84 -93 -154 -117
-257 -91 -86 22 -136 50 -166 93 -21 32 -25 49 -25 114 0 63 -3 79 -20 94 -18
17 -19 16 -24 -6 -15 -66 -25 -233 -15 -245 29 -35 294 -144 349 -144 28 0
136 75 209 144 111 107 191 235 210 341 14 75 14 78 -4 72 -8 -4 -17 -2 -21 4
-3 6 4 13 16 16 19 5 21 12 18 48 -4 53 7 48 38 -19 52 -111 17 -317 -124
-740 -27 -79 -46 -119 -68 -140 -69 -70 -270 -160 -445 -201 l-64 -15 53 5
c29 2 97 18 153 36 55 17 103 28 106 25 4 -3 -4 -19 -18 -34 -14 -16 -10 -14
8 5 18 17 56 48 85 67 29 19 68 47 86 62 37 31 52 28 22 -4 -15 -16 -17 -22
-7 -22 8 0 51 31 95 69 68 59 82 68 93 55 20 -24 3 -83 -57 -201 -60 -119
-126 -206 -319 -425 -156 -177 -406 -482 -510 -623 -49 -66 -108 -144 -131
-173 -74 -90 -196 -292 -191 -313 3 -10 1 -17 -4 -13 -5 3 -9 0 -9 -5 0 -6
-11 -34 -25 -63 -14 -28 -25 -58 -25 -65 0 -7 -4 -13 -8 -13 -9 0 -48 -81 -44
-92 1 -5 -3 -8 -8 -8 -6 0 -10 -7 -10 -15 0 -8 -4 -15 -10 -15 -5 0 -10 -8
-10 -19 0 -10 -7 -24 -15 -31 -8 -7 -15 -17 -15 -22 0 -6 -11 -32 -25 -60 -14
-27 -25 -58 -25 -67 0 -10 -11 -30 -25 -45 -14 -15 -25 -35 -25 -44 0 -10 -9
-35 -20 -57 -11 -22 -20 -45 -20 -52 0 -8 -7 -16 -15 -19 -8 -4 -13 -10 -10
-14 3 -5 1 -11 -4 -15 -6 -3 -7 -13 -4 -22 4 -9 2 -14 -3 -11 -5 4 -21 -23
-36 -58 -19 -46 -23 -64 -14 -64 8 0 23 22 35 50 12 27 26 50 31 50 5 0 6 7 3
17 -4 11 -3 14 5 9 12 -7 17 11 13 43 -2 7 2 10 8 7 5 -4 13 4 17 16 3 13 17
45 30 72 13 28 24 57 24 65 0 22 242 491 290 564 22 32 40 64 40 69 0 6 16 36
35 68 19 32 35 63 35 70 0 7 6 10 13 7 8 -3 14 1 14 8 0 6 26 53 57 103 49 76
64 93 95 103 77 25 242 94 383 160 203 94 233 102 383 98 68 -2 126 -1 129 2
4 3 -19 26 -49 49 -31 24 -61 52 -67 63 -13 24 -3 244 17 391 12 84 18 103 42
128 15 16 36 34 45 39 16 9 17 7 7 -18 -6 -15 -20 -44 -31 -63 l-21 -35 27 25
c15 14 92 122 171 240 78 118 157 231 174 250 l31 35 -16 -40 c-22 -54 -96
-202 -183 -364 -39 -74 -70 -136 -67 -138 19 -20 269 458 342 652 18 49 49
131 68 180 39 100 46 135 21 115 -8 -7 -15 -17 -15 -22 0 -17 -114 -250 -118
-240 -1 5 13 41 32 80 20 38 36 72 36 75 0 4 12 31 26 61 20 42 70 175 98 261
2 6 6 17 9 25 52 125 179 592 165 605 -2 3 -17 -48 -32 -113 -16 -64 -57 -204
-92 -311 -35 -106 -66 -204 -69 -218 -2 -14 -9 -30 -14 -37 -6 -7 -8 -16 -4
-19 3 -4 2 -7 -4 -7 -5 0 -30 -44 -53 -97 -86 -194 -234 -471 -327 -613 -91
-137 -191 -278 -221 -309 -7 -8 -20 -24 -29 -37 -24 -38 -35 -28 -15 13 27 53
107 283 133 378 12 44 42 125 66 180 156 346 260 741 318 1205 9 69 11 73 38
59 l22 -12 -22 25 c-13 13 -23 30 -23 36 0 7 -6 12 -13 12 -7 0 -39 22 -72 48
-33 27 -99 74 -146 105 l-87 57 -7 100 c-6 80 -10 100 -22 100 -13 0 -15 -14
-11 -90 3 -49 4 -90 3 -90 -1 0 -29 12 -61 26 -33 14 -81 35 -109 47 -73 31
-81 41 -112 131 l-28 81 -3 -83 c-3 -76 -4 -82 -21 -73 -15 9 -20 33 -30 153
-20 231 -41 402 -51 412 -5 5 -7 -96 -3 -267 5 -257 4 -277 -12 -283 -10 -4
-25 -3 -34 3 -17 11 -20 29 -41 243 -6 63 -20 194 -30 290 l-18 175 -1 -105z
m44 -459 c10 -81 13 -127 6 -134 -16 -16 -81 1 -81 21 0 9 9 71 20 137 11 66
20 125 20 130 3 31 20 -46 35 -154z m-150 -161 c5 -8 11 -7 21 1 25 21 32 -3
22 -74 -5 -38 -7 -74 -5 -80 2 -7 7 13 11 43 15 117 11 111 69 108 49 -3 52
-5 56 -33 l4 -30 6 29 c7 35 23 43 45 21 12 -12 16 -37 17 -93 1 -57 3 -69 9
-47 4 17 8 54 9 83 1 45 4 53 18 50 12 -2 21 -21 30 -63 l12 -60 -4 52 c-4 53
9 79 26 52 5 -8 9 -99 9 -204 0 -104 6 -228 13 -275 12 -77 12 -61 9 180 -3
146 -2 274 0 285 8 32 52 -76 108 -259 27 -89 49 -155 50 -147 0 13 -41 170
-81 312 -11 36 -19 71 -19 78 0 19 16 12 28 -11 8 -18 11 -19 11 -5 1 9 3 17
6 17 3 0 46 -20 95 -45 l90 -45 0 -213 c0 -146 4 -226 14 -256 12 -43 13 -41
19 94 4 76 7 185 7 242 0 56 2 103 4 103 30 0 273 -165 281 -191 10 -31 -83
-515 -135 -703 -53 -189 -182 -484 -267 -611 -48 -71 -156 -189 -146 -160 3
11 9 25 13 30 27 40 136 408 166 560 18 98 33 138 34 93 0 -50 17 -38 45 33
l29 70 -22 62 c-11 34 -19 63 -17 65 2 2 15 -14 29 -35 23 -33 26 -35 26 -14
0 94 -301 330 -467 366 -31 6 -33 9 -34 53 -1 26 -5 58 -10 72 -6 18 -8 5 -5
-42 l4 -67 -137 6 c-75 3 -137 10 -139 14 -2 5 -11 4 -20 -1 -32 -17 -131 -60
-138 -60 -4 0 -4 38 -1 85 6 85 0 104 -21 63 -9 -18 -10 -9 -6 47 2 39 9 146
15 239 6 93 15 178 20 188 10 18 59 26 59 10 0 -12 -28 -206 -40 -277 -17
-103 -10 -94 21 25 16 63 33 122 36 130 8 17 19 -140 23 -330 2 -69 5 -109 7
-90 3 19 10 38 16 42 9 6 9 8 0 8 -10 0 -13 56 -13 244 0 209 2 247 16 260 18
18 60 21 69 6z m-258 -727 c-14 -15 -30 -23 -34 -19 -4 4 5 19 21 32 37 32 48
21 13 -13z m632 -1866 c11 -23 24 -58 27 -77 4 -19 13 -43 21 -52 13 -15 11
-17 -34 -23 -64 -9 -132 -34 -245 -91 -138 -69 -360 -165 -376 -162 -10 2 -5
15 16 44 22 30 45 47 88 64 33 13 107 47 165 76 59 29 148 65 198 80 50 15 89
29 88 31 -2 1 -41 -4 -87 -12 -45 -8 -87 -12 -91 -9 -5 3 -9 23 -9 44 0 29 5
42 19 50 11 5 26 16 33 22 29 28 82 61 107 68 36 10 56 -3 80 -53z"/>
<path d="M4901 4284 c0 -11 3 -14 6 -6 3 7 2 16 -1 19 -3 4 -6 -2 -5 -13z"/>
<path d="M4913 4210 c0 -30 2 -43 4 -27 2 15 2 39 0 55 -2 15 -4 2 -4 -28z"/>
<path d="M4692 3960 c0 -14 2 -19 5 -12 2 6 2 18 0 25 -3 6 -5 1 -5 -13z"/>
<path d="M6120 5117 c0 -11 33 -67 37 -64 5 6 -25 67 -32 67 -3 0 -5 -2 -5 -3z"/>
<path d="M6150 4999 c0 -26 26 -42 47 -30 15 8 4 17 -12 9 -2 -2 -11 6 -19 17
-13 17 -15 17 -16 4z"/>
<path d="M6107 4979 c7 -7 15 -10 18 -7 3 3 -2 9 -12 12 -14 6 -15 5 -6 -5z"/>
<path d="M2352 4868 c-32 -76 -130 -395 -156 -508 -34 -146 -60 -307 -76 -470
-6 -63 -18 -176 -27 -250 -8 -74 -17 -169 -19 -210 -3 -68 -1 -64 15 45 10 66
21 135 25 153 14 59 26 22 27 -81 1 -56 5 -115 9 -132 4 -17 8 80 9 215 1 262
18 468 51 645 31 159 96 412 142 544 21 62 37 115 35 118 -3 2 -18 -29 -35
-69z"/>
<path d="M6129 4923 c-13 -16 -12 -17 4 -4 9 7 17 15 17 17 0 8 -8 3 -21 -13z"/>
<path d="M3840 4853 c0 -6 -9 -77 -20 -158 -24 -180 -24 -249 0 -340 l18 -70
-5 160 c-3 95 -1 210 6 283 7 68 10 127 7 130 -3 3 -6 1 -6 -5z"/>
<path d="M4561 4804 c0 -11 3 -14 6 -6 3 7 2 16 -1 19 -3 4 -6 -2 -5 -13z"/>
<path d="M1876 4773 c-6 -14 -5 -15 5 -6 7 7 10 15 7 18 -3 3 -9 -2 -12 -12z"/>
<path d="M1853 4733 c-3 -10 -8 -22 -11 -27 -3 -5 0 -6 5 -3 11 7 25 47 17 47
-3 0 -7 -8 -11 -17z"/>
<path d="M1808 4648 c-20 -35 -98 -221 -95 -225 3 -3 25 43 86 180 30 66 34
89 9 45z"/>
<path d="M6052 4661 c-9 -5 1 -10 30 -14 46 -6 61 -1 38 13 -19 12 -51 12 -68
1z"/>
<path d="M6298 4643 c7 -3 16 -2 19 1 4 3 -2 6 -13 5 -11 0 -14 -3 -6 -6z"/>
<path d="M6198 4623 c6 -2 18 -2 25 0 6 3 1 5 -13 5 -14 0 -19 -2 -12 -5z"/>
<path d="M2306 4518 c-3 -13 -5 -32 -5 -43 1 -11 5 -2 10 19 10 42 6 62 -5 24z"/>
<path d="M3902 4467 c-15 -35 -15 -104 -2 -238 13 -130 56 -388 70 -420 11
-25 10 -9 -6 89 -6 35 -5 36 10 17 8 -11 16 -24 16 -29 0 -14 183 -387 187
-383 3 4 -16 47 -84 197 -73 160 -117 324 -144 540 -6 52 -17 131 -24 175 -11
75 -12 78 -23 52z"/>
<path d="M2271 4333 c-38 -210 -52 -334 -58 -533 -5 -174 7 -538 24 -724 l6
-69 18 34 c22 45 54 73 74 66 19 -8 19 1 0 82 -88 372 -107 832 -49 1170 8 46
13 86 10 88 -2 2 -13 -49 -25 -114z m9 -995 c0 -43 28 -158 42 -175 10 -13
-12 -52 -49 -86 -20 -17 -20 -15 -26 160 -3 97 -3 181 0 187 10 15 32 -43 33
-86z"/>
<path d="M5738 4405 c2 -19 5 -35 7 -35 2 0 5 16 7 35 2 21 0 35 -7 35 -7 0
-9 -14 -7 -35z"/>
<path d="M986 4349 l-49 -51 -61 8 c-96 11 -101 11 -104 -11 -1 -11 13 -44 32
-73 l34 -53 -36 -70 c-29 -56 -34 -72 -22 -79 14 -9 66 -4 117 11 30 10 34 7
87 -47 39 -40 59 -55 66 -48 6 6 16 42 23 80 l13 69 64 35 c35 19 65 40 67 46
2 7 -27 27 -64 45 -54 27 -69 39 -71 59 -5 42 -32 130 -40 130 -4 0 -29 -23
-56 -51z m44 -53 c0 -61 12 -84 51 -101 21 -10 39 -23 39 -30 0 -7 -18 -19
-39 -27 -37 -15 -40 -19 -46 -64 -4 -27 -8 -53 -9 -59 -1 -5 -19 8 -38 29 -35
38 -37 39 -87 32 -55 -7 -64 2 -36 38 19 25 19 63 0 96 -26 45 -20 51 39 44
l54 -7 29 41 c30 43 43 45 43 8z"/>
<path d="M2672 4375 c0 -16 2 -22 5 -12 2 9 2 23 0 30 -3 6 -5 -1 -5 -18z"/>
<path d="M6104 4348 c3 -13 6 -34 7 -48 1 -20 3 -19 10 10 9 39 5 60 -12 60
-7 0 -9 -9 -5 -22z"/>
<path d="M5732 4290 c-1 -41 -4 -106 -7 -145 -4 -61 -3 -65 5 -30 6 22 9 87 7
145 -2 87 -3 92 -5 30z"/>
<path d="M2661 4324 c0 -11 3 -14 6 -6 3 7 2 16 -1 19 -3 4 -6 -2 -5 -13z"/>
<path d="M1657 4303 c-11 -17 -37 -98 -36 -113 0 -8 11 14 24 50 21 57 27 87
12 63z"/>
<path d="M7606 4297 c3 -10 9 -15 12 -12 3 3 0 11 -7 18 -10 9 -11 8 -5 -6z"/>
<path d="M3842 4260 c0 -14 2 -19 5 -12 2 6 2 18 0 25 -3 6 -5 1 -5 -13z"/>
<path d="M2652 4230 c0 -19 2 -27 5 -17 2 9 2 25 0 35 -3 9 -5 1 -5 -18z"/>
<path d="M3432 4165 c0 -44 3 -98 7 -120 8 -37 9 -35 9 25 0 36 -3 90 -8 120
-7 55 -7 54 -8 -25z"/>
<path d="M3852 4195 c0 -16 2 -22 5 -12 2 9 2 23 0 30 -3 6 -5 -1 -5 -18z"/>
<path d="M6757 4139 c7 -7 15 -10 18 -7 3 3 -2 9 -12 12 -14 6 -15 5 -6 -5z"/>
<path d="M6925 4056 c11 -9 26 -20 33 -26 8 -7 12 -7 12 -1 0 6 -15 18 -32 26
-28 13 -30 14 -13 1z"/>
<path d="M6167 3955 c-42 -340 -203 -829 -409 -1240 -68 -136 -90 -176 -168
-310 -38 -65 -7 -26 47 60 62 98 206 375 263 505 23 52 53 119 66 148 13 29
24 58 24 65 1 7 7 23 15 37 18 32 18 13 0 -75 -8 -38 -15 -82 -15 -98 0 -60
-105 -409 -182 -601 -21 -54 -37 -100 -35 -102 13 -13 135 275 142 338 3 24
18 86 34 138 75 247 243 1112 229 1178 -2 9 -7 -10 -11 -43z"/>
<path d="M1551 3959 c-6 -18 -13 -58 -16 -88 -4 -50 -3 -47 14 29 20 90 21
113 2 59z"/>
<path d="M3900 3938 c0 -63 160 -521 176 -505 3 3 1 14 -4 24 -5 10 -24 61
-41 113 -18 52 -41 111 -51 130 -10 19 -30 80 -45 135 -23 86 -35 122 -35 103z"/>
<path d="M3751 3894 c0 -11 3 -14 6 -6 3 7 2 16 -1 19 -3 4 -6 -2 -5 -13z"/>
<path d="M7000 3896 c0 -2 8 -10 18 -17 15 -13 16 -12 3 4 -13 16 -21 21 -21
13z"/>
<path d="M3784 3789 c25 -88 48 -157 57 -169 8 -12 9 -11 5 5 -3 11 -8 34 -12
50 -4 17 -18 53 -31 80 -13 28 -22 43 -19 34z"/>
<path d="M2443 3472 c5 -139 9 -178 22 -199 14 -21 45 -161 82 -364 5 -27 -21
-89 -37 -89 -5 0 -12 17 -15 38 -11 65 -15 59 -10 -13 3 -38 12 -92 20 -120
12 -41 14 -43 9 -13 -4 32 0 42 29 74 34 37 57 39 57 6 0 -9 20 -73 45 -140
42 -119 71 -179 81 -169 6 6 -89 268 -111 309 -8 14 -15 33 -15 42 0 9 -6 27
-14 39 -36 59 -126 548 -126 692 0 27 -5 57 -11 65 -8 11 -9 -34 -6 -158z"/>
<path d="M389 3354 c39 -20 68 -40 66 -44 -3 -4 1 -13 9 -19 7 -6 16 -25 19
-41 8 -37 40 -54 154 -79 49 -11 100 -25 113 -30 l25 -10 -25 0 c-43 -1 -221
33 -498 95 -206 46 -225 42 -32 -7 261 -65 522 -107 845 -134 39 -3 85 -8 103
-11 20 -3 32 -1 28 4 -3 5 -23 12 -45 16 -78 12 -319 97 -416 146 -81 41 -379
150 -409 150 -5 0 24 -16 63 -36z"/>
<path d="M2161 3309 c0 -30 4 -74 9 -99 5 -31 6 -15 3 50 -6 105 -13 134 -12
49z"/>
<path d="M2061 3304 c0 -11 3 -14 6 -6 3 7 2 16 -1 19 -3 4 -6 -2 -5 -13z"/>
<path d="M4290 3287 c0 -3 11 -25 25 -48 27 -49 32 -46 11 5 -12 29 -36 57
-36 43z"/>
<path d="M1 2623 l1 -648 57 116 c63 128 121 295 150 436 l20 92 -43 128 c-24
70 -73 210 -110 310 -36 100 -66 186 -66 192 0 5 12 12 28 14 25 4 25 4 -5 6
l-33 1 1 -647z"/>
<path d="M2971 3240 c0 -8 6 -28 14 -45 7 -16 14 -23 14 -15 0 8 -6 29 -14 45
-7 17 -14 23 -14 15z"/>
<path d="M3001 3144 c0 -11 3 -14 6 -6 3 7 2 16 -1 19 -3 4 -6 -2 -5 -13z"/>
<path d="M2182 3130 c0 -14 2 -19 5 -12 2 6 2 18 0 25 -3 6 -5 1 -5 -13z"/>
<path d="M2462 3075 c0 -16 2 -22 5 -12 2 9 2 23 0 30 -3 6 -5 -1 -5 -18z"/>
<path d="M2351 3072 c-2 -23 30 -143 55 -208 12 -33 25 -77 29 -97 7 -34 4
-40 -51 -97 -32 -33 -61 -57 -65 -53 -3 5 -14 48 -24 97 -10 50 -24 97 -32
105 -18 17 -17 12 18 -135 10 -45 19 -87 19 -94 0 -15 -157 -176 -216 -220
-25 -19 -57 -45 -70 -57 -13 -12 -24 -20 -24 -17 0 5 -122 -75 -130 -86 -10
-13 -234 -134 -309 -167 -42 -18 -70 -33 -63 -33 48 0 -61 -62 -232 -131 -66
-26 -115 -48 -109 -49 33 -1 224 82 358 154 83 45 176 95 208 112 32 16 86 50
120 76 34 26 67 47 74 48 6 0 19 7 27 16 12 11 16 12 16 2 0 -7 -22 -27 -48
-45 -26 -18 -67 -53 -92 -79 -41 -43 -35 -40 55 29 124 94 279 233 459 411 75
75 141 134 146 131 6 -3 8 0 5 7 -2 7 -29 94 -60 193 -64 208 -63 204 -64 187z"/>
<path d="M2471 3000 c0 -8 4 -24 9 -35 5 -13 9 -14 9 -5 0 8 -4 24 -9 35 -5
13 -9 14 -9 5z"/>
<path d="M2033 2831 c-7 -19 -13 -44 -13 -55 0 -57 -342 -308 -472 -347 -38
-12 -67 -23 -65 -25 2 -2 57 12 122 32 83 25 120 32 125 24 4 -7 63 45 152
134 80 80 148 146 151 146 3 0 8 -8 10 -17 3 -10 5 -2 6 18 0 19 6 40 13 47 9
9 9 12 1 12 -7 0 -13 15 -15 33 l-3 32 -12 -34z"/>
<path d="M2480 2660 c0 -8 19 -60 42 -114 44 -105 65 -116 29 -15 -25 68 -71
151 -71 129z"/>
<path d="M3680 2646 c0 -13 6 -15 28 -10 33 8 41 14 19 14 -8 0 -22 3 -31 6
-11 4 -16 1 -16 -10z"/>
<path d="M2521 2634 c0 -11 3 -14 6 -6 3 7 2 16 -1 19 -3 4 -6 -2 -5 -13z"/>
<path d="M3692 2555 c0 -16 2 -22 5 -12 2 9 2 23 0 30 -3 6 -5 -1 -5 -18z"/>
<path d="M4502 2351 c-8 -5 8 -6 40 -4 73 6 83 11 23 12 -27 0 -56 -3 -63 -8z"/>
<path d="M1068 2313 c7 -3 16 -2 19 1 4 3 -2 6 -13 5 -11 0 -14 -3 -6 -6z"/>
<path d="M5621 1808 c0 -142 3 -258 7 -258 7 0 5 448 -2 495 -2 11 -4 -96 -5
-237z"/>
<path d="M1060 1985 c-25 -14 -88 -43 -140 -65 -143 -62 -142 -61 -80 -55 30
4 57 10 60 14 3 5 51 31 107 59 56 28 104 56 108 62 9 15 -5 11 -55 -15z"/>
<path d="M1552 1935 c-68 -41 -191 -102 -272 -136 -82 -35 -148 -65 -146 -67
2 -2 44 13 92 33 56 22 98 34 112 30 16 -4 42 6 85 32 104 63 279 187 257 182
-3 -1 -60 -34 -128 -74z"/>
<path d="M1955 1883 c-11 -2 -30 -6 -41 -8 -20 -5 -114 -75 -100 -75 4 0 26
10 49 22 23 12 78 32 122 44 75 21 77 22 35 22 -25 0 -54 -2 -65 -5z"/>
<path d="M980 1780 c-64 -23 -75 -29 -44 -25 22 3 53 11 70 18 16 8 40 19 54
25 48 21 4 11 -80 -18z"/>
<path d="M1065 1711 c-118 -44 -179 -70 -165 -70 8 0 53 15 100 34 46 19 90
35 96 35 7 0 16 5 19 10 8 13 10 13 -50 -9z"/>
<path d="M7545 1710 c-3 -5 -1 -10 4 -10 6 0 11 5 11 10 0 6 -2 10 -4 10 -3 0
-8 -4 -11 -10z"/>
<path d="M496 1659 c-10 -80 -52 -254 -82 -344 -71 -215 -229 -472 -378 -614
l-36 -35 0 -333 0 -333 158 0 158 0 35 38 c107 113 217 294 289 475 35 90 80
253 80 290 0 38 17 42 25 7 4 -16 10 -30 14 -30 15 0 355 320 348 327 -2 1
-26 -4 -53 -11 -49 -15 -304 -56 -343 -56 -12 0 -21 6 -21 15 0 15 14 20 183
55 59 13 106 25 103 27 -2 2 -61 -8 -131 -22 -128 -26 -172 -29 -168 -10 1 6
19 15 40 22 l38 12 -44 -2 -43 -2 -38 143 c-27 100 -35 145 -27 147 7 3 52 18
100 35 76 27 327 141 272 124 -11 -3 -76 -24 -144 -45 -153 -48 -264 -58 -269
-23 -3 18 6 24 57 40 33 10 59 20 57 22 -3 2 -30 -4 -61 -13 -32 -9 -59 -15
-61 -13 -2 2 -11 33 -20 69 -23 93 -30 99 -38 38z m136 -196 c-24 -8 -46 -12
-50 -8 -11 11 21 25 58 24 l35 -1 -43 -15z"/>
<path d="M2438 1678 c8 -68 -74 -127 -160 -115 -49 7 -83 29 -108 70 -18 29
-20 30 -20 9 0 -36 17 -60 60 -82 48 -25 129 -26 177 -3 59 28 89 97 60 137
-12 16 -13 14 -9 -16z"/>
<path d="M6354 1639 c-2 -4 2 -9 8 -12 9 -3 6 -13 -10 -33 -135 -173 -188
-268 -223 -402 -30 -116 -36 -263 -14 -337 10 -33 19 -67 19 -75 1 -9 5 -21
10 -28 4 -7 2 -12 -4 -12 -6 0 -8 -5 -4 -11 5 -8 1 -8 -13 0 -11 6 -23 8 -26
5 -8 -8 -31 42 -51 111 -9 33 -21 74 -26 91 -14 43 -12 95 5 195 19 110 44
183 96 277 42 79 129 195 157 212 32 18 -138 12 -193 -7 -96 -34 -229 -191
-294 -348 -39 -92 -65 -255 -56 -340 13 -119 70 -253 157 -372 52 -71 166
-185 218 -218 42 -26 48 -27 126 -21 46 3 116 13 156 21 40 9 91 15 113 15 22
-1 81 5 130 14 50 8 116 17 148 21 40 5 64 13 78 28 l20 22 -48 13 c-184 50
-286 148 -384 370 -86 196 -91 326 -19 478 59 122 224 297 300 317 17 4 30 14
30 23 0 13 -28 14 -200 13 -111 -1 -203 -6 -206 -10z"/>
<path d="M7068 1623 c6 -2 18 -2 25 0 6 3 1 5 -13 5 -14 0 -19 -2 -12 -5z"/>
<path d="M7593 1619 c3 -10 11 -37 18 -60 10 -35 82 -149 94 -149 4 0 -106
213 -113 220 -3 3 -3 -2 1 -11z"/>
<path d="M780 1610 c-18 -12 -2 -12 25 0 13 6 15 9 5 9 -8 0 -22 -4 -30 -9z"/>
<path d="M1503 1561 c-101 -77 -123 -101 -133 -147 -5 -21 -7 -40 -6 -42 5 -4
31 23 51 51 10 14 29 23 60 27 45 5 46 5 90 88 31 56 41 82 31 82 -8 0 -49
-27 -93 -59z"/>
<path d="M705 1590 c-25 -11 1 -11 35 0 20 6 21 8 5 8 -11 0 -29 -3 -40 -8z"/>
<path d="M1330 1345 c-14 -8 -49 -24 -78 -36 -29 -12 -51 -24 -48 -26 2 -2 21
3 41 11 20 9 47 14 59 11 16 -4 25 2 38 25 9 16 16 30 15 30 -1 0 -13 -7 -27
-15z"/>
<path d="M1160 1270 c-8 -5 -10 -10 -5 -10 6 0 17 5 25 10 8 5 11 10 5 10 -5
0 -17 -5 -25 -10z"/>
<path d="M888 1173 c7 -3 16 -2 19 1 4 3 -2 6 -13 5 -11 0 -14 -3 -6 -6z"/>
<path d="M1061 1164 c-62 -14 -90 -25 -60 -24 32 1 182 38 154 38 -16 0 -59
-6 -94 -14z"/>
<path d="M768 1143 c6 -2 18 -2 25 0 6 3 1 5 -13 5 -14 0 -19 -2 -12 -5z"/>
<path d="M1520 1000 c-12 -16 -19 -30 -16 -30 2 0 14 14 26 30 12 17 19 30 16
30 -2 0 -14 -13 -26 -30z"/>
<path d="M3584 965 c14 -61 71 -107 104 -82 9 7 2 14 -25 28 -21 11 -49 34
-62 52 l-23 32 6 -30z"/>
<path d="M4240 980 c0 -5 5 -10 10 -10 6 0 10 5 10 10 0 6 -4 10 -10 10 -5 0
-10 -4 -10 -10z"/>
<path d="M3675 960 c3 -5 11 -10 16 -10 6 0 7 5 4 10 -3 6 -11 10 -16 10 -6 0
-7 -4 -4 -10z"/>
<path d="M3719 943 c-13 -16 -12 -17 4 -4 16 13 21 21 13 21 -2 0 -10 -8 -17
-17z"/>
<path d="M3474 528 c-4 -7 -14 -23 -22 -35 -8 -13 -10 -23 -5 -23 5 0 17 16
26 35 16 33 16 49 1 23z"/>
<path d="M6924 494 c31 -16 52 -22 58 -16 6 6 -8 15 -38 26 -68 23 -77 19 -20
-10z"/>
<path d="M3407 395 c-24 -50 -20 -58 4 -12 11 22 19 41 17 43 -3 2 -12 -12
-21 -31z"/>
<path d="M5910 388 c126 -311 157 -382 168 -386 11 -3 12 0 3 15 -22 42 -151
364 -151 378 0 8 -7 15 -15 15 -11 0 -12 -5 -5 -22z"/>
<path d="M1074 368 l-19 -23 23 19 c12 11 22 21 22 23 0 8 -8 2 -26 -19z"/>
<path d="M5476 188 l61 -183 36 -3 35 -3 -23 73 c-12 40 -37 116 -54 169 -17
53 -31 103 -31 113 0 12 -10 16 -43 16 l-43 0 62 -182z"/>
<path d="M4879 328 c-24 -17 -69 -56 -99 -85 l-55 -54 52 32 c29 17 50 35 48
39 -5 8 40 51 85 82 14 9 22 17 19 17 -3 1 -26 -13 -50 -31z"/>
<path d="M5205 345 c-5 -2 -31 -6 -58 -10 -26 -3 -45 -10 -42 -14 10 -17 -107
-190 -188 -278 l-40 -43 230 0 230 0 -55 153 c-30 83 -55 162 -56 174 -1 23
-3 24 -21 18z"/>
<path d="M1029 313 l-24 -28 28 24 c25 23 32 31 24 31 -2 0 -14 -12 -28 -27z"/>
<path d="M4998 313 c7 -3 16 -2 19 1 4 3 -2 6 -13 5 -11 0 -14 -3 -6 -6z"/>
<path d="M4958 303 c7 -3 16 -2 19 1 4 3 -2 6 -13 5 -11 0 -14 -3 -6 -6z"/>
<path d="M944 223 c-21 -27 -43 -51 -48 -55 -6 -4 -8 -10 -4 -13 3 -3 27 21
53 54 55 72 54 82 -1 14z"/>
<path d="M2883 83 c-18 -6 -16 -23 1 -23 17 0 30 16 19 23 -5 2 -14 2 -20 0z"/>
<path d="M3711 34 c-6 -15 -9 -29 -7 -32 3 -2 10 8 16 23 14 36 7 43 -9 9z"/>
<path d="M907 20 c-3 -12 0 -20 8 -20 8 0 11 8 8 20 -3 11 -7 20 -8 20 -1 0
-5 -9 -8 -20z"/>
<path d="M3106 25 c-9 -26 -7 -32 5 -12 6 10 9 21 6 23 -2 3 -7 -2 -11 -11z"/>
</g>
</svg>
