<?xml version="1.0" standalone="no"?>
<!DOCTYPE svg PUBLIC "-//W3C//DTD SVG 20010904//EN"
 "http://www.w3.org/TR/2001/REC-SVG-20010904/DTD/svg10.dtd">
<svg version="1.0" xmlns="http://www.w3.org/2000/svg"
 width="900.000000pt" height="900.000000pt" viewBox="0 0 900.000000 900.000000"
 preserveAspectRatio="xMidYMid meet">
<metadata>
Created by potrace 1.14, written by Peter Selinger 2001-2017
</metadata>
<g transform="translate(0.000000,900.000000) scale(0.100000,-0.100000)"
fill="#000000" stroke="none">
<path d="M4830 8533 c-14 -3 -32 -11 -40 -18 -15 -13 -19 -15 -39 -15 -9 0
-130 -144 -222 -265 -25 -33 -90 -132 -143 -220 -54 -88 -133 -216 -176 -285
-44 -69 -92 -147 -108 -175 -33 -56 -141 -308 -195 -455 -29 -78 -103 -267
-147 -377 -9 -22 -15 -23 -104 -23 -51 0 -107 -3 -123 -6 -29 -6 -31 -4 -76
88 -67 134 -316 532 -413 659 -24 31 -70 96 -103 145 -189 281 -751 885 -838
901 -176 32 -250 5 -508 -188 -158 -118 -320 -263 -437 -390 -147 -160 -477
-607 -518 -701 -11 -25 -58 -98 -201 -310 -132 -195 -260 -411 -357 -605 l-82
-162 0 -202 0 -202 23 20 c53 48 515 370 537 375 8 2 38 17 66 34 28 18 174
103 325 189 151 87 286 166 301 177 16 11 33 16 39 12 7 -4 9 -3 5 4 -3 6 11
21 31 33 64 40 225 174 283 235 131 140 258 301 378 482 35 50 64 92 66 92 2
0 17 -21 32 -47 106 -184 396 -463 616 -594 127 -76 299 -157 392 -183 32 -10
56 -19 54 -22 -3 -2 -38 -13 -79 -23 -252 -65 -467 -198 -707 -441 -138 -140
-246 -270 -308 -375 -63 -105 -153 -341 -198 -520 -44 -177 -66 -401 -71 -720
-2 -152 -9 -261 -19 -320 -9 -49 -19 -103 -22 -120 l-5 -30 15 25 c31 51 86
241 126 435 23 110 43 201 44 203 2 1 6 -73 9 -165 6 -174 30 -336 67 -456 20
-65 20 -71 5 -227 -8 -88 -15 -165 -15 -170 0 -6 18 -27 40 -48 l39 -39 -44
-109 c-69 -170 -85 -244 -90 -431 -4 -129 -10 -181 -30 -258 -14 -54 -25 -106
-25 -116 0 -11 -17 -30 -41 -46 -33 -22 -49 -44 -80 -111 -22 -46 -50 -122
-64 -170 -13 -48 -33 -114 -45 -146 -23 -69 -26 -168 -6 -207 12 -24 10 -44
-15 -175 -18 -89 -47 -198 -74 -269 -61 -166 -105 -340 -105 -418 -1 -64 -12
-72 -125 -86 -54 -7 -131 -21 -170 -32 -38 -10 -90 -21 -115 -24 -25 -2 -58
-9 -75 -14 -26 -9 -23 -9 20 -6 99 8 415 16 424 11 5 -4 1 -36 -11 -78 -22
-77 -19 -129 8 -159 27 -30 189 -78 289 -85 122 -8 173 11 277 106 42 38 81
70 88 70 6 0 8 5 5 10 -3 6 -1 10 5 10 7 0 19 9 28 20 16 18 21 19 57 8 27 -9
104 -13 243 -12 229 2 257 8 348 75 45 33 53 45 68 98 30 108 38 325 26 706
-11 325 -6 745 9 801 5 21 9 18 32 -29 28 -56 82 -188 104 -252 51 -150 99
-298 112 -345 20 -76 58 -111 188 -175 61 -30 124 -68 140 -86 22 -23 151
-132 183 -155 5 -3 -25 -232 -39 -299 -5 -27 -21 -87 -35 -133 -22 -73 -27
-82 -49 -82 -13 0 -77 -13 -142 -29 -65 -17 -179 -39 -254 -50 -141 -21 -253
-55 -246 -74 6 -20 66 -26 297 -33 234 -7 379 3 430 31 14 8 49 21 77 30 63
20 85 45 112 128 29 91 33 117 40 272 l6 140 18 -125 c24 -171 22 -220 -10
-313 -33 -95 -27 -119 37 -157 89 -52 178 -82 320 -112 209 -42 230 -44 230
-24 0 34 -23 63 -147 182 -124 119 -125 121 -129 170 -2 27 -6 69 -10 93 -5
41 -4 44 11 31 9 -7 28 -33 42 -57 27 -46 49 -63 82 -63 10 0 21 -4 23 -9 4
-12 104 -61 125 -61 26 -1 46 -19 78 -70 45 -72 195 -214 256 -243 30 -14 81
-40 114 -59 116 -65 154 -76 249 -73 58 2 98 9 124 22 33 16 40 27 64 95 15
42 31 109 37 148 5 40 12 74 14 77 3 2 70 13 149 24 78 10 169 24 200 30 31 6
71 9 87 7 17 -2 32 0 34 6 5 14 47 -22 47 -39 0 -23 -76 -81 -123 -94 -45 -13
-126 -11 -176 5 -21 6 -22 5 -12 -13 6 -11 32 -34 58 -51 89 -57 189 -66 272
-25 l39 20 -24 -39 c-24 -38 -32 -74 -14 -63 6 3 10 -1 10 -10 0 -19 72 -54
111 -55 14 0 44 9 68 20 41 20 43 20 81 4 22 -10 37 -21 34 -26 -6 -9 179 -11
214 -2 12 4 22 11 22 18 0 6 31 25 69 43 85 40 168 120 200 194 13 30 27 61
31 69 4 8 22 22 41 31 44 22 63 44 77 94 11 37 10 41 -11 57 -49 37 -157 46
-195 15 -11 -9 -13 -6 -10 12 3 23 8 26 108 61 19 7 45 17 57 23 13 6 62 7
130 2 189 -14 369 -8 479 15 54 12 153 25 219 29 110 7 217 25 320 55 37 10
40 14 43 48 4 45 3 45 152 52 227 11 526 76 768 167 l112 42 0 54 0 54 -30
-21 c-17 -12 -44 -39 -61 -59 -26 -33 -43 -42 -117 -64 -48 -14 -100 -28 -117
-32 -29 -6 -28 -5 12 24 50 36 115 116 147 180 149 299 141 573 -29 911 -74
146 -148 222 -259 262 -33 13 -54 24 -44 26 44 9 272 -49 424 -108 52 -20 74
-24 74 -15 0 7 -6 17 -13 23 -15 12 -11 85 4 76 5 -3 9 52 8 128 -1 130 -1
132 -15 88 -20 -63 -44 -183 -44 -219 0 -16 -4 -32 -8 -35 -5 -3 -55 10 -111
29 -57 19 -169 47 -250 61 -80 14 -156 28 -168 30 -18 3 -23 14 -32 71 -50
330 -66 417 -97 534 -112 433 -268 1105 -298 1289 -16 98 -39 397 -32 409 2 3
7 120 10 258 6 277 15 336 79 498 32 82 58 118 200 282 68 79 87 95 135 113
59 22 187 53 262 64 91 13 142 30 158 54 19 29 34 106 21 110 -5 2 -9 14 -9
26 0 30 -51 108 -88 135 -49 35 -95 50 -196 65 -105 16 -234 68 -380 152 -93
54 -141 64 -195 40 -43 -20 -70 -60 -89 -131 -7 -27 -18 -52 -25 -54 -7 -2
-27 -19 -45 -37 -18 -18 -53 -45 -79 -60 -48 -28 -223 -196 -280 -270 -30 -38
-37 -42 -90 -47 -89 -9 -155 -33 -211 -77 -82 -66 -122 -157 -122 -279 0 -85
23 -157 100 -311 88 -176 113 -268 160 -595 11 -77 31 -210 45 -295 13 -85 31
-222 40 -305 8 -82 22 -202 30 -265 35 -269 44 -368 59 -605 9 -137 24 -316
33 -398 9 -81 14 -149 11 -152 -2 -2 -29 5 -59 16 -84 32 -217 59 -295 59 -63
0 -72 2 -77 20 -3 11 -13 23 -23 27 -31 12 -414 -15 -528 -37 -102 -20 -235
-65 -282 -95 -18 -12 -27 -11 -62 0 -87 31 -310 51 -387 36 -27 -5 -52 -7 -54
-5 -3 3 0 19 7 37 33 93 34 339 1 472 -32 132 -150 282 -266 338 -24 12 -43
28 -43 37 0 8 -7 25 -15 36 -28 41 -61 240 -90 554 -8 91 -17 185 -19 210 -7
76 -44 291 -65 375 -56 230 -174 500 -292 670 -63 91 -163 193 -240 246 -34
23 -78 56 -98 74 -51 45 -209 165 -219 165 -4 0 -25 10 -47 22 -22 12 -84 40
-138 64 l-99 42 34 25 c18 13 71 48 118 77 121 75 291 193 386 266 98 76 241
227 291 307 l37 59 18 -24 c31 -38 69 -105 73 -127 8 -44 65 -140 382 -651 59
-96 128 -213 151 -260 53 -103 220 -354 280 -422 80 -89 108 -86 138 14 18 58
19 99 18 558 -1 279 2 478 7 455 8 -42 7 -8 -11 241 -6 94 -16 148 -46 245
-157 518 -390 903 -721 1186 -53 45 -69 54 -124 63 -63 10 -240 12 -289 3z
m3153 -1726 c25 -11 45 -13 64 -7 21 6 23 9 8 10 -19 1 -19 2 2 10 12 5 42 5
65 1 34 -6 39 -10 23 -15 -48 -17 -123 -58 -150 -84 -39 -35 -75 -82 -75 -96
0 -6 5 -4 11 4 8 12 9 11 7 -5 -4 -24 -28 -24 -108 0 -30 9 -87 19 -125 22
-68 5 -71 5 -115 -29 -25 -19 -63 -57 -84 -86 -39 -53 -58 -64 -35 -20 27 50
96 121 159 162 113 74 156 91 243 92 43 1 80 4 83 7 9 8 -57 20 -113 20 -29 0
-53 2 -53 4 0 2 14 12 30 22 34 20 96 16 163 -12z m632 -1 c44 -19 45 -27 3
-15 -18 4 -51 12 -73 18 l-40 9 38 1 c21 1 53 -6 72 -13z m-300 -39 c50 -13
119 -40 155 -59 65 -36 65 -36 74 -91 6 -39 5 -69 -4 -101 -11 -42 -16 -47
-54 -57 -22 -6 -64 -19 -93 -28 l-51 -18 -6 27 c-7 37 -132 177 -178 201 -28
14 -58 19 -119 19 -75 0 -80 1 -68 17 38 45 204 128 239 119 8 -2 56 -15 105
-29z m-4672 -191 c32 -33 33 -34 142 -40 177 -9 285 -39 480 -132 238 -114
380 -246 569 -530 183 -274 233 -407 288 -759 20 -132 23 -183 22 -425 -1
-232 -4 -291 -22 -380 l-20 -105 -1 60 c-1 54 -53 468 -66 521 -3 12 -7 52
-11 90 -10 122 -43 302 -70 394 -32 107 -44 113 -16 8 41 -150 53 -244 55
-431 1 -209 -12 -294 -84 -520 -46 -144 -77 -216 -114 -261 -24 -30 -24 -30
-126 -28 -56 1 -104 4 -107 6 -2 3 5 35 17 73 11 37 27 93 35 123 8 30 28 84
44 120 37 80 68 172 76 225 4 25 -3 11 -17 -35 -33 -105 -58 -162 -112 -260
-52 -94 -97 -163 -128 -197 -21 -24 -80 -32 -92 -13 -4 6 -10 8 -14 6 -3 -3 3
37 15 87 50 213 82 460 76 589 -2 31 1 38 25 46 l28 10 -26 1 c-25 1 -27 5
-33 59 -27 236 -53 376 -96 507 -11 33 -26 101 -35 150 l-14 90 4 -75 c12
-202 17 -445 11 -532 l-8 -98 -29 0 c-16 0 -31 6 -33 13 -42 140 -116 353
-152 438 -25 61 -44 113 -41 116 3 3 27 -2 53 -11 70 -24 64 -12 -8 17 l-63
25 -85 170 c-93 185 -109 211 -121 190 -4 -7 -19 -78 -35 -156 -23 -123 -30
-145 -48 -152 -12 -4 -30 -17 -40 -29 -19 -21 -19 -21 14 -21 29 0 32 -2 25
-22 -21 -69 -103 -437 -131 -590 -10 -54 -22 -98 -27 -98 -5 0 -7 155 -4 355
2 196 2 354 0 351 -2 -2 -8 -84 -13 -182 -8 -154 -15 -199 -45 -319 -40 -154
-80 -364 -91 -474 -3 -39 -9 -71 -13 -71 -3 0 -46 62 -96 137 -49 75 -101 150
-114 165 -69 83 -165 358 -181 518 -7 67 -8 46 -5 -95 3 -138 9 -198 24 -258
12 -43 24 -83 27 -89 4 -6 2 -8 -3 -5 -14 9 -96 196 -144 330 -45 126 -65 200
-73 279 -5 51 -4 57 14 63 26 8 26 45 0 52 -17 4 -20 14 -20 57 0 72 26 224
57 326 38 131 131 314 199 394 107 127 273 233 399 256 79 15 94 12 128 -24z
m-434 -112 c-18 -20 -77 -68 -129 -107 -118 -87 -228 -196 -309 -306 -116
-157 -106 -160 16 -6 75 95 200 220 265 266 29 21 29 20 -17 -62 -26 -46 -62
-118 -82 -159 -35 -75 -93 -240 -93 -265 0 -7 -17 -42 -39 -77 -21 -35 -60
-104 -86 -153 -27 -50 -62 -105 -79 -123 -21 -23 -25 -31 -12 -26 17 7 17 5 2
-25 -38 -73 -141 -373 -182 -531 -15 -58 -34 -111 -42 -117 -11 -9 -12 -13 -3
-13 8 0 11 -6 7 -15 -8 -22 -45 -382 -52 -520 -6 -102 -15 -138 -30 -123 -8 9
-54 235 -67 338 -17 126 -22 238 -21 470 0 131 -1 159 -7 110 -5 -36 -8 -218
-8 -405 0 -187 -3 -380 -8 -430 l-8 -90 -70 -7 c-38 -4 -79 -12 -91 -17 -19
-8 -22 -2 -47 93 -53 200 -60 259 -61 471 0 150 4 221 17 284 20 98 22 153 2
66 -8 -33 -30 -127 -49 -210 -19 -82 -46 -202 -60 -265 -15 -63 -29 -119 -31
-125 -10 -24 7 401 20 511 34 282 88 472 195 689 54 110 87 163 155 245 161
196 343 369 486 462 75 49 240 131 309 153 46 15 200 51 234 54 6 1 -6 -15
-25 -35z m1542 -406 c31 -44 15 -33 -22 15 -19 23 -26 36 -16 28 10 -8 27 -27
38 -43z m2964 -65 c-18 -43 -16 -56 3 -27 30 47 38 48 82 13 42 -34 53 -58 70
-159 19 -115 20 -119 36 -113 11 4 14 -9 14 -70 l0 -75 -107 -7 c-109 -7 -355
-45 -427 -66 -35 -10 -49 -21 -100 -81 -20 -22 -36 -16 -36 16 0 38 -69 245
-112 336 -22 47 -47 105 -54 130 -8 25 -14 45 -14 45 0 0 24 1 52 3 29 1 57 7
62 12 6 6 53 10 106 10 118 0 293 17 357 34 69 19 76 19 68 -1z m-2884 -10
c13 -16 12 -17 -3 -4 -17 13 -22 21 -14 21 2 0 10 -8 17 -17z m98 -132 c118
-184 230 -460 275 -677 26 -123 54 -344 61 -469 3 -66 15 -172 25 -235 11 -63
29 -170 40 -238 11 -67 27 -133 36 -147 19 -29 7 -32 -35 -10 -16 8 -53 16
-84 18 -30 3 -59 7 -65 11 -5 3 -17 37 -27 75 -16 65 -16 75 1 177 27 172 25
544 -5 739 -43 285 -98 455 -231 714 -82 158 -78 177 9 42z m-924 -309 c3 -9
-1 -12 -13 -9 -25 7 -111 25 -155 32 -32 5 -36 9 -32 28 16 71 24 119 30 172
4 33 10 64 13 69 4 7 134 -235 157 -292z m-1171 64 c-1 -12 -3 -26 -3 -32 -1
-7 -9 -14 -18 -18 -10 -3 -29 -10 -41 -16 l-24 -10 28 47 c51 89 48 85 55 66
3 -9 4 -26 3 -37z m56 -61 c0 -8 -7 -15 -15 -15 -16 0 -20 12 -8 23 11 12 23
8 23 -8z m880 5 c0 -5 -7 -10 -16 -10 -8 0 -12 5 -9 10 3 6 10 10 16 10 5 0 9
-4 9 -10z m167 -26 l48 -14 -45 5 c-109 10 -150 18 -150 27 0 12 77 3 147 -18z
m-1097 7 c0 -4 -25 -17 -55 -28 -70 -26 -71 -19 -2 12 60 28 57 28 57 16z
m1182 -39 c17 -17 138 -340 189 -506 l18 -58 -72 6 c-40 3 -126 7 -192 8 -134
2 -163 -8 -240 -77 l-40 -36 86 5 87 6 -16 -43 c-20 -55 -28 -248 -13 -317 14
-65 68 -142 116 -164 55 -27 128 -23 176 8 48 33 70 67 100 158 19 60 21 84
17 184 -5 98 -3 113 9 102 24 -20 41 -61 48 -120 4 -33 11 -55 17 -52 5 3 7
18 4 33 -4 18 1 14 14 -14 11 -25 19 -64 20 -105 l1 -65 32 37 32 36 -7 -88
c-6 -84 -37 -237 -61 -309 l-12 -34 -110 2 c-74 1 -115 -3 -126 -12 -15 -11
-69 -226 -69 -274 0 -15 -15 -31 -52 -54 -29 -18 -58 -32 -65 -32 -7 0 -11 -5
-10 -10 1 -5 -4 -12 -12 -15 -10 -3 -11 0 -5 9 9 15 -11 0 -131 -101 -75 -63
-125 -134 -147 -210 -6 -22 -18 -28 -90 -45 -45 -11 -98 -19 -118 -18 -29 1
-200 65 -302 113 -15 7 -48 40 -74 73 -88 111 -239 215 -369 252 -75 22 -95
43 -132 140 -44 117 -66 214 -61 276 3 34 -4 95 -19 167 -21 104 -22 121 -12
200 13 99 23 119 33 68 10 -55 42 -118 74 -150 l30 -28 -3 29 c-19 179 -19
177 6 229 40 80 59 103 97 114 20 5 38 8 40 6 2 -2 -2 -24 -9 -47 -7 -24 -13
-91 -13 -149 -1 -95 2 -110 26 -155 61 -115 134 -156 235 -134 61 14 89 47
124 151 18 53 20 78 16 153 -3 50 -12 114 -20 143 -15 54 -9 69 12 30 l12 -23
-5 23 c-2 13 0 20 6 16 5 -3 7 -15 4 -26 -2 -11 1 -30 8 -42 7 -11 25 -43 40
-69 15 -27 30 -46 33 -43 3 2 -2 17 -10 33 -25 45 -57 148 -78 246 -20 98 -20
123 0 55 19 -65 97 -215 140 -272 21 -28 44 -60 52 -72 8 -12 39 -49 69 -84
30 -34 68 -81 83 -103 31 -45 45 -61 30 -34 -5 9 -6 41 -2 70 16 121 40 273
45 287 10 25 44 164 45 185 1 11 9 -56 19 -150 10 -93 19 -177 20 -185 2 -19
25 90 39 190 6 41 38 188 71 325 32 138 65 279 71 314 l12 64 116 -7 c64 -4
119 -11 123 -14z m-1178 -9 c3 -10 10 -46 15 -80 11 -67 84 -295 131 -404 l29
-69 -22 -1 -22 -2 23 -4 c12 -2 27 -13 33 -24 10 -19 9 -20 -13 -8 -13 6 -30
17 -38 24 -44 37 -253 34 -374 -5 -73 -24 -86 -35 -29 -24 l36 7 -38 -46 c-34
-40 -90 -75 -102 -63 -11 10 105 392 147 487 75 171 92 195 148 212 63 20 70
20 76 0z m1513 -225 c-3 -8 -6 -5 -6 6 -1 11 2 17 5 13 3 -3 4 -12 1 -19z m58
-294 c2 -50 7 -102 10 -116 6 -24 4 -26 -35 -30 -47 -4 -56 6 -46 47 4 14 14
25 23 25 15 0 15 1 0 13 -16 11 -17 27 -10 177 l7 165 23 -95 c13 -52 25 -136
28 -186z m3499 104 c4 -73 10 -159 15 -190 l8 -58 -91 0 c-147 0 -312 -34
-458 -95 -12 -5 -18 -3 -18 6 -1 36 -21 155 -44 264 -14 66 -26 123 -26 126 0
12 124 30 280 40 85 5 191 15 235 23 44 8 83 14 86 15 3 1 9 -59 13 -131z
m-3594 -194 c0 -29 -23 -23 -38 10 -9 21 -8 22 14 18 17 -3 24 -11 24 -28z
m-1303 -60 c13 -13 24 -33 25 -46 0 -13 2 -36 4 -53 2 -16 3 -74 4 -129 1 -88
-2 -104 -25 -150 -31 -62 -67 -86 -127 -86 -44 0 -78 17 -110 55 -23 27 -22
31 10 43 49 17 63 39 61 93 -2 33 -7 49 -16 49 -7 0 -13 5 -13 10 0 13 -66 13
-91 0 -17 -10 -19 -7 -19 30 0 23 4 39 8 36 5 -3 6 8 4 24 -2 17 -1 38 3 47 5
10 9 23 10 28 0 6 6 22 13 37 13 31 28 34 151 35 75 0 87 -2 108 -23z m1123
11 c19 -7 31 -14 25 -14 -5 -1 -3 -6 5 -11 8 -5 15 -13 16 -17 0 -4 5 -17 10
-28 5 -11 9 -76 8 -145 -1 -137 -7 -157 -66 -222 -70 -80 -208 -64 -252 28
l-15 32 38 -5 c56 -8 81 20 81 88 0 38 -5 55 -17 65 -21 16 -117 19 -108 4 3
-5 1 -10 -5 -10 -23 0 1 188 28 226 16 22 24 23 117 23 59 0 114 -6 135 -14z
m-533 -67 c-3 -7 -5 -2 -5 12 0 14 2 19 5 13 2 -7 2 -19 0 -25z m825 -13 l-4
-46 -28 38 c-29 38 -29 38 -7 45 40 11 42 9 39 -37z m-1932 11 c0 -3 -11 -26
-25 -53 l-26 -48 7 45 c3 25 8 48 11 53 4 7 33 10 33 3z m2551 -251 c11 -66
24 -172 29 -235 5 -63 11 -134 13 -157 3 -30 1 -43 -8 -43 -19 0 -44 59 -72
173 -24 95 -25 107 -14 172 7 39 15 113 19 165 3 52 8 84 10 70 2 -14 13 -79
23 -145z m-2214 64 c19 -16 16 -53 -6 -73 -28 -25 -79 -29 -91 -6 -16 30 -12
78 8 90 19 12 68 6 89 -11z m1132 -10 c20 -36 7 -75 -29 -94 -30 -15 -32 -15
-60 14 -18 17 -30 40 -30 55 0 56 91 75 119 25z m3438 -121 c-3 -8 -6 -5 -6 6
-1 11 2 17 5 13 3 -3 4 -12 1 -19z m613 0 c0 -2 20 -84 45 -183 25 -99 45
-182 45 -185 0 -3 -64 -5 -143 -6 -154 -1 -277 -19 -421 -60 -49 -14 -92 -22
-96 -17 -7 8 -30 245 -30 310 0 28 5 35 38 48 57 25 198 63 287 79 66 12 275
22 275 14z m-5598 -240 c-3 -28 0 -53 7 -61 13 -17 5 -27 -23 -27 -21 0 -21 2
-13 103 4 56 11 109 14 117 10 23 21 -79 15 -132z m2519 91 c-5 -13 -10 -19
-10 -12 -1 15 10 45 15 40 3 -2 0 -15 -5 -28z m54 -64 c9 -44 25 -98 35 -121
l17 -41 -63 -20 -63 -21 -6 73 c-7 68 -5 76 26 143 19 38 35 69 36 68 1 -1 9
-37 18 -81z m-2706 -42 l18 -83 -29 0 -28 0 0 93 c0 86 10 135 18 90 2 -10 12
-55 21 -100z m2632 46 c-5 -13 -10 -19 -10 -12 -1 15 10 45 15 40 3 -2 0 -15
-5 -28z m234 -96 c13 -39 12 -41 -8 -47 -34 -9 -37 -8 -37 20 0 39 24 114 28
89 2 -11 9 -39 17 -62z m-596 10 c-30 -119 -34 -128 -57 -100 -8 9 -2 29 24
75 19 34 37 62 39 62 2 0 -1 -17 -6 -37z m332 -131 c-7 -2 -20 3 -29 11 -13
14 -13 20 4 61 l19 46 10 -58 c8 -46 8 -58 -4 -60z m-2585 33 c-4 -11 2 -11
36 1 22 8 53 14 69 14 l28 0 -5 -72 c-3 -51 -1 -67 5 -53 7 15 10 3 10 -47 1
-42 -3 -68 -10 -68 -5 0 -8 -4 -4 -9 3 -6 -12 -10 -33 -9 -21 0 -52 -3 -69 -6
-29 -7 -31 -4 -51 42 -20 47 -21 53 -7 98 12 43 12 47 -1 29 -8 -11 -19 -36
-24 -57 -6 -20 -14 -39 -19 -42 -4 -3 -27 8 -49 25 -23 17 -42 29 -42 26 0
-20 34 -61 61 -75 27 -13 34 -24 35 -47 2 -29 2 -29 -3 -2 -7 44 -19 23 -15
-27 5 -54 14 -57 68 -16 35 27 46 29 115 30 91 0 241 -41 359 -98 89 -44 205
-149 242 -219 16 -31 31 -47 42 -46 10 0 43 -9 74 -22 l57 -24 -2 -47 c-1 -25
-9 -78 -18 -116 -17 -67 -19 -69 -67 -94 l-50 -25 7 31 c4 17 3 49 -1 73 -7
41 -8 40 -20 -43 -6 -47 -15 -98 -19 -115 -5 -23 -4 -26 4 -15 26 37 6 -14
-56 -142 -36 -75 -69 -135 -73 -133 -4 3 -21 -26 -38 -63 -17 -37 -43 -94 -58
-127 -31 -68 -143 -336 -181 -435 -14 -36 -47 -150 -73 -255 -72 -289 -169
-613 -200 -675 -41 -79 -77 -130 -151 -212 -116 -129 -236 -239 -311 -283
l-73 -43 -75 7 c-87 9 -247 55 -274 79 -14 13 -17 26 -13 57 12 87 29 170 36
180 5 5 16 62 25 125 35 256 172 577 376 880 54 79 240 435 323 615 20 44 63
129 96 189 33 60 68 141 77 179 15 54 28 81 62 118 23 26 52 51 62 54 18 6 20
16 20 80 0 41 5 77 11 80 5 4 -10 20 -35 35 -24 16 -77 57 -118 92 -121 104
-139 118 -149 112 -5 -3 -21 3 -37 14 -15 11 -44 25 -66 33 -70 25 -79 46 -73
184 5 129 22 264 34 276 5 4 30 10 57 13 26 2 50 6 51 8 2 2 31 1 65 0 46 -3
60 -7 56 -17z m2860 -34 c-53 -69 -115 -183 -142 -258 -13 -39 -23 -53 -37
-53 -10 0 -26 -4 -36 -9 -16 -9 -16 -6 1 62 11 40 24 88 29 107 6 19 13 46 16
58 9 40 103 128 148 139 67 18 68 15 21 -46z m-1026 -18 c0 -59 36 -100 95
-109 38 -5 45 -10 45 -29 0 -20 -7 -23 -62 -30 -108 -13 -148 -13 -148 -1 0
22 39 217 46 227 11 18 24 -12 24 -58z m323 46 c12 -7 17 -23 18 -52 2 -92 -3
-215 -15 -328 -8 -80 -9 -118 -2 -116 14 5 24 42 26 97 l2 45 13 -40 c14 -40
14 -39 10 35 -12 185 -9 311 5 320 17 11 59 12 114 3 l38 -6 -7 -111 c-10
-158 -56 -346 -84 -346 -6 0 -11 -7 -11 -16 0 -24 18 -7 50 49 l30 52 0 -42
c0 -24 4 -43 10 -43 6 0 7 25 4 64 -3 37 -1 88 7 122 7 33 15 104 18 159 6 95
7 100 32 112 32 16 88 6 97 -15 3 -9 0 -59 -8 -111 -7 -53 -12 -109 -12 -126
2 -34 -30 -140 -59 -196 -21 -42 -25 -69 -9 -69 5 0 16 21 24 48 8 26 15 40
16 32 4 -26 25 83 60 299 10 68 21 125 23 128 3 2 29 -6 60 -17 l55 -21 -10
-42 c-12 -57 -62 -220 -104 -342 -29 -84 -39 -103 -62 -113 -92 -40 -399 -237
-462 -297 -40 -38 -77 -51 -175 -64 l-70 -8 55 -2 c31 0 82 6 113 14 32 8 60
15 62 15 3 0 5 -14 5 -30 0 -17 36 -115 79 -218 320 -758 388 -902 464 -989
76 -87 120 -151 170 -243 140 -263 187 -593 111 -777 -27 -63 -7 -46 25 22 60
127 64 271 11 475 -10 41 -18 76 -16 77 7 7 61 -107 92 -191 36 -99 46 -90 14
13 -25 78 -61 152 -99 200 -16 20 -45 70 -66 111 -41 82 -140 229 -207 308
-24 28 -53 73 -64 100 l-21 49 83 13 c157 25 338 -2 501 -74 149 -66 173 -79
173 -93 0 -7 -7 -59 -15 -116 -18 -119 -72 -326 -156 -587 -89 -280 -137 -453
-145 -518 -9 -85 -24 -100 -119 -117 -44 -8 -91 -14 -105 -15 -35 0 -202 77
-280 130 -86 57 -217 185 -242 235 -11 22 -27 44 -35 48 -7 5 -11 12 -9 16 3
5 -10 44 -28 87 -27 65 -97 268 -179 524 -8 25 -40 111 -71 192 -32 85 -53
155 -49 165 5 12 3 14 -7 8 -8 -5 -11 -4 -7 2 4 6 -6 42 -22 80 -16 37 -41
109 -56 158 -15 50 -31 95 -35 100 -4 6 -41 98 -83 205 -41 107 -107 278 -146
379 -48 123 -74 204 -78 245 l-6 61 39 -35 c21 -19 31 -26 23 -15 -32 41 -78
131 -89 177 -10 39 -9 60 5 124 16 73 20 79 93 156 139 145 273 231 378 241
93 10 132 0 139 -33 3 -15 16 -36 27 -46 21 -19 21 -19 13 16 -4 19 -11 53
-16 75 -4 22 -9 69 -10 105 -1 60 -2 63 -11 33 -10 -30 -15 -33 -49 -33 -58 0
-89 44 -89 127 l0 25 148 -7 c81 -4 155 -11 165 -16z m573 -35 c-19 -20 -40
-33 -46 -29 -20 12 37 61 73 64 4 1 -8 -15 -27 -35z m319 9 c79 -25 158 -68
199 -110 49 -50 111 -179 131 -273 24 -111 6 -348 -36 -487 -31 -98 -31 -101
-9 -58 l20 40 -5 -125 c-2 -69 -7 -201 -11 -295 -6 -189 -10 -220 -28 -206
-28 23 -199 85 -281 102 -98 20 -273 25 -385 10 -36 -5 -89 -12 -118 -16 l-53
-8 1 94 c1 104 14 225 35 339 8 41 16 88 17 104 l3 29 48 -41 c52 -46 73 -55
40 -19 -28 31 -113 154 -113 164 0 5 12 26 27 48 41 60 100 177 150 300 62
151 145 310 198 378 43 53 46 56 82 51 21 -3 61 -13 88 -21z m-2825 -205 c0
-13 -17 -9 -29 5 -6 8 -13 29 -17 48 l-5 34 25 -40 c14 -22 26 -43 26 -47z
m1350 -121 c0 -1 -32 -34 -72 -72 -61 -60 -66 -63 -33 -22 39 49 105 108 105
94z m4269 -31 c29 -8 55 -17 57 -19 11 -11 76 -298 70 -312 -3 -9 -18 -15 -35
-15 -102 0 -559 -70 -647 -100 -32 -11 -64 -20 -70 -20 -18 0 -64 403 -46 413
17 11 196 48 297 62 117 16 296 12 374 -9z m-5969 -148 c58 -20 77 -34 178
-133 l112 -112 0 -50 c0 -43 -4 -53 -26 -67 -34 -23 -77 -93 -111 -180 -15
-39 -53 -118 -83 -175 l-55 -105 -90 -13 c-50 -7 -110 -20 -134 -28 -25 -8
-45 -14 -46 -12 -3 3 67 233 94 311 12 33 19 61 17 63 -2 2 -16 -25 -32 -59
l-29 -63 -3 75 c-4 78 9 182 34 285 18 71 95 285 103 285 3 0 35 -10 71 -22z
m2551 -323 c6 -55 17 -130 25 -168 12 -58 12 -84 -1 -195 -8 -70 -15 -154 -16
-188 -2 -54 -5 -62 -29 -76 l-28 -16 -10 57 c-82 435 -96 517 -106 617 l-7 61
53 34 c28 19 63 44 77 57 l26 24 2 -53 c2 -30 8 -99 14 -154z m-1384 78 c47
-57 92 -100 120 -116 22 -13 3 19 -46 78 -23 27 -41 54 -41 58 0 5 15 6 34 3
20 -4 63 0 101 9 36 8 73 15 80 15 8 0 20 -21 29 -49 8 -27 20 -60 27 -73 7
-13 13 -57 14 -98 0 -69 5 -86 63 -221 34 -80 62 -151 62 -158 0 -6 5 -19 11
-29 9 -15 8 -30 -5 -70 -10 -29 -20 -52 -23 -52 -3 0 -34 20 -69 45 -75 54
-184 175 -239 265 -22 36 -51 83 -66 105 -15 22 -26 41 -25 43 2 1 41 -7 86
-18 46 -10 86 -17 88 -15 3 3 -44 28 -104 57 -60 28 -114 59 -121 67 -11 15
-35 105 -47 179 -8 49 15 41 71 -25z m3658 -25 c-11 -7 -44 -17 -73 -24 -64
-15 -281 -135 -333 -185 -38 -35 -39 -35 -81 -22 -47 14 -95 20 -238 29 -52 4
-101 10 -108 13 -8 5 5 20 40 44 74 50 267 113 393 128 55 6 125 15 155 19 30
4 102 8 160 8 84 1 101 -1 85 -10z m125 -40 c47 -1 183 -21 230 -34 78 -22
216 -82 275 -119 59 -38 206 -182 253 -248 39 -55 20 -53 -36 3 -49 49 -103
65 -292 85 -200 22 -288 12 -453 -52 -107 -42 -121 -45 -140 -33 -65 42 -241
133 -299 156 -38 14 -68 29 -68 34 0 12 64 60 135 102 156 93 236 121 320 112
33 -3 67 -6 75 -6z m-2336 -63 c-4 -16 -8 -41 -10 -53 -5 -44 -12 -34 -21 30
-6 41 -6 68 1 76 16 22 38 -16 30 -53z m-244 17 c0 -11 -32 -54 -71 -98 -40
-43 -74 -81 -76 -84 -3 -3 -3 5 -1 17 3 24 125 183 139 183 5 0 9 -8 9 -18z
m1472 -16 c36 -7 79 -21 94 -31 l28 -18 -24 -9 c-14 -5 -27 -13 -30 -18 -3 -5
-86 -11 -185 -15 -99 -4 -182 -8 -184 -11 -2 -2 -9 3 -15 12 -17 22 -8 92 12
97 37 10 241 5 304 -7z m178 -131 c239 -4 407 -42 591 -135 98 -50 247 -157
320 -232 179 -180 319 -514 319 -762 0 -59 -3 -70 -23 -86 -13 -10 -31 -34
-41 -53 -16 -28 -28 -36 -68 -46 -27 -6 -65 -11 -84 -11 l-34 0 0 128 c0 70
-5 156 -11 191 -26 165 -102 314 -229 455 -127 140 -448 303 -665 336 -139 22
-301 39 -368 40 -55 0 -69 3 -74 18 -10 28 -35 52 -53 52 -12 0 -21 14 -31 48
-7 26 -13 49 -13 52 -1 7 212 18 254 13 19 -3 114 -6 210 -8z m2132 -12 c11
-47 7 -48 -156 -43 -85 3 -157 8 -160 11 -4 3 42 9 101 12 60 3 128 13 153 21
59 19 57 19 62 -1z m-392 -34 c153 -38 293 -131 404 -269 65 -80 173 -261 181
-303 4 -18 14 -52 23 -77 13 -33 17 -77 17 -165 -1 -130 -16 -203 -76 -348
-34 -85 -34 -83 -12 -66 21 17 -36 -88 -84 -153 -46 -63 -137 -146 -190 -171
-24 -12 -43 -24 -43 -28 0 -4 -46 -10 -101 -14 -81 -6 -103 -5 -110 6 -14 22
-10 30 9 20 37 -20 43 -1 34 107 -10 108 -5 159 21 234 24 68 35 152 47 346
l11 173 -46 142 c-26 78 -69 186 -95 240 -37 73 -45 97 -32 93 60 -18 72 -18
72 -1 0 24 -48 89 -135 183 l-78 83 54 -7 c30 -4 88 -15 129 -25z m-2191 -114
l31 -110 -27 -54 c-16 -30 -37 -60 -49 -68 l-21 -14 4 148 c5 179 11 243 23
222 5 -8 23 -64 39 -124z m-1155 35 c9 -41 27 -133 41 -205 14 -71 29 -146 35
-165 10 -34 -6 -140 -21 -140 -16 0 -199 424 -199 463 0 22 110 141 120 130 4
-5 14 -42 24 -83z m-1539 -20 c117 -119 432 -290 678 -370 21 -6 36 -14 34
-16 -6 -7 -367 121 -428 151 -61 31 -290 182 -331 219 -27 24 -35 46 -21 59
11 12 18 8 68 -43z m2722 -12 c-3 -8 -6 -5 -6 6 -1 11 2 17 5 13 3 -3 4 -12 1
-19z m1747 -28 c104 -44 214 -118 251 -170 17 -22 50 -62 74 -88 55 -59 135
-172 168 -237 25 -47 25 -55 19 -160 -3 -60 -9 -140 -12 -177 l-7 -67 -52 91
c-88 154 -161 244 -240 297 -38 26 -78 51 -89 54 -43 16 -242 57 -277 57 -29
0 -39 5 -44 20 -16 51 -175 231 -263 298 l-33 25 43 20 c155 71 178 78 283 74
87 -3 111 -8 179 -37z m-1689 -54 c8 -17 23 -54 33 -82 24 -64 21 -71 -83
-176 -76 -75 -79 -77 -98 -61 -15 14 -18 27 -14 60 3 34 14 51 48 85 49 47 68
95 77 192 4 49 7 55 14 37 5 -13 15 -38 23 -55z m1832 34 c6 0 22 -15 35 -32
l23 -33 -32 23 c-17 12 -35 22 -40 22 -4 0 -17 8 -28 17 -20 15 -19 15 5 9 14
-3 30 -6 37 -6z m-1535 -25 c118 -24 137 -36 220 -143 108 -139 173 -246 235
-385 30 -67 70 -153 89 -192 43 -88 81 -261 90 -415 5 -89 1 -151 -15 -278
-28 -218 -23 -205 -82 -226 -28 -10 -52 -17 -53 -15 -2 2 -7 33 -11 69 -4 36
-11 87 -16 113 -8 43 -6 54 21 107 32 64 31 75 -9 135 -12 17 -17 33 -12 40
18 21 -36 451 -65 521 -27 65 -96 163 -206 295 -118 140 -193 202 -332 274
-50 26 -98 57 -108 68 -15 20 -15 22 0 34 24 17 164 16 254 -2z m1691 -23 c16
-10 41 -39 56 -67 35 -65 93 -196 89 -201 -5 -4 -165 190 -205 249 l-33 49 33
-7 c17 -4 45 -14 60 -23z m-4845 -24 l40 -36 -10 -149 c-5 -81 -12 -163 -14
-182 l-6 -35 -17 40 c-10 21 -26 64 -37 94 -10 30 -21 57 -24 60 -3 3 -15 19
-27 37 -27 37 -29 75 -8 97 8 8 15 19 15 25 0 18 34 91 41 89 4 -2 25 -19 47
-40z m3628 -69 c153 -64 307 -186 389 -310 103 -154 155 -336 155 -539 0 -140
-12 -198 -61 -298 -51 -101 -110 -168 -205 -233 l-73 -49 7 103 c11 163 6 378
-12 469 -39 195 -169 585 -254 758 -31 63 -58 118 -60 123 -8 16 43 5 114 -24z
m-3426 -97 c0 -32 59 -442 67 -467 9 -28 10 -30 28 -135 10 -52 24 -108 32
-124 23 -45 94 -109 154 -139 56 -28 146 -110 149 -137 4 -27 0 -40 -12 -40
-17 0 -134 91 -154 121 -17 26 -185 118 -233 129 -33 7 -59 46 -77 115 -9 33
-24 76 -35 96 -10 21 -30 82 -45 136 -25 95 -26 104 -18 263 4 91 9 176 10
190 1 14 3 42 3 62 l1 37 65 -41 c50 -32 65 -47 65 -66z m2837 61 c43 -26 103
-66 133 -89 76 -57 206 -210 214 -250 3 -11 16 -55 30 -98 15 -44 31 -111 37
-150 12 -76 18 -277 8 -273 -13 5 -39 -26 -40 -47 0 -11 -11 -52 -24 -91 l-23
-70 -2 100 c-3 118 -2 108 -33 260 -25 119 -54 217 -85 285 -25 56 -137 223
-187 277 -36 41 -115 169 -115 188 0 9 10 5 87 -42z m-3872 -25 c-14 -29 -25
-58 -25 -63 0 -6 -44 -16 -97 -22 -77 -9 -112 -19 -168 -47 -38 -20 -73 -36
-77 -36 -4 0 5 25 20 55 23 46 35 59 84 85 70 38 199 78 250 79 l37 1 -24 -52z
m3808 -45 c21 -48 27 -78 32 -168 3 -60 2 -134 -2 -164 l-8 -54 -95 -37 c-52
-21 -112 -41 -134 -45 -37 -6 -38 -5 -33 17 14 57 18 197 8 253 -9 47 -9 61 1
64 21 7 124 109 153 152 15 21 33 39 40 39 6 0 23 -26 38 -57z m-610 16 c93
-13 230 -66 223 -86 -3 -8 -6 -68 -6 -134 l0 -119 -39 20 c-40 20 -89 39 -171
66 -69 22 -226 44 -320 44 -104 0 -280 -23 -306 -39 -17 -10 -15 -11 11 -6 69
13 323 22 408 14 168 -16 310 -57 428 -125 35 -20 77 -43 92 -52 18 -9 26 -19
23 -29 -3 -8 -6 -21 -6 -29 0 -9 -17 -3 -52 20 -125 79 -263 133 -415 162 -68
12 -123 15 -257 10 -94 -3 -190 -10 -214 -15 -39 -8 -44 -7 -52 13 -6 16 18
210 30 242 0 2 92 31 125 39 88 23 352 25 498 4z m-1957 -75 c31 -11 47 -26
72 -68 52 -84 98 -133 152 -157 44 -20 47 -24 32 -35 -14 -10 -15 -17 -5 -46
10 -29 24 -89 39 -171 2 -15 -5 -81 -16 -146 -11 -65 -20 -121 -20 -125 0 -4
-19 -5 -42 -1 -31 4 -39 3 -28 -4 8 -6 27 -11 43 -11 26 0 27 -2 27 -47 0 -27
-3 -64 -6 -84 l-6 -37 -52 62 c-28 33 -66 68 -84 77 -90 46 -153 101 -170 149
-14 37 -79 392 -105 571 l-23 157 76 -35 c41 -19 93 -41 116 -49z m452 -4
c-12 -11 -30 -19 -38 -19 -9 0 0 12 20 29 19 16 37 24 38 19 2 -5 -7 -18 -20
-29z m2260 -125 c58 -85 97 -155 106 -188 36 -125 46 -424 21 -627 -12 -103
-12 -104 -14 -38 -1 65 -2 67 -31 73 -26 6 -30 11 -30 41 0 22 -6 38 -18 45
-16 10 -18 23 -15 93 2 44 0 131 -5 191 l-9 110 -2 -150 c-2 -82 -6 -170 -9
-195 -6 -39 -11 -45 -33 -48 l-25 -3 4 138 c2 77 -1 173 -8 218 -6 44 -15 164
-19 266 -5 102 -11 191 -15 198 -4 6 -3 11 2 11 5 0 50 -61 100 -135z m-4008
105 c-9 -17 -21 -20 -73 -20 -80 -1 -189 -43 -257 -100 -27 -23 -50 -39 -50
-36 0 4 11 24 25 46 43 68 181 128 298 129 65 1 67 0 57 -19z m725 -985 c0
-307 -13 -470 -41 -527 -14 -27 -93 -80 -123 -83 -9 -1 -26 -7 -38 -13 -54
-29 -54 -11 0 47 53 58 107 162 121 236 4 17 -4 5 -16 -25 -40 -97 -85 -165
-137 -209 -53 -44 -60 -46 -39 -8 7 12 13 30 15 40 2 10 9 30 17 46 37 71 44
366 19 834 -5 97 -3 125 12 165 63 171 160 422 173 450 16 32 17 19 27 -310 5
-189 10 -478 10 -643z m1062 922 c-11 -34 -14 -37 -42 -31 -17 3 -43 0 -59 -6
-25 -9 -32 -8 -52 11 -13 12 -22 24 -20 26 2 2 39 5 82 7 58 2 81 7 88 19 15
24 16 16 3 -26z m-1821 3 c-7 -14 -23 -49 -37 -77 -20 -44 -28 -53 -50 -53
-33 0 -124 -27 -172 -52 -22 -11 -59 -38 -83 -60 -24 -22 -44 -38 -44 -35 0 3
9 36 21 73 23 75 58 120 124 160 67 39 177 72 237 70 14 0 15 -4 4 -26z m5367
-31 c42 -11 197 -124 299 -218 87 -80 162 -216 188 -341 10 -47 22 -103 28
-125 5 -22 13 -70 16 -108 l7 -67 -64 39 -63 38 -26 -18 c-26 -19 -26 -19 -42
6 -26 39 -214 231 -252 257 -38 26 -54 66 -54 139 0 73 -49 239 -115 392 -9
20 18 23 78 6z m-2128 -138 c87 -23 245 -89 245 -102 0 -8 -50 -172 -54 -176
-2 -2 -22 6 -45 18 -117 56 -329 94 -485 86 -56 -3 -112 -8 -126 -12 -23 -6
-28 0 -71 92 -25 54 -45 99 -44 101 7 9 207 20 340 17 124 -2 178 -7 240 -24z
m-3325 -20 c0 -5 -48 -85 -107 -177 -58 -93 -126 -202 -150 -241 -25 -40 -46
-73 -48 -73 -2 0 3 28 10 63 7 34 18 88 25 120 10 49 77 266 85 275 1 2 31 11
66 22 70 20 119 25 119 11z m2129 -338 c44 -136 103 -315 131 -398 28 -82 66
-199 84 -260 18 -60 42 -133 54 -162 l21 -51 -89 44 c-50 24 -97 44 -105 44
-8 0 -15 3 -15 8 0 4 -18 18 -40 32 -22 14 -42 32 -45 40 -2 8 -16 127 -30
265 -14 137 -27 261 -30 275 -2 14 -8 59 -14 100 -6 41 -17 98 -26 125 -12 38
-14 73 -8 150 8 122 1 134 112 -212z m2380 234 c20 -38 35 -85 42 -130 13 -96
39 -360 35 -365 -2 -1 -19 19 -38 46 l-35 48 -6 155 c-3 110 -11 176 -26 233
-12 44 -21 82 -21 85 0 11 19 -16 49 -72z m-475 21 c3 -13 11 -80 18 -149 14
-158 -1 -324 -32 -332 -12 -3 -20 2 -23 15 -5 17 -11 19 -37 13 -17 -4 -51 -7
-76 -8 -43 0 -45 -1 -40 -26 3 -14 8 -77 11 -138 6 -113 6 -113 -17 -113 -86
1 -259 148 -239 203 5 12 14 68 21 125 7 56 15 102 18 102 3 0 15 -9 27 -20
20 -18 23 -19 35 -5 10 13 39 182 40 236 0 13 13 18 53 21 57 5 166 49 193 79
23 25 40 24 48 -3z m291 -261 c21 -111 29 -387 14 -438 -11 -34 -9 -36 40 -89
52 -56 57 -72 54 -161 -1 -31 -53 -150 -62 -144 -4 2 -20 36 -36 76 l-28 72
23 63 c12 35 20 69 17 76 -2 7 -12 -10 -23 -39 -10 -30 -21 -47 -25 -41 -4 7
1 34 11 61 l19 48 -35 38 c-32 36 -33 40 -21 72 13 38 17 457 5 564 l-7 60 19
-63 c10 -34 26 -104 35 -155z m-3711 -497 c-5 -201 -15 -312 -36 -398 -13 -55
-30 -59 -172 -43 -161 18 -154 12 -93 89 71 89 80 106 105 182 34 102 132 468
147 545 7 39 19 84 26 100 12 27 14 15 21 -120 4 -82 5 -242 2 -355z m5036
319 c99 -104 140 -149 140 -153 0 -3 -36 -30 -80 -61 -43 -31 -116 -85 -162
-121 -73 -59 -86 -65 -116 -60 -42 6 -72 39 -72 78 0 16 18 67 39 113 52 109
93 240 92 289 0 21 2 42 5 48 6 9 80 -55 154 -133z m-1080 -132 c53 -87 56
-106 26 -166 -23 -44 -24 -55 -17 -107 5 -33 12 -119 15 -191 5 -128 5 -134
-17 -154 l-22 -20 -7 203 c-4 112 -11 221 -16 243 -7 28 -9 -26 -6 -180 3
-121 6 -231 9 -245 3 -21 -3 -28 -44 -46 l-47 -21 9 71 c4 39 7 135 5 213 -3
136 -4 143 -29 170 -53 59 -61 78 -44 120 8 21 21 67 30 103 9 36 23 86 32
111 l16 47 33 -42 c18 -22 51 -72 74 -109z m-601 90 c-2 -2 -23 -13 -46 -25
-42 -21 -43 -21 -43 -3 0 14 9 21 28 24 39 6 66 8 61 4z m171 -28 c0 -5 0 -12
-1 -16 0 -5 -21 -15 -47 -24 -26 -9 -72 -26 -102 -38 -61 -24 -75 -22 -83 9
-8 32 26 57 91 64 31 4 63 10 70 15 16 9 72 2 72 -10z m73 -141 c8 -110 8
-128 -3 -128 -6 0 -9 -5 -7 -12 1 -6 -6 -14 -15 -16 -19 -4 -20 4 -21 108 -1
103 3 120 22 120 17 0 20 -10 24 -72z m-83 53 c0 -22 -21 -60 -65 -120 l-48
-65 -14 28 c-11 20 -12 31 -4 39 6 6 11 30 11 54 0 34 4 43 18 43 9 1 28 7 42
15 29 16 60 19 60 6z m-383 -145 c58 -29 117 -33 147 -11 11 8 27 15 35 15 21
0 -55 -51 -98 -66 -19 -6 -42 -9 -50 -5 -9 4 -31 15 -49 24 -19 9 -39 17 -46
17 -6 0 -29 9 -49 19 -40 21 -43 19 -49 -29 -2 -19 -8 -24 -23 -22 -36 6 -40
20 -21 70 20 53 21 55 31 99 l7 33 57 -59 c31 -32 80 -70 108 -85z m194 111
c40 6 41 5 37 -22 -2 -21 -11 -32 -34 -41 -40 -16 -50 -8 -57 46 -4 30 -3 40
4 28 7 -12 18 -15 50 -11z m160 -173 c-34 -55 -61 -76 -81 -64 -11 7 0 29 46
97 l59 88 3 -36 c2 -27 -5 -50 -27 -85z m173 51 l27 -35 -42 -82 c-48 -96
-109 -198 -118 -198 -14 0 -31 25 -31 44 0 33 90 177 117 187 23 8 25 14 21
64 -1 30 -2 55 -2 55 1 0 14 -16 28 -35z m-289 -34 c4 -19 1 -41 -9 -60 -15
-28 -15 -30 10 -48 l25 -18 -21 -49 c-20 -44 -20 -49 -6 -65 16 -18 22 -81 8
-81 -4 0 -27 19 -50 43 l-42 43 15 58 c17 66 12 79 -47 114 l-27 16 49 28 c27
15 51 32 55 38 12 20 34 10 40 -19z m-235 -48 c63 -32 119 -62 123 -68 4 -5 6
-34 3 -63 -4 -49 -2 -55 36 -103 75 -96 201 -214 260 -244 32 -17 58 -33 58
-36 0 -3 -26 -18 -57 -33 l-58 -27 -43 19 c-82 37 -272 203 -323 281 -11 18
-26 25 -66 28 l-50 5 -7 67 c-8 90 -8 231 1 231 4 0 59 -26 123 -57z m-191 10
c24 -14 31 -25 31 -49 0 -17 3 -59 6 -93 7 -58 6 -61 -15 -61 -49 0 -121 -60
-121 -101 0 -54 130 -68 208 -23 51 30 76 25 110 -24 l21 -29 -77 -1 c-42 -1
-136 -12 -208 -25 l-130 -22 17 65 c10 36 26 95 35 132 l17 67 36 -27 36 -26
-34 36 -33 36 27 81 c15 45 30 81 35 81 5 0 22 -8 39 -17z m608 -14 c9 -3 8
-9 -2 -22 -12 -17 -14 -17 -33 -1 -16 14 -18 21 -9 35 9 14 13 15 21 4 6 -7
16 -14 23 -16z m-37 -63 c0 -34 -18 -77 -43 -104 -21 -22 -21 -23 -3 -57 10
-18 16 -39 14 -47 -3 -8 -11 -1 -21 18 -9 18 -28 46 -42 63 l-27 31 22 35 c12
19 26 35 31 35 5 0 9 6 9 13 0 19 21 37 42 37 12 0 18 -8 18 -24z m211 -226
c22 -58 44 -113 50 -123 12 -22 15 -19 -36 -45 l-40 -20 -32 28 c-17 16 -52
69 -78 118 l-47 89 53 73 53 72 19 -43 c10 -24 36 -91 58 -149z m-749 22 c-5
-32 -4 -32 29 -26 l34 5 -25 -15 c-31 -19 -120 -21 -144 -3 -23 17 -11 45 31
75 59 42 85 29 75 -36z m-1275 -2 l25 -20 -48 5 c-47 5 -61 14 -85 57 -8 16
-5 16 37 -2 25 -11 57 -29 71 -40z m1765 -41 c7 -1 19 -1 26 0 14 2 15 -8 3
-28 -10 -16 -36 -8 -72 22 -22 18 -25 26 -18 46 l10 25 19 -32 c11 -18 25 -33
32 -33z m351 9 c-9 -78 -23 -91 -40 -35 -12 39 2 77 28 77 14 0 16 -7 12 -42z
m347 21 c42 -9 50 -14 50 -34 0 -14 -13 -33 -36 -50 -27 -21 -33 -30 -23 -36
10 -6 6 -9 -13 -9 -15 0 -30 -4 -33 -10 -7 -11 -311 -162 -529 -261 -145 -66
-178 -80 -146 -59 13 8 12 10 -2 10 -10 0 -18 -5 -18 -11 0 -6 -16 -2 -36 10
-34 20 -61 20 -49 0 4 -5 2 -9 -3 -9 -6 0 -13 12 -16 26 -5 20 1 35 29 70 20
24 39 44 43 45 4 0 30 2 57 4 46 4 137 40 512 205 36 16 42 17 47 4 9 -22 26
-7 26 23 0 14 9 41 21 59 23 38 37 41 119 23z m-5320 -28 c0 -38 -11 -41 -124
-40 -61 0 -106 3 -101 5 8 3 163 34 218 43 4 0 7 -3 7 -8z m2975 -23 c14 -12
-10 -10 -40 4 -14 6 -25 15 -25 19 0 9 47 -8 65 -23z m1719 17 c3 -9 0 -15 -9
-15 -8 0 -15 7 -15 15 0 8 4 15 9 15 5 0 11 -7 15 -15z m-3769 -64 c61 -6 125
-13 143 -14 l33 -2 -27 -32 c-25 -31 -31 -33 -93 -33 -66 0 -235 16 -259 25
-10 4 -10 9 0 24 7 11 15 18 19 15 7 -4 22 13 25 29 1 4 2 9 3 12 0 2 11 1 24
-4 12 -4 72 -13 132 -20z m3832 -30 c13 -19 23 -45 23 -58 0 -28 -5 -25 -81
40 -36 31 -41 40 -29 48 28 17 64 5 87 -30z m-247 -148 c0 -7 -19 -25 -42 -40
-38 -25 -50 -28 -132 -28 -61 0 -99 5 -116 15 -24 14 -24 14 32 22 72 9 129
38 165 83 l28 36 33 -37 c17 -21 32 -43 32 -51z m714 36 c-77 -154 -318 -263
-479 -218 l-40 12 90 43 c77 37 445 210 453 213 1 1 -9 -22 -24 -50z"/>
<path d="M3411 6365 c-40 -55 -90 -163 -125 -268 -32 -97 -69 -253 -64 -269 2
-6 17 40 31 103 42 177 114 357 174 437 14 18 23 35 21 38 -3 2 -19 -16 -37
-41z"/>
<path d="M3941 6288 c93 -95 160 -211 217 -378 45 -131 49 -104 5 35 -55 173
-162 334 -267 401 -16 10 4 -16 45 -58z"/>
<path d="M3749 6318 c-17 -18 -35 -42 -41 -53 -12 -23 -6 -18 47 43 43 49 38
58 -6 10z"/>
<path d="M3201 5734 c-7 -41 -11 -78 -8 -80 2 -3 10 30 16 72 7 41 11 78 8 80
-2 3 -10 -30 -16 -72z"/>
<path d="M3853 4973 c37 -2 97 -2 135 0 37 2 6 3 -68 3 -74 0 -105 -1 -67 -3z"/>
<path d="M3233 4302 c-23 -41 -21 -83 5 -104 13 -12 15 -8 9 28 -4 22 -2 55 3
74 13 45 9 46 -17 2z"/>
<path d="M3342 3700 l-23 -40 28 -11 c38 -14 94 -7 107 13 9 15 4 23 -24 47
-19 17 -42 30 -50 31 -8 0 -25 -18 -38 -40z m66 -3 c26 -28 20 -37 -24 -37
-32 0 -32 1 -21 30 14 36 17 37 45 7z"/>
<path d="M2745 4983 c-16 -3 -34 -8 -38 -13 -11 -10 196 -1 238 10 32 9 -142
11 -200 3z"/>
<path d="M2948 4578 c5 -5 16 -8 23 -6 8 3 3 7 -10 11 -17 4 -21 3 -13 -5z"/>
<path d="M4128 4803 c7 -3 16 -2 19 1 4 3 -2 6 -13 5 -11 0 -14 -3 -6 -6z"/>
<path d="M3884 4788 c-4 -6 -3 -8 4 -4 5 3 12 1 14 -6 3 -8 6 -9 11 -1 4 6 0
13 -8 17 -8 3 -17 0 -21 -6z"/>
<path d="M3880 4674 c0 -2 9 -8 20 -14 15 -8 18 -8 14 3 -4 11 -34 21 -34 11z"/>
<path d="M2705 3399 c-12 -18 1 -20 56 -5 l54 15 -52 0 c-28 1 -55 -4 -58 -10z"/>
<path d="M2981 3374 c0 -11 3 -14 6 -6 3 7 2 16 -1 19 -3 4 -6 -2 -5 -13z"/>
<path d="M4653 3095 c6 -203 31 -416 57 -476 10 -23 10 -22 6 6 -13 83 -17
122 -31 260 -8 83 -18 209 -21 280 -10 206 -17 161 -11 -70z"/>
<path d="M3352 2320 c-40 -25 -52 -48 -52 -105 0 -55 19 -103 54 -138 38 -38
79 -36 122 7 29 29 34 41 34 81 0 25 -5 56 -11 68 -17 32 -60 77 -90 92 -22
12 -30 11 -57 -5z m106 -68 c30 -42 35 -84 16 -126 -20 -40 -41 -51 -84 -41
-84 18 -107 180 -31 219 23 12 29 12 53 -5 15 -11 36 -32 46 -47z"/>
<path d="M6040 2308 c4 -24 49 -158 49 -147 1 20 -38 149 -44 149 -3 0 -5 -1
-5 -2z"/>
<path d="M6092 2115 c0 -16 2 -22 5 -12 2 9 2 23 0 30 -3 6 -5 -1 -5 -18z"/>
<path d="M2774 1615 c0 -88 2 -123 3 -77 2 46 2 118 0 160 -1 42 -3 5 -3 -83z"/>
<path d="M2762 1290 c0 -14 2 -19 5 -12 2 6 2 18 0 25 -3 6 -5 1 -5 -13z"/>
<path d="M2752 1240 c0 -14 2 -19 5 -12 2 6 2 18 0 25 -3 6 -5 1 -5 -13z"/>
<path d="M2741 1194 c0 -11 3 -14 6 -6 3 7 2 16 -1 19 -3 4 -6 -2 -5 -13z"/>
<path d="M6451 1604 c0 -11 3 -14 6 -6 3 7 2 16 -1 19 -3 4 -6 -2 -5 -13z"/>
<path d="M6461 1570 c0 -8 7 -44 14 -80 l15 -65 -5 57 c-5 51 -24 123 -24 88z"/>
<path d="M5620 1287 c0 -3 29 -45 65 -93 36 -48 65 -81 65 -74 0 7 -23 43 -50
80 -48 64 -80 99 -80 87z"/>
<path d="M5780 1072 c0 -10 117 -123 225 -218 92 -80 115 -99 115 -91 0 3 -51
50 -112 105 -62 55 -139 125 -170 155 -32 31 -58 53 -58 49z"/>
<path d="M6375 812 c-123 -54 -204 -96 -165 -86 52 14 303 134 280 134 -3 0
-54 -22 -115 -48z"/>
</g>
</svg>
